<svg version="1.2" baseProfile="tiny-ps" xmlns="http://www.w3.org/2000/svg" viewBox="0 0 568 224" width="568" height="224">
	<title>&lt;Group&gt;</title>
	<style>
		tspan { white-space:pre }
		.s0 { fill: #cccccc } 
		.s1 { fill: #61162d } 
	</style>
	<g id="&lt;Group&gt;">
		<g id="&lt;Group&gt;">
			<g id="&lt;Group&gt;">
				<g id="&lt;Group&gt;">
					<path id="&lt;Path&gt;" class="s0" d="m55.87 75.35v-46.59h7.63v46.59h-7.63z" />
				</g>
				<g id="&lt;Group&gt;">
					<path id="&lt;Path&gt;" class="s0" d="m40.61 75.35v-37.56h7.63v37.56h-7.63z" />
				</g>
				<g id="&lt;Group&gt;">
					<path id="&lt;Path&gt;" class="s0" d="m25.35 75.35v-28.54h7.63v28.54h-7.63z" />
				</g>
			</g>
			<g id="&lt;Group&gt;">
				<path id="&lt;Path&gt;" class="s1" d="m121.75 69.26l-2.7 2l-2.7 1.99l-0.66-1.91l-17.59-51.39l-0.28 0.83l-0.27-0.83l-17.59 51.39l-1.48 4.33h-59.41l44.78 34.07l1.49 1.14l-2.68 1.98l-2.68 1.98l-59.9-45.57h73.82l23.73-69.32l0.19 0.58l0.19-0.58l23.73 69.32z" />
			</g>
			<g id="&lt;Group&gt;">
				<path id="&lt;Path&gt;" class="s1" d="m157.23 188.62l-59.48-43.73l0.11-7.87l47.87 35.19l-15.9-53.98l-0.53-1.8l3.34-0.01l3.33-0.01l21.27 72.19z" />
			</g>
			<g id="&lt;Group&gt;">
				<path id="&lt;Path&gt;" class="s0" d="m205.11 91.51c-10.02-4.06-20.56-5.38-32.55-3.24c-6.12 1.08-12.15 2.61-18.08 4.52c-4.41 1.42-8.76 3.06-13.06 4.91l-4.57 2.58c-8.97 5.7-17.66 11.58-25.85 17.96c-11.74 9.14-23.25 18.46-35.95 26.88c-8.28 5.5-16.91 10.56-26.92 13.37l0 0.01l-5.74 1.67l-0.49 0.14c-8.31 2.36-16.31 2.49-24.21 1.51c10.22-2.39 20.47-4.35 30.18-8.72l4.26-2.12c17.91-10.26 32.44-22.98 46.92-35.77c7.52-6.64 14.67-13.54 23.51-19.33l2.72-1.9l0.43-0.31c9.21-6.78 20.34-11.53 31.33-14.12c22.22-5.24 43.88-1.64 48.06 11.96z" />
				<path id="&lt;Path&gt;" class="s0" d="m152.7 72.3c-18.74 5.88-33.17 15.87-46.67 26.92l-4.12 3.31c-14.64 12.42-26.98 26.15-42.4 38.09c-9.86 7.63-21 13.68-35.97 15.77c-0.38 0.06-0.75 0.1-1.14 0.15c0.51-0.16 1.01-0.33 1.51-0.49c7.32-2.4 12.92-4.71 18.23-7.93c11.19-6.77 19.24-15.25 27.5-23.68c7.95-8.12 15.05-16.65 23.93-24.35l0.01 0l4.13-3.79l0.09-0.08c18.39-17.71 41.91-28.3 54.9-23.91z" />
			</g>
		</g>
		<g id="&lt;Group&gt;">
			<g id="&lt;Group&gt;">
				<g id="&lt;Group&gt;">
					<path id="&lt;Path&gt;" class="s1" d="m290.02 2.06c0 3.34-0.34 11.02-0.34 12.26c0 0.99-0.33 1.44-0.77 1.44c-0.56 0-0.79-0.33-0.9-1.89l-0.11-1.22c-0.34-3.34-3-5.91-13.72-6.13l-14.04-0.23v47.15c0 10.7 0 19.51 0.56 24.2c0.34 3.22 1.01 5.68 4.35 6.13c1.56 0.22 4.01 0.43 5.02 0.43c0.67 0 0.9 0.34 0.9 0.68c0 0.56-0.56 0.88-1.8 0.88c-6.13 0-13.14-0.32-13.7-0.32c-0.56 0-7.59 0.32-10.93 0.32c-1.22 0-1.78-0.22-1.78-0.88c0-0.34 0.22-0.68 0.88-0.68c1.01 0 2.35-0.22 3.34-0.43c2.23-0.45 2.79-2.91 3.24-6.13c0.56-4.69 0.56-13.5 0.56-24.2v-47.15l-16.49 0.23c-6.92 0.11-9.6 0.88-11.38 3.56c-1.22 1.89-1.56 2.68-1.89 3.45c-0.34 0.9-0.68 1.11-1.11 1.11c-0.34 0-0.56-0.33-0.56-1.01c0-1.11 2.23-10.7 2.45-11.58c0.22-0.68 0.67-2.12 1.11-2.12c0.77 0 1.89 1.11 4.91 1.33c3.24 0.34 7.46 0.56 8.81 0.56h41.8c3.56 0 6.13-0.22 7.91-0.56c1.67-0.22 2.68-0.56 3.13-0.56c0.56 0 0.56 0.67 0.56 1.35z" />
					<path id="&lt;Path&gt;" class="s1" d="m349.33 72.28c0 0.9-0.9 8.55-1.46 10.9c-0.77 2.93-1.67 2.93-6.02 2.93c-8.36 0-14.49-0.23-18.84-0.34c-4.35-0.22-7.01-0.34-8.68-0.34c-0.23 0-2.12 0-4.46 0.12c-2.23 0-4.8 0.22-6.47 0.22c-1.22 0-1.78-0.22-1.78-0.9c0-0.34 0.22-0.67 0.88-0.67c1.01 0 2.34-0.23 3.34-0.46c2.23-0.45 2.79-2.91 3.24-6.18c0.56-4.71 0.56-13.59 0.56-24.37v-19.78c0-17.52 0-20.67-0.22-24.26c-0.23-3.82-1.11-5.62-4.8-6.41c-0.88-0.22-2.79-0.34-3.79-0.34c-0.45 0-0.88-0.22-0.88-0.67c0-0.68 0.56-0.9 1.78-0.9c2.55 0 5.57 0 8.02 0.11l4.58 0.23c0.77 0 22.96 0 25.51-0.12c2.12-0.11 3.92-0.33 4.8-0.56c0.56-0.11 1.01-0.56 1.56-0.56c0.34 0 0.45 0.45 0.45 1.01c0 0.79-0.56 2.14-0.9 5.28c-0.11 1.13-0.32 6.07-0.56 7.42c-0.11 0.56-0.33 1.24-0.77 1.24c-0.67 0-0.9-0.56-0.9-1.46c0-0.79-0.11-2.69-0.67-4.06c-0.77-1.8-1.9-3.14-7.91-3.81c-1.9-0.23-14.06-0.34-15.28-0.34c-0.45 0-0.67 0.34-0.67 1.11v31.01c0 0.79 0.11 1.13 0.67 1.13c1.46 0 15.16 0 17.73-0.23c2.68-0.22 4.24-0.45 5.23-1.56c0.79-0.9 1.24-1.46 1.69-1.46c0.33 0 0.56 0.22 0.56 0.9c0 0.67-0.56 2.57-0.9 6.29c-0.22 2.24-0.45 6.41-0.45 7.18c0 0.9 0 2.14-0.77 2.14c-0.56 0-0.79-0.45-0.79-1.01c0-1.13 0-2.24-0.43-3.72c-0.45-1.56-1.46-3.47-5.81-3.93c-3-0.32-14.04-0.56-15.94-0.56c-0.56 0-0.77 0.34-0.77 0.79v9.89c0 3.81-0.11 16.84 0 19.21c0.34 7.74 2.01 9.21 12.93 9.21c2.89 0 7.8 0 10.7-1.24c2.91-1.24 4.24-3.48 5.03-8.1c0.22-1.24 0.43-1.69 0.99-1.69c0.68 0 0.68 0.9 0.68 1.69z" />
					<path id="&lt;Path&gt;" class="s1" d="m437.5 84.87v0.02c-0.02 0.54-0.57 0.88-1.56 0.88c-6.8 0-12.15 0-17.83-0.22c-2.89-0.12-3.45-0.34-3.45-0.9c0-0.46 0.22-0.79 0.67-0.91c0.56-0.22 1.56-1.35 0.56-3.16c-6.02-11.04-12.48-22.18-19.16-33.56l-17.4 29.85c-1.01 1.81-1.44 3.84-1.44 4.97c0 1.11 0.77 1.9 1.78 2.14c0.67 0.11 1.56 0.22 2.12 0.22c0.56 0 0.88 0.34 0.88 0.79c0 0.57-0.56 0.79-1.33 0.79c-2.68 0-9.71-0.34-10.7-0.34c-1.01 0-6.47 0.34-10.16 0.34c-0.88 0-1.11-0.34-1.11-0.79c0-0.45 0.34-0.79 0.9-0.79c0.9 0 2.57-0.11 4.24-0.56c3.34-0.9 5.68-3.37 9.24-9.12l20.19-32.23l-17.83-30.3c-2.57-4.4-4.91-7.66-8.7-9.01c-1.78-0.57-4.01-0.79-4.69-0.79c-0.67 0-0.99-0.34-0.99-0.79c0-0.57 0.43-0.79 1.89-0.79c3.13 0 12.15 0.34 13.03 0.34c1.01 0 6.7-0.34 10.48-0.34c1.56 0 1.9 0.22 1.9 0.79c0 0.56-0.34 0.79-1.01 0.79c-0.67 0-2.12 0-3 0.34c-1.01 0.34-1.35 1.11-1.35 1.9c0 1.13 0.45 2.48 1.11 3.73c4.69 8.89 9.26 17.23 15.05 26.92c3.34-4.85 15.28-24.12 16.39-26.47c0.77-1.7 1.11-2.71 1.11-4.06c0-0.79-0.79-1.69-1.9-2.03c-1.11-0.34-2.68-0.34-3.34-0.34c-0.67 0-1.01-0.23-1.01-0.79c0-0.45 0.57-0.79 1.9-0.79c4.24 0 8.92 0.34 9.92 0.34c1.01 0 5.57-0.34 9.37-0.34c1.22 0 1.78 0.34 1.78 0.79c0 0.45-0.45 0.79-1.22 0.79c-0.79 0-2.46 0.11-3.68 0.56c-3.24 1.02-5.36 4.29-8.58 9.13l-17.96 27.26c2.12 3.48 21.18 36.27 23.53 39.31c1.78 2.37 3.34 4.06 6.56 5.08c1.56 0.45 3.24 0.67 3.9 0.67c0.56 0 0.9 0.23 0.9 0.68z" />
					<path id="&lt;Compound Path&gt;" fill-rule="evenodd" class="s1" d="m521.58 84.88c0 0.67-1.01 0.88-2.23 0.88c-1.67 0-9.81 0-17.51-0.22c-2.11-0.11-3.34-0.11-3.34-0.77c0-0.45 0.34-0.68 0.79-0.79c0.67-0.22 1.33-1.22 0.67-3l-10.37-27.43c-0.22-0.45-0.43-0.67-0.99-0.67h-23.98c-0.56 0-0.88 0.34-1.11 0.9l-6.69 19.72c-0.99 2.79-1.55 5.46-1.55 7.48c0 2.23 2.34 3.22 4.23 3.22h1.11c0.79 0 1.11 0.23 1.11 0.68c0 0.67-0.67 0.88-1.67 0.88c-2.68 0-7.46-0.32-8.68-0.32c-1.24 0-7.37 0.32-12.6 0.32c-1.46 0-2.12-0.22-2.12-0.88v-0.02c0.02-0.43 0.45-0.67 1.01-0.67c0.77 0 2.34-0.11 3.24-0.22c5.12-0.67 7.35-4.91 9.37-10.48l25.3-69.21c1.33-3.68 1.78-4.35 2.45-4.35c0.68 0 1.11 0.56 2.46 4.01c1.67 4.24 19.16 50.27 25.98 67.22c4.01 9.92 7.24 11.7 9.58 12.37c1.67 0.56 3.34 0.67 4.46 0.67c0.67 0 1.11 0.12 1.11 0.68zm-34-36.8l-10.59-30.09c-0.56-1.67-1.11-1.67-1.67 0l-9.81 30.09c-0.22 0.56 0 0.79 0.34 0.79h21.29c0.56 0 0.56-0.34 0.45-0.79z" />
					<path id="&lt;Path&gt;" class="s1" d="m568.03 63.24c0 4.52-1.78 12.87-9.47 18.26c-4.78 3.3-10.81 4.61-16.83 4.61c-5.25 0-10.37-0.76-14.94-2.96c-1.56-0.78-1.67-1.21-1.67-4.18c0-5.49 0.45-9.89 0.56-11.65c0.11-1.21 0.34-1.76 0.9-1.76c0.67 0 0.77 0.32 0.77 1.21c0 0.99 0 2.52 0.34 4.06c1.67 8.14 9.03 11.22 16.49 11.22c10.71 0 15.94-7.59 15.94-14.62c0-7.59-3.24-11.98-12.82-19.78l-5.02-4.08c-11.81-9.56-14.49-16.36-14.49-23.84c0-11.77 8.92-19.78 23.07-19.78c4.35 0 7.59 0.44 10.37 1.1c2.12 0.44 3 0.55 3.9 0.55c0.9 0 1.11 0.21 1.11 0.76c0 0.55-0.45 4.18-0.45 11.66c0 1.76-0.22 2.52-0.77 2.52c-0.67 0-0.79-0.55-0.9-1.43c-0.11-1.31-0.77-4.27-1.44-5.49c-0.68-1.21-3.68-5.82-13.93-5.82c-7.69 0-13.72 4.72-13.72 12.75c0 6.26 2.89 10.23 13.59 18.47l3.13 2.41c13.16 10.23 16.27 17.03 16.27 25.83z" />
				</g>
				<g id="&lt;Group&gt;">
					<path id="&lt;Path&gt;" class="s1" d="m276.8 150.98c0 0.59-1.02 7.88-1.87 10.74c-0.51 1.59-0.67 1.76-2.2 2.43c-3.38 1.34-9.81 1.93-15.23 1.93c-12.69 0-21.23-3.1-27.92-9.06c-8.21-7.3-10.25-16.85-10.25-24.81c0-5.62 1.95-15.43 9.48-22.9c5.08-5.03 12.77-8.96 25.8-8.96c3.38 0 8.12 0.25 12.27 1.01c3.22 0.58 5.92 1.08 8.64 1.26c0.93 0.08 1.09 0.41 1.09 0.92c0 0.67-0.25 1.68-0.42 4.7c-0.16 2.76-0.16 7.38-0.25 8.64c-0.09 1.26-0.26 1.76-0.76 1.76c-0.6 0-0.68-0.59-0.68-1.76c0-3.28-1.35-6.71-3.55-8.55c-2.96-2.51-9.48-4.78-16.92-4.78c-11.26 0-16.5 3.27-19.46 6.12c-6.18 5.87-7.61 13.34-7.61 21.89c0 16.01 12.43 30.68 30.54 30.68c6.34 0 11.34-0.75 14.72-4.18c1.77-1.84 2.88-5.53 3.13-7.05c0.18-0.92 0.34-1.26 0.85-1.26c0.42 0 0.6 0.59 0.6 1.26z" />
					<path id="&lt;Path&gt;" class="s1" d="m319.85 155.33c0 0.68-0.68 6.43-1.1 8.21c-0.59 2.2-1.27 2.2-4.57 2.2c-6.34 0-11-0.16-14.3-0.26c-3.29-0.16-5.32-0.25-6.59-0.25c-0.18 0-1.61 0-3.38 0.08c-1.69 0-3.64 0.16-4.91 0.16c-0.93 0-1.35-0.16-1.35-0.67c0-0.26 0.16-0.51 0.67-0.51c0.76 0 1.79-0.18 2.54-0.34c1.69-0.34 2.11-2.21 2.46-4.65c0.42-3.56 0.42-10.25 0.42-18.36v-14.89c0-13.21 0-15.57-0.16-18.28c-0.16-2.87-0.85-4.23-3.64-4.82c-0.67-0.16-2.11-0.26-2.88-0.26c-0.33 0-0.67-0.16-0.67-0.51c0-0.51 0.42-0.67 1.35-0.67c1.95 0 4.23 0 6.09 0.08l3.48 0.16c0.59 0 17.42 0 19.37-0.08c1.6-0.08 2.96-0.26 3.63-0.42c0.42-0.08 0.76-0.42 1.19-0.42c0.26 0 0.34 0.34 0.34 0.76c0 0.59-0.42 1.61-0.68 3.97c-0.08 0.85-0.25 4.57-0.42 5.59c-0.08 0.41-0.25 0.93-0.59 0.93c-0.51 0-0.68-0.42-0.68-1.1c0-0.59-0.08-2.03-0.51-3.04c-0.59-1.35-1.43-2.37-6-2.88c-1.45-0.16-10.66-0.25-11.6-0.25c-0.33 0-0.51 0.25-0.51 0.83v23.36c0 0.59 0.08 0.85 0.51 0.85c1.1 0 11.51 0 13.45-0.18c2.03-0.16 3.22-0.33 3.98-1.17c0.59-0.68 0.93-1.1 1.27-1.1c0.25 0 0.42 0.16 0.42 0.68c0 0.51-0.42 1.94-0.68 4.73c-0.16 1.69-0.34 4.82-0.34 5.42c0 0.67 0 1.61-0.59 1.61c-0.42 0-0.6-0.34-0.6-0.76c0-0.85 0-1.69-0.33-2.8c-0.34-1.19-1.1-2.62-4.41-2.96c-2.28-0.26-10.66-0.42-12.09-0.42c-0.42 0-0.6 0.26-0.6 0.6v7.44c0 2.88-0.08 12.69 0 14.46c0.26 5.84 1.53 6.94 9.81 6.94c2.21 0 5.92 0 8.13-0.93c2.2-0.94 3.21-2.63 3.81-6.1c0.16-0.93 0.34-1.27 0.76-1.27c0.51 0 0.51 0.68 0.51 1.27z" />
					<path id="&lt;Path&gt;" class="s1" d="m394.17 102.12c0 0.34-0.34 0.59-0.93 0.59c-0.42 0-1.02 0-2.03 0.26c-2.8 0.59-3.13 2.46-3.13 7.53l-0.18 49.57c0 5.59-0.16 6.02-0.76 6.02c-0.67 0-1.69-0.94-6.17-5.42c-0.93-0.85-13.11-13.29-22.09-22.93c-9.81-10.57-19.37-21.23-22.08-24.27l1.1 40.52c0.16 6.94 1.01 9.14 3.29 9.81c1.61 0.42 3.48 0.52 4.23 0.52c0.42 0 0.68 0.16 0.68 0.51c0 0.51-0.51 0.67-1.53 0.67c-4.82 0-8.2-0.25-8.96-0.25c-0.76 0-4.31 0.25-8.12 0.25c-0.85 0-1.35-0.08-1.35-0.67c0-0.34 0.25-0.51 0.67-0.51c0.68 0 2.21-0.09 3.48-0.52c2.11-0.59 2.54-3.04 2.54-10.74l0.08-48.48c0-3.3 0.25-4.23 0.93-4.23c0.68 0 2.11 1.86 2.96 2.7c1.27 1.45 13.88 15.06 26.91 29.02c8.38 8.96 17.6 19.29 20.3 22.08l-0.93-42.97c-0.08-5.51-0.68-7.37-3.3-8.05c-1.53-0.33-3.47-0.42-4.15-0.42c-0.59 0-0.68-0.25-0.68-0.59c0-0.51 0.68-0.59 1.7-0.59c3.81 0 7.86 0.25 8.79 0.25c0.94 0 3.72-0.25 7.19-0.25c0.94 0 1.53 0.08 1.53 0.59z" />
					<path id="&lt;Path&gt;" class="s1" d="m452.95 101.95c0 2.54-0.26 8.37-0.26 9.31c0 0.76-0.25 1.09-0.59 1.09c-0.42 0-0.59-0.25-0.68-1.43l-0.08-0.93c-0.25-2.54-2.28-4.49-10.4-4.65l-10.67-0.18v35.79c0 8.12 0 14.8 0.42 18.36c0.26 2.44 0.76 4.31 3.3 4.65c1.19 0.16 3.04 0.34 3.81 0.34c0.51 0 0.68 0.25 0.68 0.51c0 0.42-0.42 0.67-1.35 0.67c-4.66 0-9.99-0.25-10.41-0.25c-0.42 0-5.76 0.25-8.29 0.25c-0.93 0-1.35-0.16-1.35-0.67c0-0.26 0.16-0.51 0.68-0.51c0.75 0 1.77-0.18 2.54-0.34c1.69-0.34 2.11-2.21 2.44-4.65c0.42-3.56 0.42-10.25 0.42-18.36v-35.79l-12.51 0.18c-5.25 0.08-7.28 0.67-8.64 2.7c-0.93 1.43-1.19 2.03-1.43 2.62c-0.26 0.68-0.51 0.85-0.85 0.85c-0.26 0-0.42-0.25-0.42-0.75c0-0.85 1.69-8.13 1.86-8.8c0.18-0.52 0.51-1.61 0.85-1.61c0.6 0 1.45 0.85 3.72 1.01c2.46 0.26 5.67 0.42 6.69 0.42h31.72c2.71 0 4.65-0.16 6-0.42c1.27-0.16 2.03-0.42 2.37-0.42c0.42 0 0.42 0.51 0.42 1.02z" />
					<path id="&lt;Path&gt;" class="s1" d="m497.91 155.33c0 0.68-0.67 6.43-1.1 8.21c-0.59 2.2-1.27 2.2-4.56 2.2c-6.34 0-11-0.16-14.3-0.26c-3.3-0.16-5.33-0.25-6.6-0.25c-0.16 0-1.61 0-3.38 0.08c-1.69 0-3.64 0.16-4.91 0.16c-0.93 0-1.35-0.16-1.35-0.67c0-0.26 0.18-0.51 0.68-0.51c0.76 0 1.77-0.18 2.54-0.34c1.69-0.34 2.11-2.21 2.46-4.65c0.42-3.56 0.42-10.25 0.42-18.36v-14.89c0-13.21 0-15.57-0.18-18.28c-0.16-2.87-0.85-4.23-3.63-4.82c-0.68-0.16-2.11-0.26-2.88-0.26c-0.34 0-0.68-0.16-0.68-0.51c0-0.51 0.42-0.67 1.35-0.67c1.95 0 4.24 0 6.1 0.08l3.47 0.16c0.6 0 17.42 0 19.37-0.08c1.61-0.08 2.96-0.26 3.64-0.42c0.42-0.08 0.76-0.42 1.17-0.42c0.26 0 0.34 0.34 0.34 0.76c0 0.59-0.42 1.61-0.67 3.97c-0.08 0.85-0.26 4.57-0.42 5.59c-0.08 0.41-0.26 0.93-0.6 0.93c-0.51 0-0.67-0.42-0.67-1.1c0-0.59-0.09-2.03-0.52-3.04c-0.59-1.35-1.43-2.37-6-2.88c-1.43-0.16-10.66-0.25-11.58-0.25c-0.34 0-0.51 0.25-0.51 0.83v23.36c0 0.59 0.08 0.85 0.51 0.85c1.09 0 11.5 0 13.45-0.18c2.02-0.16 3.21-0.33 3.97-1.17c0.59-0.68 0.93-1.1 1.27-1.1c0.26 0 0.42 0.16 0.42 0.68c0 0.51-0.42 1.94-0.68 4.73c-0.16 1.69-0.33 4.82-0.33 5.42c0 0.67 0 1.61-0.6 1.61c-0.42 0-0.59-0.34-0.59-0.76c0-0.85 0-1.69-0.34-2.8c-0.34-1.19-1.1-2.62-4.39-2.96c-2.29-0.26-10.67-0.42-12.1-0.42c-0.42 0-0.59 0.26-0.59 0.6v7.44c0 2.88-0.09 12.69 0 14.46c0.25 5.84 1.52 6.94 9.81 6.94c2.2 0 5.92 0 8.12-0.93c2.2-0.94 3.22-2.63 3.81-6.1c0.16-0.93 0.34-1.27 0.76-1.27c0.51 0 0.51 0.68 0.51 1.27z" />
					<path id="&lt;Compound Path&gt;" fill-rule="evenodd" class="s1" d="m568.03 164.81c0 0.51-0.51 0.67-2.03 0.67h-6c-4.75 0-6.85-0.42-9.06-1.61c-3.63-1.94-6.59-6.09-11.42-12.43c-3.55-4.65-7.53-10.32-9.22-12.52c-0.33-0.33-0.59-0.51-1.09-0.51l-10.41-0.16c-0.42 0-0.59 0.25-0.59 0.67v2.03c0 8.12 0 14.8 0.42 18.36c0.25 2.44 0.75 4.31 3.29 4.65c1.19 0.16 3.05 0.34 3.82 0.34c0.51 0 0.67 0.25 0.67 0.51c0 0.42-0.42 0.67-1.35 0.67c-4.65 0-9.99-0.25-10.41-0.25c-0.08 0-5.42 0.25-7.95 0.25c-0.93 0-1.35-0.16-1.35-0.67c0-0.26 0.18-0.51 0.68-0.51c0.76 0 1.77-0.18 2.54-0.34c1.69-0.34 2.11-2.21 2.46-4.65c0.42-3.56 0.42-10.25 0.42-18.36v-14.89c0-13.21 0-15.57-0.18-18.28c-0.16-2.87-0.85-4.23-3.63-4.82c-0.68-0.16-2.11-0.26-2.88-0.26c-0.34 0-0.68-0.16-0.68-0.51c0-0.51 0.42-0.67 1.35-0.67c3.81 0 9.14 0.25 9.56 0.25c0.93 0 7.35-0.25 9.99-0.25c5.32 0 11 0.51 15.47 3.71c2.11 1.53 5.84 5.67 5.84 11.51c0 6.26-2.62 12.51-10.23 19.54c6.93 8.88 12.69 16.41 17.6 21.65c4.57 4.83 8.2 5.76 10.32 6.1c1.61 0.26 2.8 0.26 3.3 0.26c0.42 0 0.76 0.25 0.76 0.51zm-28.86-43.66c0-10.57-5.58-16.92-14.63-16.92c-2.54 0-4.83 0.26-5.67 0.51c-0.42 0.18-0.67 0.51-0.67 1.02v27.66c0 0.42 0.16 0.76 0.59 1.02c1.27 0.75 5.16 1.35 8.88 1.35c2.03 0 4.41-0.26 6.34-1.61c2.96-2.03 5.16-6.6 5.16-13.03z" />
				</g>
			</g>
			<g id="&lt;Group&gt;">
				<path id="&lt;Compound Path&gt;" class="s0" d="m219.35 179.36h6.24v1.1h-5.02v2.73h4.42v1.07h-4.42v4.09h-1.22v-9z" />
				<path id="&lt;Compound Path&gt;" fill-rule="evenodd" class="s0" d="m234.31 180.65c0.6 0.8 0.89 1.82 0.89 3.06c0 1.34-0.34 2.46-1.02 3.35c-0.8 1.05-1.94 1.57-3.42 1.57c-1.38 0-2.47-0.46-3.27-1.37c-0.71-0.88-1.06-2-1.06-3.34c0-1.22 0.3-2.26 0.91-3.12c0.78-1.11 1.92-1.67 3.44-1.67c1.59 0 2.76 0.51 3.53 1.53zm-1.08 5.74c0.48-0.77 0.72-1.66 0.72-2.66c0-1.06-0.28-1.91-0.83-2.56c-0.55-0.65-1.31-0.97-2.27-0.97c-0.93 0-1.69 0.32-2.28 0.96c-0.59 0.64-0.88 1.58-0.88 2.83c0 1 0.25 1.84 0.76 2.52c0.5 0.68 1.32 1.03 2.45 1.03c1.07 0 1.85-0.39 2.33-1.16z" />
				<path id="&lt;Compound Path&gt;" fill-rule="evenodd" class="s0" d="m236.8 179.36h4.09c0.67 0 1.23 0.1 1.67 0.3c0.83 0.38 1.25 1.09 1.25 2.13c0 0.54-0.11 0.98-0.33 1.32c-0.22 0.34-0.53 0.62-0.93 0.83c0.35 0.14 0.62 0.33 0.79 0.56c0.18 0.23 0.28 0.61 0.3 1.13l0.04 1.21c0.01 0.34 0.04 0.6 0.09 0.77c0.07 0.29 0.2 0.47 0.39 0.55v0.2h-1.49c-0.04-0.08-0.07-0.18-0.1-0.3c-0.02-0.12-0.05-0.36-0.06-0.71l-0.07-1.5c-0.03-0.59-0.24-0.98-0.64-1.18c-0.23-0.11-0.58-0.17-1.07-0.17h-2.7v3.86h-1.22v-9zm3.96 4.12c0.56 0 1-0.11 1.32-0.34c0.32-0.23 0.49-0.64 0.49-1.24c0-0.64-0.23-1.08-0.68-1.31c-0.24-0.12-0.57-0.18-0.97-0.18h-2.89v3.08h2.74z" />
				<path id="&lt;Compound Path&gt;" fill-rule="evenodd" class="s0" d="m249.17 179.36h3.89c1.06 0 1.81 0.31 2.26 0.94c0.26 0.37 0.39 0.8 0.39 1.29c0 0.57-0.16 1.03-0.48 1.4c-0.17 0.19-0.41 0.37-0.72 0.53c0.46 0.18 0.81 0.37 1.04 0.59c0.4 0.39 0.61 0.93 0.61 1.62c0 0.58-0.18 1.1-0.55 1.57c-0.55 0.7-1.42 1.05-2.61 1.05h-3.83v-9zm3.44 3.8c0.52 0 0.92-0.07 1.21-0.21c0.45-0.22 0.68-0.63 0.68-1.21c0-0.59-0.24-0.98-0.72-1.19c-0.27-0.11-0.68-0.17-1.21-0.17h-2.2v2.79h2.24zm0.41 4.15c0.75 0 1.29-0.22 1.61-0.65c0.2-0.27 0.3-0.6 0.3-0.99c0-0.65-0.29-1.1-0.88-1.34c-0.31-0.13-0.73-0.19-1.24-0.19h-2.44v3.17h2.65z" />
				<path id="&lt;Compound Path&gt;" fill-rule="evenodd" class="s0" d="m264.98 180.65c0.6 0.8 0.89 1.82 0.89 3.06c0 1.34-0.34 2.46-1.02 3.35c-0.8 1.05-1.94 1.57-3.42 1.57c-1.38 0-2.47-0.46-3.27-1.37c-0.71-0.88-1.06-2-1.06-3.34c0-1.22 0.3-2.26 0.91-3.12c0.78-1.11 1.92-1.67 3.44-1.67c1.59 0 2.76 0.51 3.53 1.53zm-1.08 5.74c0.48-0.77 0.72-1.66 0.72-2.66c0-1.06-0.28-1.91-0.83-2.56c-0.55-0.65-1.31-0.97-2.27-0.97c-0.93 0-1.69 0.32-2.28 0.96c-0.59 0.64-0.88 1.58-0.88 2.83c0 1 0.25 1.84 0.76 2.52c0.5 0.68 1.32 1.03 2.45 1.03c1.07 0 1.85-0.39 2.33-1.16z" />
				<path id="&lt;Compound Path&gt;" fill-rule="evenodd" class="s0" d="m267.47 179.36h4.09c0.67 0 1.23 0.1 1.67 0.3c0.83 0.38 1.25 1.09 1.25 2.13c0 0.54-0.11 0.98-0.33 1.32c-0.22 0.34-0.53 0.62-0.93 0.83c0.35 0.14 0.62 0.33 0.79 0.56c0.18 0.23 0.28 0.61 0.3 1.13l0.04 1.21c0.01 0.34 0.04 0.6 0.09 0.77c0.07 0.29 0.2 0.47 0.39 0.55v0.2h-1.49c-0.04-0.08-0.07-0.18-0.1-0.3c-0.02-0.12-0.05-0.36-0.06-0.71l-0.07-1.5c-0.03-0.59-0.24-0.98-0.64-1.18c-0.23-0.11-0.58-0.17-1.07-0.17h-2.7v3.86h-1.22v-9zm3.96 4.12c0.56 0 1-0.11 1.32-0.34c0.32-0.23 0.49-0.64 0.49-1.24c0-0.64-0.23-1.08-0.68-1.31c-0.24-0.12-0.57-0.18-0.97-0.18h-2.9v3.08h2.74z" />
				<path id="&lt;Compound Path&gt;" fill-rule="evenodd" class="s0" d="m276.44 179.36h3.6c1.22 0 2.17 0.44 2.84 1.32c0.6 0.79 0.9 1.81 0.9 3.04c0 0.96-0.18 1.82-0.53 2.59c-0.62 1.36-1.7 2.05-3.22 2.05h-3.58v-9zm3.36 7.96c0.4 0 0.73-0.04 0.99-0.13c0.46-0.16 0.84-0.47 1.14-0.92c0.24-0.36 0.41-0.83 0.51-1.4c0.06-0.34 0.09-0.65 0.09-0.94c0-1.11-0.22-1.98-0.65-2.6c-0.43-0.62-1.13-0.93-2.09-0.93h-2.11v6.91h2.13z" />
				<path id="&lt;Compound Path&gt;" class="s0" d="m285.56 179.36h6.53v1.1h-5.34v2.73h4.94v1.04h-4.94v3.05h5.43v1.07h-6.62v-9z" />
				<path id="&lt;Compound Path&gt;" fill-rule="evenodd" class="s0" d="m293.96 179.36h4.09c0.67 0 1.23 0.1 1.67 0.3c0.83 0.38 1.25 1.09 1.25 2.13c0 0.54-0.11 0.98-0.33 1.32c-0.22 0.34-0.53 0.62-0.93 0.83c0.35 0.14 0.62 0.33 0.79 0.56c0.18 0.23 0.28 0.61 0.3 1.13l0.04 1.21c0.01 0.34 0.04 0.6 0.09 0.77c0.07 0.29 0.2 0.47 0.39 0.55v0.2h-1.49c-0.04-0.08-0.07-0.18-0.1-0.3c-0.02-0.12-0.05-0.36-0.06-0.71l-0.07-1.5c-0.03-0.59-0.24-0.98-0.64-1.18c-0.23-0.11-0.58-0.17-1.07-0.17h-2.7v3.86h-1.22v-9zm3.96 4.12c0.56 0 1-0.11 1.32-0.34c0.32-0.23 0.49-0.64 0.49-1.24c0-0.64-0.23-1.08-0.68-1.31c-0.24-0.12-0.57-0.18-0.97-0.18h-2.9v3.08h2.74z" />
				<path id="&lt;Compound Path&gt;" class="s0" d="m306.47 179.36h6.53v1.1h-5.34v2.73h4.94v1.04h-4.94v3.05h5.43v1.07h-6.62v-9z" />
				<path id="&lt;Compound Path&gt;" class="s0" d="m321.09 180.02c0.62 0.6 0.97 1.28 1.04 2.05h-1.19c-0.13-0.58-0.4-1.04-0.79-1.38c-0.4-0.34-0.95-0.51-1.66-0.51c-0.87 0-1.57 0.31-2.11 0.93c-0.54 0.62-0.8 1.58-0.8 2.87c0 1.05 0.24 1.91 0.73 2.57c0.48 0.66 1.2 0.98 2.16 0.98c0.88 0 1.55-0.34 2.02-1.04c0.24-0.36 0.43-0.84 0.55-1.43h1.19c-0.11 0.95-0.45 1.74-1.04 2.38c-0.71 0.77-1.66 1.16-2.86 1.16c-1.03 0-1.9-0.32-2.6-0.95c-0.92-0.84-1.39-2.13-1.39-3.88c0-1.33 0.35-2.42 1.04-3.27c0.75-0.92 1.79-1.39 3.11-1.39c1.13 0 2 0.3 2.62 0.9z" />
				<path id="&lt;Compound Path&gt;" fill-rule="evenodd" class="s0" d="m331.2 180.65c0.6 0.8 0.89 1.82 0.89 3.06c0 1.34-0.34 2.46-1.02 3.35c-0.8 1.05-1.94 1.57-3.42 1.57c-1.38 0-2.47-0.46-3.26-1.37c-0.71-0.88-1.06-2-1.06-3.34c0-1.22 0.3-2.26 0.91-3.12c0.78-1.11 1.92-1.67 3.44-1.67c1.59 0 2.76 0.51 3.53 1.53zm-1.08 5.74c0.48-0.77 0.72-1.66 0.72-2.66c0-1.06-0.28-1.91-0.83-2.56c-0.55-0.65-1.31-0.97-2.27-0.97c-0.93 0-1.69 0.32-2.28 0.96c-0.59 0.64-0.88 1.58-0.88 2.83c0 1 0.25 1.84 0.76 2.52c0.5 0.68 1.32 1.03 2.45 1.03c1.07 0 1.85-0.39 2.33-1.16z" />
				<path id="&lt;Compound Path&gt;" class="s0" d="m333.54 179.36h1.44l4.49 7.27v-7.27h1.16v9h-1.37l-4.55-7.26v7.26h-1.16v-9z" />
				<path id="&lt;Compound Path&gt;" fill-rule="evenodd" class="s0" d="m350.01 180.65c0.6 0.8 0.89 1.82 0.89 3.06c0 1.34-0.34 2.46-1.02 3.35c-0.8 1.05-1.94 1.57-3.42 1.57c-1.38 0-2.47-0.46-3.27-1.37c-0.71-0.88-1.06-2-1.06-3.34c0-1.22 0.3-2.26 0.91-3.12c0.78-1.11 1.92-1.67 3.44-1.67c1.59 0 2.76 0.51 3.53 1.53zm-1.08 5.74c0.48-0.77 0.72-1.66 0.72-2.66c0-1.06-0.28-1.91-0.83-2.56c-0.55-0.65-1.31-0.97-2.27-0.97c-0.93 0-1.69 0.32-2.28 0.96c-0.59 0.64-0.88 1.58-0.88 2.83c0 1 0.25 1.84 0.76 2.52c0.5 0.68 1.32 1.03 2.45 1.03c1.07 0 1.85-0.39 2.33-1.16z" />
				<path id="&lt;Compound Path&gt;" class="s0" d="m352.33 179.36h1.75l2.59 7.61l2.57-7.61h1.73v9h-1.16v-5.31c0-0.18 0-0.49 0.01-0.91c0.01-0.42 0.01-0.88 0.01-1.37l-2.57 7.59h-1.21l-2.59-7.59v0.28c0 0.22 0.01 0.56 0.02 1.01c0.01 0.45 0.02 0.78 0.02 1v5.31h-1.16v-9z" />
				<path id="&lt;Compound Path&gt;" class="s0" d="m363.09 179.36h1.23v9h-1.23v-9z" />
				<path id="&lt;Compound Path&gt;" class="s0" d="m372.66 180.02c0.62 0.6 0.97 1.28 1.04 2.05h-1.19c-0.13-0.58-0.4-1.04-0.79-1.38c-0.4-0.34-0.95-0.51-1.66-0.51c-0.87 0-1.57 0.31-2.11 0.93c-0.54 0.62-0.8 1.58-0.8 2.87c0 1.05 0.24 1.91 0.73 2.57c0.48 0.66 1.2 0.98 2.16 0.98c0.88 0 1.55-0.34 2.02-1.04c0.24-0.36 0.43-0.84 0.55-1.43h1.19c-0.11 0.95-0.45 1.74-1.04 2.38c-0.71 0.77-1.66 1.16-2.86 1.16c-1.03 0-1.9-0.32-2.6-0.95c-0.92-0.84-1.39-2.13-1.39-3.88c0-1.33 0.35-2.42 1.04-3.27c0.75-0.92 1.79-1.39 3.11-1.39c1.13 0 2 0.3 2.62 0.9z" />
				<path id="&lt;Compound Path&gt;" fill-rule="evenodd" class="s0" d="m379.7 182.25c-0.13-0.3-0.19-0.59-0.19-0.86c0-0.58 0.2-1.06 0.59-1.44c0.39-0.38 0.91-0.57 1.57-0.57c0.62 0 1.11 0.18 1.46 0.53c0.35 0.36 0.53 0.78 0.53 1.27c0 0.58-0.18 1.08-0.54 1.51c-0.21 0.25-0.57 0.54-1.06 0.88l1.63 1.96c0.11-0.33 0.18-0.57 0.23-0.73c0.04-0.16 0.09-0.39 0.13-0.68h1.05c-0.07 0.58-0.21 1.13-0.41 1.66c-0.16 0.41-0.26 0.63-0.29 0.66l1.58 1.92h-1.42l-0.84-1.03c-0.33 0.36-0.64 0.63-0.92 0.8c-0.48 0.29-1.04 0.44-1.67 0.44c-0.93 0-1.61-0.25-2.03-0.76c-0.42-0.5-0.63-1.07-0.63-1.71c0-0.68 0.21-1.25 0.62-1.71c0.25-0.28 0.72-0.62 1.41-1.04c-0.38-0.44-0.63-0.8-0.76-1.1zm4.67 4.19l-0.02-0.02c0 0.02 0.01 0.03 0.02 0.02zm-2.02 0.85c0.33-0.21 0.58-0.44 0.75-0.7l-2.03-2.48c-0.57 0.38-0.95 0.68-1.12 0.88c-0.27 0.31-0.4 0.68-0.4 1.12c0 0.48 0.17 0.85 0.52 1.1c0.35 0.26 0.72 0.39 1.11 0.39c0.45 0 0.84-0.1 1.16-0.31zm-0.09-5.1c0.24-0.28 0.36-0.58 0.36-0.92c0-0.26-0.09-0.49-0.26-0.68c-0.17-0.19-0.41-0.29-0.71-0.29c-0.45 0-0.76 0.15-0.94 0.45c-0.09 0.15-0.13 0.32-0.13 0.51c0 0.25 0.07 0.49 0.21 0.72c0.14 0.23 0.37 0.52 0.68 0.89c0.38-0.27 0.65-0.5 0.79-0.67z" />
				<path id="&lt;Compound Path&gt;" class="s0" d="m390.81 179.36h6.53v1.1h-5.34v2.73h4.94v1.04h-4.94v3.05h5.43v1.07h-6.62v-9z" />
				<path id="&lt;Compound Path&gt;" class="s0" d="m399.06 179.36h1.44l4.49 7.27v-7.27h1.16v9h-1.37l-4.55-7.26v7.26h-1.16v-9z" />
				<path id="&lt;Compound Path&gt;" class="s0" d="m414.66 179.36v1.07h-3.03v7.93h-1.23v-7.93h-3.03v-1.07h7.3z" />
				<path id="&lt;Compound Path&gt;" class="s0" d="m415.9 179.36h6.53v1.1h-5.34v2.73h4.94v1.04h-4.94v3.05h5.43v1.07h-6.62v-9z" />
				<path id="&lt;Compound Path&gt;" fill-rule="evenodd" class="s0" d="m424.3 179.36h4.09c0.67 0 1.23 0.1 1.67 0.3c0.83 0.38 1.25 1.09 1.25 2.13c0 0.54-0.11 0.98-0.33 1.32c-0.22 0.34-0.53 0.62-0.93 0.83c0.35 0.14 0.62 0.33 0.79 0.56c0.18 0.23 0.28 0.61 0.3 1.13l0.04 1.21c0.01 0.34 0.04 0.6 0.09 0.77c0.07 0.29 0.2 0.47 0.39 0.55v0.2h-1.49c-0.04-0.08-0.07-0.18-0.1-0.3c-0.02-0.12-0.05-0.36-0.06-0.71l-0.07-1.5c-0.03-0.59-0.24-0.98-0.64-1.18c-0.23-0.11-0.58-0.17-1.07-0.17h-2.7v3.86h-1.22v-9zm3.96 4.12c0.56 0 1-0.11 1.32-0.34c0.32-0.23 0.49-0.64 0.49-1.24c0-0.64-0.23-1.08-0.68-1.31c-0.24-0.12-0.57-0.18-0.97-0.18h-2.9v3.08h2.74z" />
				<path id="&lt;Compound Path&gt;" fill-rule="evenodd" class="s0" d="m433.33 179.36h4.03c0.8 0 1.44 0.23 1.93 0.68c0.49 0.45 0.73 1.09 0.73 1.9c0 0.7-0.22 1.31-0.66 1.83c-0.44 0.52-1.11 0.78-2.01 0.78h-2.81v3.8h-1.22v-9zm4.73 1.24c-0.27-0.13-0.63-0.19-1.1-0.19h-2.41v3.12h2.41c0.54 0 0.98-0.12 1.32-0.35c0.34-0.23 0.51-0.64 0.51-1.23c0-0.66-0.24-1.11-0.73-1.35z" />
				<path id="&lt;Compound Path&gt;" fill-rule="evenodd" class="s0" d="m441.73 179.36h4.09c0.67 0 1.23 0.1 1.67 0.3c0.83 0.38 1.25 1.09 1.25 2.13c0 0.54-0.11 0.98-0.33 1.32c-0.22 0.34-0.53 0.62-0.93 0.83c0.35 0.14 0.62 0.33 0.79 0.56c0.18 0.23 0.28 0.61 0.3 1.13l0.04 1.21c0.01 0.34 0.04 0.6 0.09 0.77c0.07 0.29 0.2 0.47 0.39 0.55v0.2h-1.49c-0.04-0.08-0.07-0.18-0.1-0.3c-0.02-0.12-0.05-0.36-0.06-0.71l-0.07-1.5c-0.03-0.59-0.24-0.98-0.64-1.18c-0.23-0.11-0.58-0.17-1.07-0.17h-2.7v3.86h-1.22v-9zm3.96 4.12c0.56 0 1-0.11 1.32-0.34c0.32-0.23 0.49-0.64 0.49-1.24c0-0.64-0.23-1.08-0.68-1.31c-0.24-0.12-0.57-0.18-0.97-0.18h-2.89v3.08h2.74z" />
				<path id="&lt;Compound Path&gt;" class="s0" d="m450.92 179.36h1.23v9h-1.23v-9z" />
				<path id="&lt;Compound Path&gt;" class="s0" d="m454.92 185.46c0.03 0.51 0.14 0.92 0.35 1.24c0.39 0.6 1.08 0.89 2.06 0.89c0.44 0 0.84-0.07 1.2-0.2c0.7-0.25 1.05-0.71 1.05-1.36c0-0.49-0.15-0.84-0.45-1.05c-0.3-0.2-0.77-0.38-1.41-0.53l-1.18-0.28c-0.77-0.18-1.32-0.38-1.64-0.59c-0.55-0.38-0.83-0.94-0.83-1.68c0-0.81 0.27-1.47 0.82-1.99c0.54-0.52 1.32-0.78 2.31-0.78c0.92 0 1.7 0.23 2.34 0.68c0.64 0.46 0.96 1.18 0.96 2.18h-1.15c-0.06-0.48-0.18-0.85-0.38-1.11c-0.36-0.47-0.96-0.7-1.81-0.7c-0.69 0-1.18 0.15-1.49 0.45c-0.3 0.3-0.45 0.65-0.45 1.05c0 0.44 0.18 0.76 0.53 0.97c0.23 0.13 0.76 0.29 1.58 0.49l1.22 0.29c0.59 0.14 1.04 0.33 1.37 0.57c0.55 0.42 0.83 1.03 0.83 1.83c0 1-0.35 1.71-1.06 2.14c-0.71 0.43-1.53 0.64-2.46 0.64c-1.09 0-1.95-0.29-2.56-0.86c-0.62-0.57-0.92-1.34-0.91-2.31h1.15z" />
				<path id="&lt;Compound Path&gt;" class="s0" d="m462.61 179.36h6.53v1.1h-5.34v2.73h4.94v1.04h-4.94v3.05h5.43v1.07h-6.62v-9z" />
				<path id="&lt;Compound Path&gt;" fill-rule="evenodd" class="s0" d="m474.4 179.36h3.6c1.22 0 2.17 0.44 2.84 1.32c0.6 0.79 0.9 1.81 0.9 3.04c0 0.96-0.18 1.82-0.53 2.59c-0.62 1.36-1.7 2.05-3.22 2.05h-3.58v-9zm3.36 7.96c0.4 0 0.73-0.04 0.99-0.13c0.46-0.16 0.84-0.47 1.14-0.92c0.24-0.36 0.41-0.83 0.51-1.4c0.06-0.34 0.09-0.65 0.09-0.94c0-1.11-0.22-1.98-0.65-2.6c-0.43-0.62-1.13-0.93-2.09-0.93h-2.11v6.91h2.13z" />
				<path id="&lt;Compound Path&gt;" class="s0" d="m483.52 179.36h6.53v1.1h-5.34v2.73h4.94v1.04h-4.94v3.05h5.43v1.07h-6.62v-9z" />
				<path id="&lt;Compound Path&gt;" class="s0" d="m492.49 179.36l2.59 7.66l2.55-7.66h1.37l-3.28 9h-1.29l-3.28-9h1.35z" />
				<path id="&lt;Compound Path&gt;" class="s0" d="m500.26 179.36h6.53v1.1h-5.34v2.73h4.94v1.04h-4.94v3.05h5.43v1.07h-6.62v-9z" />
				<path id="&lt;Compound Path&gt;" class="s0" d="m508.51 179.36h1.22v7.93h4.51v1.07h-5.73v-9z" />
				<path id="&lt;Compound Path&gt;" fill-rule="evenodd" class="s0" d="m522.9 180.65c0.6 0.8 0.89 1.82 0.89 3.06c0 1.34-0.34 2.46-1.02 3.35c-0.8 1.05-1.94 1.57-3.42 1.57c-1.38 0-2.47-0.46-3.27-1.37c-0.71-0.88-1.06-2-1.06-3.34c0-1.22 0.3-2.26 0.91-3.12c0.78-1.11 1.92-1.67 3.44-1.67c1.59 0 2.76 0.51 3.53 1.53zm-1.08 5.74c0.48-0.77 0.72-1.66 0.72-2.66c0-1.06-0.28-1.91-0.83-2.56c-0.55-0.65-1.31-0.97-2.27-0.97c-0.93 0-1.69 0.32-2.28 0.96c-0.59 0.64-0.88 1.58-0.88 2.83c0 1 0.25 1.84 0.76 2.52c0.5 0.68 1.32 1.03 2.45 1.03c1.07 0 1.85-0.39 2.33-1.16z" />
				<path id="&lt;Compound Path&gt;" fill-rule="evenodd" class="s0" d="m525.36 179.36h4.03c0.8 0 1.44 0.23 1.93 0.68c0.49 0.45 0.73 1.09 0.73 1.9c0 0.7-0.22 1.31-0.66 1.83c-0.44 0.52-1.11 0.78-2.01 0.78h-2.81v3.8h-1.22v-9zm4.73 1.24c-0.27-0.13-0.63-0.19-1.1-0.19h-2.41v3.12h2.41c0.54 0 0.98-0.12 1.32-0.35c0.34-0.23 0.51-0.64 0.51-1.23c0-0.66-0.24-1.11-0.73-1.35z" />
				<path id="&lt;Compound Path&gt;" class="s0" d="m533.58 179.36h1.75l2.59 7.61l2.57-7.61h1.73v9h-1.16v-5.31c0-0.18 0-0.49 0.01-0.91c0.01-0.42 0.01-0.88 0.01-1.37l-2.57 7.59h-1.21l-2.59-7.59v0.28c0 0.22 0.01 0.56 0.02 1.01c0.01 0.45 0.02 0.78 0.02 1v5.31h-1.16v-9z" />
				<path id="&lt;Compound Path&gt;" class="s0" d="m544.18 179.36h6.53v1.1h-5.34v2.73h4.94v1.04h-4.94v3.05h5.43v1.07h-6.62v-9z" />
				<path id="&lt;Compound Path&gt;" class="s0" d="m552.43 179.36h1.44l4.49 7.27v-7.27h1.16v9h-1.37l-4.55-7.26v7.26h-1.16v-9z" />
				<path id="&lt;Compound Path&gt;" class="s0" d="m568.03 179.36v1.07h-3.03v7.93h-1.23v-7.93h-3.03v-1.07h7.3z" />
			</g>
		</g>
		<g id="&lt;Group&gt;">
			<path id="&lt;Compound Path&gt;" class="s1" d="m16.26 203.41v3.54h-5.98v16.44h-4.2v-16.44h-6.01v-3.54h16.19z" />
			<path id="&lt;Compound Path&gt;" class="s1" d="m33.48 206.95h-10.57v4.24h9.71v3.47h-9.71v5.14h11.06v3.59h-15.14v-19.98h14.65v3.54z" />
			<path id="&lt;Compound Path&gt;" class="s1" d="m40.41 223.4h-4.85l6.43-10.18l-6.11-9.8h4.99l3.56 6.51l3.66-6.51h4.83l-6.11 9.64l6.49 10.34h-5.07l-3.8-6.81l-4.01 6.81z" />
			<path id="&lt;Compound Path&gt;" fill-rule="evenodd" class="s1" d="m61.45 203.41h4.72l7.07 19.98h-4.53l-1.32-4.11h-7.36l-1.35 4.11h-4.37l7.13-19.98zm-0.28 12.43h5.12l-2.52-7.86l-2.59 7.86z" />
			<path id="&lt;Compound Path&gt;" class="s1" d="m78.8 217.23c0.13 0.91 0.38 1.6 0.76 2.05c0.69 0.82 1.88 1.23 3.56 1.23c1.01 0 1.82-0.11 2.45-0.33c1.19-0.42 1.79-1.19 1.79-2.32c0-0.66-0.29-1.17-0.87-1.53c-0.58-0.35-1.51-0.66-2.77-0.94l-2.16-0.47c-2.13-0.47-3.59-0.98-4.38-1.53c-1.35-0.92-2.02-2.36-2.02-4.32c0-1.79 0.66-3.28 1.98-4.46c1.32-1.18 3.25-1.78 5.81-1.78c2.13 0 3.95 0.56 5.45 1.67c1.5 1.12 2.29 2.74 2.37 4.86h-4.01c-0.07-1.2-0.61-2.06-1.61-2.56c-0.67-0.33-1.5-0.5-2.49-0.5c-1.1 0-1.98 0.22-2.64 0.65c-0.66 0.43-0.99 1.04-0.99 1.82c0 0.71 0.32 1.25 0.97 1.6c0.42 0.23 1.3 0.51 2.65 0.83l3.51 0.83c1.54 0.36 2.69 0.84 3.46 1.45c1.19 0.94 1.79 2.3 1.79 4.08c0 1.83-0.71 3.34-2.12 4.55c-1.41 1.21-3.4 1.81-5.98 1.81c-2.63 0-4.7-0.59-6.21-1.78c-1.51-1.19-2.26-2.82-2.26-4.9h3.99z" />
			<path id="&lt;Compound Path&gt;" fill-rule="evenodd" class="s1" d="m106.71 203.41h4.72l7.07 19.98h-4.53l-1.32-4.11h-7.36l-1.35 4.11h-4.37l7.13-19.98zm-0.28 12.43h5.12l-2.52-7.86l-2.59 7.86z" />
			<path id="&lt;Compound Path&gt;" fill-rule="evenodd" class="s1" d="m121.33 215.04c0.6-0.86 1.57-1.71 2.93-2.55l0.42-0.26c-0.58-0.65-1.03-1.32-1.34-2c-0.32-0.68-0.47-1.38-0.47-2.12c0-1.46 0.49-2.59 1.48-3.41c0.99-0.82 2.27-1.23 3.84-1.23c1.44 0 2.62 0.42 3.56 1.26c0.94 0.84 1.41 1.91 1.41 3.22c0 1.18-0.28 2.13-0.84 2.87c-0.56 0.73-1.39 1.41-2.47 2.04l2.87 3.48c0.33-0.47 0.58-0.98 0.76-1.53c0.18-0.55 0.27-1.13 0.28-1.75h3.43c-0.06 1.21-0.36 2.44-0.88 3.68c-0.29 0.7-0.76 1.47-1.41 2.31l3.63 4.33h-4.68l-1.39-1.69c-0.68 0.63-1.31 1.09-1.89 1.39c-1.04 0.54-2.24 0.8-3.6 0.8c-2.05 0-3.64-0.6-4.8-1.79c-1.15-1.19-1.73-2.52-1.73-3.97c0-1.2 0.3-2.23 0.89-3.09zm3.78 4.79c0.55 0.55 1.25 0.83 2.1 0.83c0.64 0 1.25-0.15 1.83-0.44c0.57-0.29 1.04-0.61 1.4-0.97l-3.74-4.55c-0.98 0.64-1.63 1.21-1.94 1.7c-0.32 0.49-0.47 1.03-0.47 1.62c0 0.66 0.27 1.27 0.82 1.82zm1.7-10.7c0.17 0.26 0.53 0.73 1.1 1.4c0.56-0.38 0.97-0.7 1.21-0.96c0.47-0.49 0.7-1.02 0.7-1.59c0-0.42-0.14-0.79-0.42-1.11c-0.28-0.33-0.71-0.49-1.28-0.49c-0.36 0-0.69 0.1-1 0.29c-0.47 0.28-0.7 0.72-0.7 1.33c0 0.36 0.13 0.74 0.39 1.14z" />
			<path id="&lt;Compound Path&gt;" class="s1" d="m154.35 203.41h6.01v19.98h-3.89v-13.51c0-0.39 0-0.93 0.01-1.63c0.01-0.7 0.01-1.24 0.01-1.62l-3.79 16.77h-4.06l-3.76-16.77c0 0.38 0 0.92 0.01 1.62c0.01 0.7 0.01 1.24 0.01 1.63v13.51h-3.89v-19.98h6.08l3.64 15.71l3.61-15.71z" />
			<path id="&lt;Compound Path&gt;" class="s1" d="m175.75 223.4h-4.15v-19.98h4.15v19.98z" />
			<path id="&lt;Compound Path&gt;" class="s1" d="m179.58 203.41h4.38l7.93 13.93v-13.93h3.89v19.98h-4.17l-8.13-14.18v14.18h-3.89v-19.98z" />
			<path id="&lt;Compound Path&gt;" class="s1" d="m214.22 203.41v3.54h-5.98v16.44h-4.2v-16.44h-6.01v-3.54h16.19z" />
			<path id="&lt;Compound Path&gt;" class="s1" d="m231.43 206.95h-10.57v4.24h9.71v3.47h-9.71v5.14h11.06v3.59h-15.14v-19.98h14.65v3.54z" />
			<path id="&lt;Compound Path&gt;" fill-rule="evenodd" class="s1" d="m247.98 203.93c0.74 0.32 1.36 0.78 1.87 1.4c0.42 0.51 0.76 1.07 1 1.68c0.25 0.61 0.37 1.32 0.37 2.1c0 0.95-0.24 1.88-0.72 2.8c-0.48 0.92-1.27 1.57-2.37 1.95c0.92 0.37 1.57 0.9 1.96 1.58c0.38 0.68 0.58 1.72 0.58 3.12v1.34c0 0.91 0.04 1.53 0.11 1.86c0.11 0.51 0.37 0.89 0.77 1.14v0.5h-4.61c-0.13-0.44-0.22-0.8-0.27-1.07c-0.11-0.56-0.17-1.13-0.18-1.72l-0.03-1.86c-0.02-1.27-0.24-2.12-0.66-2.55c-0.42-0.42-1.22-0.64-2.38-0.64h-4.08v7.83h-4.08v-19.98h9.56c1.37 0.03 2.42 0.2 3.15 0.52zm-8.63 2.95v5.37h4.49c0.89 0 1.56-0.11 2.01-0.33c0.79-0.38 1.18-1.13 1.18-2.25c0-1.21-0.38-2.02-1.15-2.44c-0.43-0.23-1.07-0.35-1.93-0.35h-4.61z" />
			<path id="&lt;Compound Path&gt;" class="s1" d="m255.16 203.41h4.38l7.93 13.93v-13.93h3.89v19.98h-4.17l-8.13-14.18v14.18h-3.89v-19.98z" />
			<path id="&lt;Compound Path&gt;" fill-rule="evenodd" class="s1" d="m280.99 203.41h4.72l7.07 19.98h-4.53l-1.32-4.11h-7.36l-1.35 4.11h-4.37l7.13-19.98zm-0.28 12.43h5.12l-2.52-7.86l-2.59 7.86z" />
			<path id="&lt;Compound Path&gt;" class="s1" d="m307.79 203.41v3.54h-5.98v16.44h-4.2v-16.44h-6.01v-3.54h16.19z" />
			<path id="&lt;Compound Path&gt;" class="s1" d="m314.04 223.4h-4.15v-19.98h4.15v19.98z" />
			<path id="&lt;Compound Path&gt;" fill-rule="evenodd" class="s1" d="m333.33 221.62c-1.51 1.55-3.69 2.33-6.55 2.33c-2.86 0-5.04-0.78-6.55-2.33c-2.02-1.91-3.04-4.65-3.04-8.24c0-3.66 1.01-6.41 3.04-8.24c1.51-1.55 3.69-2.33 6.55-2.33c2.86 0 5.04 0.78 6.55 2.33c2.02 1.83 3.02 4.58 3.02 8.24c0 3.59-1.01 6.34-3.02 8.24zm-2.61-3.04c0.97-1.22 1.46-2.96 1.46-5.21c0-2.24-0.49-3.97-1.46-5.2c-0.97-1.22-2.28-1.84-3.94-1.84c-1.65 0-2.97 0.61-3.96 1.83c-0.98 1.22-1.48 2.95-1.48 5.21c0 2.25 0.49 3.98 1.48 5.21c0.98 1.22 2.3 1.83 3.96 1.83c1.65 0 2.97-0.61 3.94-1.83z" />
			<path id="&lt;Compound Path&gt;" class="s1" d="m339.47 203.41h4.38l7.93 13.93v-13.93h3.89v19.98h-4.17l-8.13-14.18v14.18h-3.89v-19.98z" />
			<path id="&lt;Compound Path&gt;" fill-rule="evenodd" class="s1" d="m365.3 203.41h4.72l7.07 19.98h-4.53l-1.32-4.11h-7.36l-1.35 4.11h-4.37l7.13-19.98zm-0.28 12.43h5.12l-2.52-7.86l-2.59 7.86z" />
			<path id="&lt;Compound Path&gt;" class="s1" d="m379.64 203.41h4.18v16.39h9.98v3.59h-14.15v-19.98z" />
			<path id="&lt;Compound Path&gt;" class="s1" d="m403.82 203.41h4.24v12.27c0 1.37 0.16 2.37 0.49 3.01c0.5 1.12 1.6 1.68 3.3 1.68c1.68 0 2.78-0.56 3.28-1.68c0.32-0.63 0.49-1.63 0.49-3.01v-12.27h4.24v12.28c0 2.12-0.33 3.78-0.99 4.96c-1.23 2.17-3.57 3.25-7.02 3.25c-3.46 0-5.8-1.08-7.04-3.25c-0.66-1.18-0.99-2.84-0.99-4.96v-12.28z" />
			<path id="&lt;Compound Path&gt;" class="s1" d="m423.8 203.41h4.38l7.93 13.93v-13.93h3.89v19.98h-4.17l-8.13-14.18v14.18h-3.89v-19.98z" />
			<path id="&lt;Compound Path&gt;" class="s1" d="m447.73 223.4h-4.15v-19.98h4.15v19.98z" />
			<path id="&lt;Compound Path&gt;" class="s1" d="m463.32 203.41h4.34l-6.81 19.98h-3.94l-6.76-19.98h4.46l4.34 15.17l4.38-15.17z" />
			<path id="&lt;Compound Path&gt;" class="s1" d="m484.92 206.95h-10.57v4.24h9.71v3.47h-9.71v5.14h11.06v3.59h-15.14v-19.98h14.65v3.54z" />
			<path id="&lt;Compound Path&gt;" fill-rule="evenodd" class="s1" d="m501.47 203.93c0.74 0.32 1.36 0.78 1.87 1.4c0.42 0.51 0.76 1.07 1 1.68c0.25 0.61 0.37 1.32 0.37 2.1c0 0.95-0.24 1.88-0.72 2.8c-0.48 0.92-1.27 1.57-2.37 1.95c0.92 0.37 1.57 0.9 1.96 1.58c0.38 0.68 0.58 1.72 0.58 3.12v1.34c0 0.91 0.04 1.53 0.11 1.86c0.11 0.51 0.37 0.89 0.77 1.14v0.5h-4.61c-0.13-0.44-0.22-0.8-0.27-1.07c-0.11-0.56-0.17-1.13-0.18-1.72l-0.03-1.86c-0.02-1.27-0.24-2.12-0.66-2.55c-0.42-0.42-1.22-0.64-2.38-0.64h-4.08v7.83h-4.08v-19.98h9.56c1.37 0.03 2.42 0.2 3.15 0.52zm-8.63 2.95v5.37h4.49c0.89 0 1.56-0.11 2.01-0.33c0.79-0.38 1.18-1.13 1.18-2.25c0-1.21-0.38-2.02-1.15-2.44c-0.43-0.23-1.07-0.35-1.93-0.35h-4.61z" />
			<path id="&lt;Compound Path&gt;" class="s1" d="m511.72 217.23c0.13 0.91 0.38 1.6 0.76 2.05c0.69 0.82 1.88 1.23 3.56 1.23c1.01 0 1.82-0.11 2.45-0.33c1.19-0.42 1.79-1.19 1.79-2.32c0-0.66-0.29-1.17-0.87-1.53c-0.58-0.35-1.51-0.66-2.77-0.94l-2.16-0.47c-2.13-0.47-3.59-0.98-4.38-1.53c-1.35-0.92-2.02-2.36-2.02-4.32c0-1.79 0.66-3.28 1.98-4.46c1.32-1.18 3.25-1.78 5.8-1.78c2.13 0 3.95 0.56 5.45 1.67c1.51 1.12 2.29 2.74 2.37 4.86h-4.01c-0.07-1.2-0.61-2.06-1.61-2.56c-0.67-0.33-1.5-0.5-2.49-0.5c-1.1 0-1.98 0.22-2.64 0.65c-0.66 0.43-0.99 1.04-0.99 1.82c0 0.71 0.32 1.25 0.97 1.6c0.42 0.23 1.3 0.51 2.65 0.83l3.51 0.83c1.54 0.36 2.69 0.84 3.46 1.45c1.19 0.94 1.79 2.3 1.79 4.08c0 1.83-0.71 3.34-2.12 4.55c-1.41 1.21-3.41 1.81-5.98 1.81c-2.63 0-4.7-0.59-6.21-1.78c-1.51-1.19-2.26-2.82-2.26-4.9h3.99z" />
			<path id="&lt;Compound Path&gt;" class="s1" d="m531.04 223.4h-4.15v-19.98h4.15v19.98z" />
			<path id="&lt;Compound Path&gt;" class="s1" d="m549.46 203.41v3.54h-5.98v16.44h-4.2v-16.44h-6.01v-3.54h16.19z" />
			<path id="&lt;Compound Path&gt;" class="s1" d="m563.3 203.41h4.73l-6.68 12.49v7.49h-4.17v-7.49l-6.91-12.49h4.92l4.15 8.7l3.97-8.7z" />
		</g>
	</g>
</svg>