<svg version="1.2" baseProfile="tiny-ps" xmlns="http://www.w3.org/2000/svg" viewBox="0 0 307 121" width="307" height="121">
	<title>&lt;Group&gt;</title>
	<style>
		tspan { white-space:pre }
		.s0 { fill: #cccccc } 
		.s1 { fill: #ffffff } 
	</style>
	<g id="&lt;Group&gt;">
		<g id="&lt;Group&gt;">
			<g id="&lt;Group&gt;">
				<g id="&lt;Group&gt;">
				</g>
				<g id="&lt;Group&gt;">
					<path id="&lt;Path&gt;" class="s0" d="m22.22 40.97v-20.25h4.11v20.25h-4.11z" />
				</g>
				<g id="&lt;Group&gt;">
					<path id="&lt;Path&gt;" class="s0" d="m13.99 40.97v-15.39h4.11v15.39h-4.11z" />
				</g>
			</g>
			<g id="&lt;Group&gt;">
				<path id="&lt;Path&gt;" class="s1" d="m65.96 37.69l-1.46 1.08l-1.46 1.07l-0.35-1.03l-9.49-27.71l-0.15 0.45l-0.15-0.45l-9.49 27.71l-0.8 2.33h-32.03l24.15 18.37l0.81 0.61l-1.45 1.07l-1.45 1.07l-32.29-24.57h39.8l12.8-37.37l0.1 0.31l0.1-0.31l12.8 37.37z" />
			</g>
			<g id="&lt;Group&gt;">
				<path id="&lt;Path&gt;" class="s1" d="m85.09 102.04l-32.07-23.58l0.06-4.24l25.81 18.97l-8.57-29.11l-0.29-0.97l1.8 0l1.8 0l11.47 38.92z" />
			</g>
			<g id="&lt;Group&gt;">
				<path id="&lt;Path&gt;" class="s0" d="m110.91 49.68c-5.4-2.19-11.09-2.9-17.55-1.75c-3.3 0.58-6.55 1.41-9.75 2.44c-2.38 0.77-4.72 1.65-7.04 2.65l-2.47 1.39c-4.84 3.07-9.52 6.24-13.94 9.68c-6.33 4.93-12.54 9.95-19.38 14.49c-4.46 2.97-9.12 5.69-14.52 7.21l0 0l-3.1 0.9l-0.26 0.07c-4.48 1.27-8.79 1.34-13.05 0.81c5.51-1.29 11.04-2.34 16.27-4.7l2.3-1.14c9.66-5.53 17.49-12.39 25.3-19.29c4.06-3.58 7.91-7.3 12.68-10.42l1.47-1.02l0.23-0.17c4.97-3.66 10.97-6.22 16.89-7.61c11.98-2.82 23.66-0.88 25.91 6.45z" />
				<path id="&lt;Path&gt;" class="s0" d="m82.65 39.32c-10.1 3.17-17.89 8.56-25.16 14.51l-2.22 1.79c-7.89 6.69-14.55 14.1-22.86 20.53c-5.31 4.11-11.32 7.38-19.39 8.5c-0.2 0.03-0.41 0.06-0.62 0.08c0.27-0.09 0.54-0.18 0.81-0.26c3.95-1.3 6.96-2.54 9.83-4.27c6.04-3.65 10.37-8.22 14.83-12.77c4.29-4.38 8.12-8.98 12.9-13.13l0.01 0l2.23-2.04l0.05-0.04c9.92-9.55 22.6-15.26 29.6-12.89z" />
			</g>
		</g>
		<g id="&lt;Group&gt;">
			<g id="&lt;Group&gt;">
				<g id="&lt;Group&gt;">
					<path id="&lt;Path&gt;" class="s1" d="m156.69 1.46c0 1.8-0.18 5.94-0.18 6.61c0 0.53-0.18 0.78-0.42 0.78c-0.3 0-0.43-0.18-0.48-1.02l-0.06-0.66c-0.18-1.8-1.62-3.19-7.4-3.31l-7.57-0.13v25.42c0 5.77 0 10.52 0.3 13.05c0.18 1.74 0.54 3.06 2.35 3.31c0.84 0.12 2.16 0.23 2.7 0.23c0.36 0 0.48 0.18 0.48 0.37c0 0.3-0.3 0.48-0.97 0.48c-3.31 0-7.09-0.18-7.39-0.18c-0.3 0-4.09 0.18-5.89 0.18c-0.66 0-0.96-0.12-0.96-0.48c0-0.18 0.12-0.37 0.48-0.37c0.54 0 1.27-0.12 1.8-0.23c1.2-0.24 1.5-1.57 1.74-3.31c0.3-2.53 0.3-7.28 0.3-13.05v-25.42l-8.89 0.13c-3.73 0.06-5.17 0.48-6.13 1.92c-0.66 1.02-0.84 1.44-1.02 1.86c-0.18 0.48-0.37 0.6-0.6 0.6c-0.18 0-0.3-0.18-0.3-0.54c0-0.6 1.2-5.77 1.32-6.24c0.12-0.37 0.36-1.14 0.6-1.14c0.42 0 1.02 0.6 2.65 0.72c1.74 0.18 4.02 0.3 4.75 0.3h22.54c1.92 0 3.31-0.12 4.27-0.3c0.9-0.12 1.44-0.3 1.69-0.3c0.3 0 0.3 0.36 0.3 0.73z" />
					<path id="&lt;Path&gt;" class="s1" d="m188.67 39.32c0 0.48-0.48 4.61-0.78 5.88c-0.42 1.58-0.9 1.58-3.25 1.58c-4.51 0-7.81-0.13-10.16-0.18c-2.35-0.12-3.78-0.18-4.68-0.18c-0.13 0-1.14 0-2.4 0.07c-1.2 0-2.59 0.12-3.49 0.12c-0.66 0-0.96-0.12-0.96-0.48c0-0.18 0.12-0.36 0.48-0.36c0.54 0 1.26-0.13 1.8-0.25c1.2-0.24 1.5-1.57 1.74-3.33c0.3-2.54 0.3-7.33 0.3-13.14v-10.67c0-9.45 0-11.14-0.12-13.08c-0.13-2.06-0.6-3.03-2.59-3.46c-0.48-0.12-1.5-0.18-2.05-0.18c-0.24 0-0.48-0.12-0.48-0.36c0-0.37 0.3-0.48 0.96-0.48c1.38 0 3 0 4.32 0.06l2.47 0.13c0.42 0 12.38 0 13.76-0.07c1.14-0.06 2.11-0.18 2.59-0.3c0.3-0.06 0.54-0.3 0.84-0.3c0.18 0 0.24 0.24 0.24 0.54c0 0.43-0.3 1.15-0.48 2.85c-0.06 0.61-0.18 3.27-0.3 4c-0.06 0.3-0.18 0.67-0.42 0.67c-0.36 0-0.48-0.3-0.48-0.78c0-0.43-0.06-1.45-0.36-2.19c-0.42-0.97-1.03-1.69-4.27-2.05c-1.03-0.13-7.58-0.18-8.24-0.18c-0.24 0-0.36 0.18-0.36 0.6v16.72c0 0.43 0.06 0.61 0.36 0.61c0.78 0 8.17 0 9.56-0.13c1.44-0.12 2.29-0.24 2.82-0.84c0.43-0.48 0.67-0.78 0.91-0.78c0.18 0 0.3 0.12 0.3 0.48c0 0.36-0.3 1.39-0.48 3.39c-0.12 1.21-0.24 3.46-0.24 3.87c0 0.48 0 1.15-0.42 1.15c-0.3 0-0.43-0.24-0.43-0.54c0-0.61 0-1.21-0.23-2c-0.24-0.84-0.78-1.87-3.13-2.12c-1.62-0.18-7.57-0.3-8.6-0.3c-0.3 0-0.42 0.18-0.42 0.43v5.33c0 2.05-0.06 9.08 0 10.36c0.18 4.17 1.09 4.97 6.97 4.97c1.56 0 4.21 0 5.77-0.67c1.57-0.67 2.29-1.88 2.71-4.37c0.12-0.67 0.23-0.91 0.53-0.91c0.37 0 0.37 0.48 0.37 0.91z" />
					<path id="&lt;Path&gt;" class="s1" d="m236.21 46.1v0.01c-0.01 0.29-0.31 0.48-0.84 0.48c-3.66 0-6.55 0-9.62-0.12c-1.56-0.07-1.86-0.18-1.86-0.48c0-0.25 0.12-0.43 0.36-0.49c0.3-0.12 0.84-0.73 0.3-1.7c-3.25-5.95-6.73-11.96-10.33-18.1l-9.38 16.09c-0.54 0.98-0.78 2.07-0.78 2.68c0 0.6 0.42 1.03 0.96 1.15c0.36 0.06 0.84 0.12 1.14 0.12c0.3 0 0.48 0.18 0.48 0.43c0 0.31-0.3 0.43-0.72 0.43c-1.44 0-5.23-0.18-5.77-0.18c-0.54 0-3.49 0.18-5.48 0.18c-0.48 0-0.6-0.18-0.6-0.43c0-0.24 0.18-0.43 0.48-0.43c0.48 0 1.39-0.06 2.29-0.3c1.8-0.48 3.06-1.82 4.98-4.92l10.88-17.38l-9.62-16.33c-1.39-2.37-2.65-4.13-4.69-4.86c-0.96-0.31-2.16-0.43-2.53-0.43c-0.36 0-0.53-0.18-0.53-0.43c0-0.31 0.23-0.43 1.02-0.43c1.69 0 6.55 0.18 7.03 0.18c0.54 0 3.61-0.18 5.65-0.18c0.84 0 1.03 0.12 1.03 0.43c0 0.3-0.18 0.43-0.54 0.43c-0.36 0-1.14 0-1.62 0.18c-0.54 0.18-0.73 0.6-0.73 1.03c0 0.61 0.24 1.34 0.6 2.01c2.53 4.79 4.99 9.29 8.11 14.51c1.8-2.61 8.24-13 8.84-14.27c0.42-0.92 0.6-1.46 0.6-2.19c0-0.43-0.43-0.91-1.03-1.09c-0.6-0.18-1.44-0.18-1.8-0.18c-0.36 0-0.54-0.13-0.54-0.43c0-0.24 0.31-0.43 1.03-0.43c2.29 0 4.81 0.18 5.35 0.18c0.54 0 3-0.18 5.05-0.18c0.66 0 0.96 0.18 0.96 0.43c0 0.24-0.24 0.43-0.66 0.43c-0.43 0-1.33 0.06-1.99 0.3c-1.74 0.55-2.89 2.31-4.62 4.92l-9.68 14.7c1.14 1.88 11.42 19.56 12.69 21.19c0.96 1.28 1.8 2.19 3.54 2.74c0.84 0.24 1.74 0.36 2.1 0.36c0.3 0 0.48 0.13 0.48 0.37z" />
					<path id="&lt;Compound Path&gt;" fill-rule="evenodd" class="s1" d="m281.54 46.11c0 0.36-0.54 0.48-1.2 0.48c-0.9 0-5.29 0-9.44-0.12c-1.14-0.06-1.8-0.06-1.8-0.42c0-0.24 0.18-0.37 0.43-0.43c0.36-0.12 0.72-0.66 0.36-1.62l-5.59-14.79c-0.12-0.24-0.23-0.36-0.53-0.36h-12.93c-0.3 0-0.48 0.18-0.6 0.48l-3.61 10.63c-0.53 1.5-0.83 2.95-0.83 4.03c0 1.2 1.26 1.74 2.28 1.74h0.6c0.43 0 0.6 0.13 0.6 0.37c0 0.36-0.36 0.48-0.9 0.48c-1.44 0-4.02-0.18-4.68-0.18c-0.67 0-3.97 0.18-6.79 0.18c-0.78 0-1.14-0.12-1.14-0.48v-0.01c0.01-0.23 0.24-0.36 0.54-0.36c0.42 0 1.26-0.06 1.74-0.12c2.76-0.36 3.96-2.65 5.05-5.65l13.64-37.32c0.72-1.99 0.96-2.35 1.32-2.35c0.37 0 0.6 0.3 1.33 2.16c0.9 2.29 10.33 27.1 14.01 36.24c2.16 5.35 3.91 6.31 5.17 6.67c0.9 0.3 1.8 0.36 2.4 0.36c0.36 0 0.6 0.07 0.6 0.37zm-18.33-19.84l-5.71-16.23c-0.3-0.9-0.6-0.9-0.9 0l-5.29 16.23c-0.12 0.3 0 0.43 0.18 0.43h11.48c0.3 0 0.3-0.18 0.24-0.43z" />
					<path id="&lt;Path&gt;" class="s1" d="m306.59 34.44c0 2.44-0.96 6.94-5.11 9.84c-2.58 1.78-5.83 2.49-9.07 2.49c-2.83 0-5.59-0.41-8.05-1.6c-0.84-0.42-0.9-0.65-0.9-2.25c0-2.96 0.24-5.33 0.3-6.28c0.06-0.65 0.18-0.95 0.48-0.95c0.36 0 0.42 0.17 0.42 0.65c0 0.53 0 1.36 0.18 2.19c0.9 4.39 4.87 6.05 8.89 6.05c5.78 0 8.6-4.09 8.6-7.88c0-4.09-1.74-6.46-6.91-10.67l-2.7-2.2c-6.37-5.15-7.81-8.82-7.81-12.86c0-6.35 4.81-10.67 12.44-10.67c2.35 0 4.09 0.24 5.59 0.59c1.14 0.24 1.62 0.3 2.1 0.3c0.48 0 0.6 0.12 0.6 0.41c0 0.3-0.24 2.25-0.24 6.29c0 0.95-0.12 1.36-0.42 1.36c-0.36 0-0.43-0.3-0.48-0.77c-0.06-0.71-0.42-2.3-0.78-2.96c-0.37-0.65-1.99-3.14-7.51-3.14c-4.15 0-7.4 2.54-7.4 6.87c0 3.37 1.56 5.51 7.33 9.96l1.69 1.3c7.09 5.51 8.77 9.18 8.77 13.92z" />
				</g>
				<g id="&lt;Group&gt;">
					<path id="&lt;Path&gt;" class="s1" d="m149.56 81.75c0 0.32-0.55 4.25-1.01 5.79c-0.27 0.86-0.36 0.95-1.18 1.31c-1.82 0.72-5.29 1.04-8.21 1.04c-6.84 0-11.45-1.67-15.05-4.88c-4.43-3.93-5.52-9.08-5.52-13.38c0-3.03 1.05-8.32 5.11-12.35c2.74-2.71 6.89-4.83 13.91-4.83c1.82 0 4.38 0.13 6.61 0.54c1.74 0.31 3.19 0.58 4.66 0.68c0.5 0.04 0.59 0.22 0.59 0.49c0 0.36-0.13 0.91-0.23 2.53c-0.09 1.49-0.09 3.98-0.13 4.66c-0.05 0.68-0.14 0.95-0.41 0.95c-0.32 0-0.37-0.32-0.37-0.95c0-1.77-0.73-3.62-1.91-4.61c-1.6-1.36-5.11-2.58-9.12-2.58c-6.07 0-8.89 1.76-10.49 3.3c-3.33 3.17-4.1 7.19-4.1 11.8c0 8.63 6.7 16.54 16.46 16.54c3.42 0 6.11-0.41 7.94-2.26c0.96-0.99 1.55-2.98 1.69-3.8c0.1-0.49 0.18-0.68 0.46-0.68c0.23 0 0.32 0.32 0.32 0.68z" />
					<path id="&lt;Path&gt;" class="s1" d="m172.77 84.09c0 0.37-0.37 3.47-0.6 4.43c-0.32 1.18-0.68 1.18-2.46 1.18c-3.42 0-5.93-0.09-7.71-0.14c-1.77-0.09-2.87-0.13-3.55-0.13c-0.1 0-0.87 0-1.82 0.04c-0.91 0-1.96 0.09-2.65 0.09c-0.5 0-0.73-0.09-0.73-0.36c0-0.14 0.09-0.27 0.36-0.27c0.41 0 0.96-0.1 1.37-0.18c0.91-0.18 1.14-1.19 1.32-2.51c0.23-1.92 0.23-5.52 0.23-9.9v-8.03c0-7.12 0-8.39-0.09-9.86c-0.09-1.55-0.46-2.28-1.96-2.6c-0.36-0.09-1.14-0.14-1.55-0.14c-0.18 0-0.36-0.09-0.36-0.27c0-0.27 0.23-0.36 0.73-0.36c1.05 0 2.28 0 3.28 0.04l1.88 0.09c0.32 0 9.39 0 10.45-0.04c0.86-0.04 1.6-0.14 1.96-0.23c0.23-0.04 0.41-0.23 0.64-0.23c0.14 0 0.18 0.18 0.18 0.41c0 0.32-0.23 0.87-0.37 2.14c-0.04 0.46-0.13 2.46-0.23 3.02c-0.04 0.22-0.13 0.5-0.32 0.5c-0.27 0-0.37-0.23-0.37-0.6c0-0.32-0.04-1.1-0.27-1.64c-0.32-0.73-0.77-1.28-3.24-1.55c-0.78-0.09-5.75-0.13-6.25-0.13c-0.18 0-0.27 0.13-0.27 0.45v12.59c0 0.32 0.04 0.46 0.27 0.46c0.6 0 6.21 0 7.25-0.09c1.1-0.09 1.74-0.18 2.15-0.63c0.32-0.37 0.5-0.6 0.68-0.6c0.13 0 0.23 0.09 0.23 0.37c0 0.27-0.23 1.05-0.37 2.55c-0.09 0.91-0.18 2.6-0.18 2.92c0 0.36 0 0.87-0.32 0.87c-0.23 0-0.32-0.18-0.32-0.41c0-0.46 0-0.91-0.18-1.51c-0.18-0.64-0.6-1.41-2.38-1.6c-1.23-0.14-5.75-0.23-6.52-0.23c-0.23 0-0.32 0.14-0.32 0.32v4.01c0 1.55-0.04 6.84 0 7.8c0.14 3.15 0.82 3.74 5.29 3.74c1.19 0 3.19 0 4.38-0.5c1.18-0.51 1.73-1.42 2.05-3.29c0.09-0.5 0.18-0.68 0.41-0.68c0.27 0 0.27 0.37 0.27 0.68z" />
					<path id="&lt;Path&gt;" class="s1" d="m212.84 55.4c0 0.18-0.18 0.32-0.5 0.32c-0.23 0-0.55 0-1.1 0.14c-1.51 0.32-1.69 1.32-1.69 4.06l-0.1 26.73c0 3.02-0.09 3.24-0.41 3.24c-0.36 0-0.91-0.51-3.33-2.92c-0.5-0.46-7.07-7.16-11.91-12.37c-5.29-5.7-10.45-11.45-11.9-13.09l0.6 21.85c0.09 3.74 0.54 4.93 1.77 5.29c0.87 0.23 1.88 0.28 2.28 0.28c0.23 0 0.37 0.09 0.37 0.27c0 0.27-0.27 0.36-0.82 0.36c-2.6 0-4.42-0.13-4.83-0.13c-0.41 0-2.32 0.13-4.38 0.13c-0.46 0-0.73-0.04-0.73-0.36c0-0.18 0.13-0.27 0.36-0.27c0.37 0 1.19-0.05 1.88-0.28c1.14-0.32 1.37-1.64 1.37-5.79l0.04-26.14c0-1.78 0.13-2.28 0.5-2.28c0.37 0 1.14 1 1.6 1.46c0.68 0.78 7.48 8.12 14.51 15.65c4.52 4.83 9.49 10.4 10.95 11.9l-0.5-23.17c-0.04-2.97-0.37-3.97-1.78-4.34c-0.82-0.18-1.87-0.23-2.24-0.23c-0.32 0-0.37-0.13-0.37-0.32c0-0.27 0.37-0.32 0.92-0.32c2.05 0 4.24 0.13 4.74 0.13c0.51 0 2.01-0.13 3.88-0.13c0.51 0 0.82 0.04 0.82 0.32z" />
					<path id="&lt;Path&gt;" class="s1" d="m244.54 55.31c0 1.37-0.14 4.51-0.14 5.02c0 0.41-0.13 0.59-0.32 0.59c-0.23 0-0.32-0.13-0.37-0.77l-0.04-0.5c-0.13-1.37-1.23-2.42-5.61-2.51l-5.75-0.1v19.3c0 4.38 0 7.98 0.23 9.9c0.14 1.32 0.41 2.32 1.78 2.51c0.64 0.09 1.64 0.18 2.05 0.18c0.27 0 0.37 0.13 0.37 0.27c0 0.23-0.23 0.36-0.73 0.36c-2.51 0-5.38-0.13-5.61-0.13c-0.23 0-3.1 0.13-4.47 0.13c-0.5 0-0.73-0.09-0.73-0.36c0-0.14 0.09-0.27 0.37-0.27c0.41 0 0.96-0.1 1.37-0.18c0.91-0.18 1.14-1.19 1.32-2.51c0.23-1.92 0.23-5.52 0.23-9.9v-19.3l-6.75 0.1c-2.83 0.04-3.93 0.36-4.66 1.46c-0.5 0.77-0.64 1.1-0.77 1.41c-0.14 0.37-0.27 0.46-0.46 0.46c-0.14 0-0.23-0.13-0.23-0.41c0-0.46 0.91-4.38 1-4.74c0.09-0.28 0.27-0.87 0.46-0.87c0.32 0 0.78 0.46 2.01 0.54c1.32 0.14 3.06 0.23 3.6 0.23h17.1c1.46 0 2.51-0.09 3.24-0.23c0.68-0.09 1.1-0.23 1.28-0.23c0.23 0 0.23 0.27 0.23 0.55z" />
					<path id="&lt;Path&gt;" class="s1" d="m268.78 84.09c0 0.37-0.36 3.47-0.6 4.43c-0.32 1.18-0.68 1.18-2.46 1.18c-3.42 0-5.93-0.09-7.71-0.14c-1.78-0.09-2.88-0.13-3.56-0.13c-0.09 0-0.87 0-1.82 0.04c-0.91 0-1.96 0.09-2.65 0.09c-0.5 0-0.73-0.09-0.73-0.36c0-0.14 0.1-0.27 0.37-0.27c0.41 0 0.96-0.1 1.37-0.18c0.91-0.18 1.14-1.19 1.32-2.51c0.23-1.92 0.23-5.52 0.23-9.9v-8.03c0-7.12 0-8.39-0.1-9.86c-0.09-1.55-0.46-2.28-1.96-2.6c-0.37-0.09-1.14-0.14-1.55-0.14c-0.18 0-0.37-0.09-0.37-0.27c0-0.27 0.23-0.36 0.73-0.36c1.05 0 2.29 0 3.29 0.04l1.87 0.09c0.32 0 9.39 0 10.45-0.04c0.87-0.04 1.6-0.14 1.96-0.23c0.23-0.04 0.41-0.23 0.63-0.23c0.14 0 0.18 0.18 0.18 0.41c0 0.32-0.23 0.87-0.36 2.14c-0.04 0.46-0.14 2.46-0.23 3.02c-0.04 0.22-0.14 0.5-0.32 0.5c-0.27 0-0.36-0.23-0.36-0.6c0-0.32-0.05-1.1-0.28-1.64c-0.32-0.73-0.77-1.28-3.24-1.55c-0.77-0.09-5.75-0.13-6.25-0.13c-0.18 0-0.27 0.13-0.27 0.45v12.59c0 0.32 0.04 0.46 0.27 0.46c0.59 0 6.2 0 7.25-0.09c1.09-0.09 1.73-0.18 2.14-0.63c0.32-0.37 0.5-0.6 0.68-0.6c0.14 0 0.23 0.09 0.23 0.37c0 0.27-0.23 1.05-0.37 2.55c-0.09 0.91-0.18 2.6-0.18 2.92c0 0.36 0 0.87-0.32 0.87c-0.23 0-0.32-0.18-0.32-0.41c0-0.46 0-0.91-0.18-1.51c-0.18-0.64-0.6-1.41-2.37-1.6c-1.24-0.14-5.75-0.23-6.52-0.23c-0.23 0-0.32 0.14-0.32 0.32v4.01c0 1.55-0.05 6.84 0 7.8c0.13 3.15 0.82 3.74 5.29 3.74c1.18 0 3.19 0 4.38-0.5c1.18-0.51 1.74-1.42 2.05-3.29c0.09-0.5 0.18-0.68 0.41-0.68c0.27 0 0.27 0.37 0.27 0.68z" />
					<path id="&lt;Compound Path&gt;" fill-rule="evenodd" class="s1" d="m306.59 89.21c0 0.27-0.27 0.36-1.1 0.36h-3.24c-2.56 0-3.69-0.23-4.88-0.87c-1.96-1.05-3.55-3.28-6.16-6.7c-1.91-2.51-4.06-5.56-4.97-6.75c-0.18-0.18-0.32-0.27-0.59-0.27l-5.61-0.09c-0.23 0-0.32 0.13-0.32 0.36v1.1c0 4.38 0 7.98 0.23 9.9c0.13 1.32 0.41 2.32 1.77 2.51c0.64 0.09 1.65 0.18 2.06 0.18c0.27 0 0.36 0.13 0.36 0.27c0 0.23-0.23 0.36-0.73 0.36c-2.51 0-5.38-0.13-5.61-0.13c-0.04 0-2.92 0.13-4.29 0.13c-0.5 0-0.73-0.09-0.73-0.36c0-0.14 0.1-0.27 0.37-0.27c0.41 0 0.96-0.1 1.37-0.18c0.91-0.18 1.14-1.19 1.32-2.51c0.23-1.92 0.23-5.52 0.23-9.9v-8.03c0-7.12 0-8.39-0.1-9.86c-0.09-1.55-0.46-2.28-1.96-2.6c-0.37-0.09-1.14-0.14-1.55-0.14c-0.18 0-0.37-0.09-0.37-0.27c0-0.27 0.23-0.36 0.73-0.36c2.05 0 4.93 0.13 5.16 0.13c0.5 0 3.97-0.13 5.38-0.13c2.87 0 5.93 0.27 8.34 2c1.14 0.82 3.15 3.06 3.15 6.21c0 3.38-1.41 6.75-5.52 10.53c3.74 4.79 6.84 8.85 9.49 11.67c2.46 2.6 4.42 3.1 5.56 3.29c0.87 0.14 1.51 0.14 1.78 0.14c0.23 0 0.41 0.13 0.41 0.27zm-15.56-23.54c0-5.7-3.01-9.12-7.89-9.12c-1.37 0-2.6 0.14-3.06 0.27c-0.23 0.1-0.36 0.27-0.36 0.55v14.91c0 0.23 0.09 0.41 0.32 0.55c0.68 0.41 2.78 0.73 4.79 0.73c1.1 0 2.38-0.14 3.42-0.87c1.6-1.1 2.78-3.56 2.78-7.03z" />
				</g>
			</g>
			<g id="&lt;Group&gt;">
				<path id="&lt;Compound Path&gt;" class="s0" d="m118.58 97.05h3.37v0.59h-2.71v1.47h2.38v0.58h-2.38v2.21h-0.66v-4.85z" />
				<path id="&lt;Compound Path&gt;" fill-rule="evenodd" class="s0" d="m126.65 97.74c0.32 0.43 0.48 0.98 0.48 1.65c0 0.72-0.18 1.33-0.55 1.81c-0.43 0.56-1.05 0.85-1.85 0.85c-0.75 0-1.33-0.25-1.76-0.74c-0.38-0.48-0.57-1.08-0.57-1.8c0-0.66 0.16-1.22 0.49-1.68c0.42-0.6 1.04-0.9 1.86-0.9c0.86 0 1.49 0.28 1.9 0.83zm-0.58 3.09c0.26-0.42 0.39-0.89 0.39-1.43c0-0.57-0.15-1.03-0.45-1.38c-0.3-0.35-0.71-0.52-1.22-0.52c-0.5 0-0.91 0.17-1.23 0.52c-0.32 0.34-0.48 0.85-0.48 1.53c0 0.54 0.14 0.99 0.41 1.36c0.27 0.37 0.71 0.55 1.32 0.55c0.58 0 1-0.21 1.26-0.62z" />
				<path id="&lt;Compound Path&gt;" fill-rule="evenodd" class="s0" d="m127.99 97.05h2.21c0.36 0 0.66 0.05 0.9 0.16c0.45 0.21 0.67 0.59 0.67 1.15c0 0.29-0.06 0.53-0.18 0.71c-0.12 0.19-0.29 0.33-0.5 0.45c0.19 0.08 0.33 0.18 0.43 0.3c0.1 0.13 0.15 0.33 0.16 0.61l0.02 0.65c0.01 0.19 0.02 0.32 0.05 0.41c0.04 0.15 0.11 0.25 0.21 0.3v0.11h-0.81c-0.02-0.04-0.04-0.1-0.05-0.16c-0.01-0.07-0.02-0.19-0.03-0.38l-0.04-0.81c-0.01-0.32-0.13-0.53-0.34-0.64c-0.12-0.06-0.31-0.09-0.57-0.09h-1.45v2.08h-0.66v-4.85zm2.13 2.22c0.3 0 0.54-0.06 0.71-0.18c0.17-0.12 0.26-0.35 0.26-0.67c0-0.35-0.12-0.58-0.37-0.71c-0.13-0.07-0.31-0.1-0.52-0.1h-1.56v1.66h1.48z" />
				<path id="&lt;Compound Path&gt;" fill-rule="evenodd" class="s0" d="m134.66 97.05h2.1c0.57 0 0.98 0.17 1.22 0.51c0.14 0.2 0.21 0.43 0.21 0.69c0 0.31-0.09 0.56-0.26 0.75c-0.09 0.1-0.22 0.2-0.39 0.28c0.25 0.09 0.43 0.2 0.56 0.32c0.22 0.21 0.33 0.5 0.33 0.88c0 0.31-0.1 0.6-0.3 0.85c-0.29 0.38-0.76 0.57-1.41 0.57h-2.06v-4.85zm1.85 2.05c0.28 0 0.5-0.04 0.65-0.12c0.24-0.12 0.37-0.34 0.37-0.65c0-0.32-0.13-0.53-0.39-0.64c-0.15-0.06-0.37-0.09-0.65-0.09h-1.18v1.5h1.21zm0.22 2.24c0.41 0 0.7-0.12 0.87-0.35c0.11-0.15 0.16-0.33 0.16-0.54c0-0.35-0.16-0.59-0.48-0.72c-0.17-0.07-0.39-0.1-0.67-0.1h-1.32v1.71h1.43z" />
				<path id="&lt;Compound Path&gt;" fill-rule="evenodd" class="s0" d="m143.19 97.74c0.32 0.43 0.48 0.98 0.48 1.65c0 0.72-0.18 1.33-0.55 1.81c-0.43 0.56-1.05 0.85-1.85 0.85c-0.75 0-1.33-0.25-1.76-0.74c-0.38-0.48-0.57-1.08-0.57-1.8c0-0.66 0.16-1.22 0.49-1.68c0.42-0.6 1.04-0.9 1.86-0.9c0.86 0 1.49 0.28 1.9 0.83zm-0.58 3.09c0.26-0.42 0.39-0.89 0.39-1.43c0-0.57-0.15-1.03-0.45-1.38c-0.3-0.35-0.71-0.52-1.22-0.52c-0.5 0-0.91 0.17-1.23 0.52c-0.32 0.34-0.48 0.85-0.48 1.53c0 0.54 0.14 0.99 0.41 1.36c0.27 0.37 0.71 0.55 1.32 0.55c0.58 0 1-0.21 1.26-0.62z" />
				<path id="&lt;Compound Path&gt;" fill-rule="evenodd" class="s0" d="m144.53 97.05h2.21c0.36 0 0.66 0.05 0.9 0.16c0.45 0.21 0.67 0.59 0.67 1.15c0 0.29-0.06 0.53-0.18 0.71c-0.12 0.19-0.29 0.33-0.5 0.45c0.19 0.08 0.33 0.18 0.43 0.3c0.1 0.13 0.15 0.33 0.16 0.61l0.02 0.65c0.01 0.19 0.02 0.32 0.05 0.41c0.04 0.15 0.11 0.25 0.21 0.3v0.11h-0.81c-0.02-0.04-0.04-0.1-0.05-0.16c-0.01-0.07-0.02-0.19-0.03-0.38l-0.04-0.81c-0.01-0.32-0.13-0.53-0.34-0.64c-0.12-0.06-0.31-0.09-0.57-0.09h-1.45v2.08h-0.66v-4.85zm2.13 2.22c0.3 0 0.54-0.06 0.71-0.18c0.17-0.12 0.26-0.35 0.26-0.67c0-0.35-0.12-0.58-0.37-0.71c-0.13-0.07-0.31-0.1-0.52-0.1h-1.56v1.66h1.48z" />
				<path id="&lt;Compound Path&gt;" fill-rule="evenodd" class="s0" d="m149.37 97.05h1.94c0.66 0 1.17 0.24 1.53 0.71c0.32 0.43 0.49 0.97 0.49 1.64c0 0.52-0.1 0.98-0.29 1.4c-0.34 0.74-0.92 1.1-1.74 1.1h-1.93v-4.85zm1.81 4.29c0.22 0 0.4-0.02 0.54-0.07c0.25-0.09 0.45-0.25 0.61-0.5c0.13-0.2 0.22-0.45 0.27-0.75c0.03-0.18 0.05-0.35 0.05-0.51c0-0.6-0.12-1.07-0.35-1.4c-0.23-0.33-0.61-0.5-1.13-0.5h-1.14v3.73h1.15z" />
				<path id="&lt;Compound Path&gt;" class="s0" d="m154.28 97.05h3.52v0.59h-2.88v1.47h2.66v0.56h-2.66v1.64h2.93v0.58h-3.57v-4.85z" />
				<path id="&lt;Compound Path&gt;" fill-rule="evenodd" class="s0" d="m158.81 97.05h2.21c0.36 0 0.66 0.05 0.9 0.16c0.45 0.21 0.67 0.59 0.67 1.15c0 0.29-0.06 0.53-0.18 0.71c-0.12 0.19-0.29 0.33-0.5 0.45c0.19 0.08 0.33 0.18 0.43 0.3c0.1 0.13 0.15 0.33 0.16 0.61l0.02 0.65c0.01 0.19 0.02 0.32 0.05 0.41c0.04 0.15 0.11 0.25 0.21 0.3v0.11h-0.81c-0.02-0.04-0.04-0.1-0.05-0.16c-0.01-0.07-0.02-0.19-0.03-0.38l-0.04-0.81c-0.02-0.32-0.13-0.53-0.34-0.64c-0.12-0.06-0.31-0.09-0.57-0.09h-1.45v2.08h-0.66v-4.85zm2.13 2.22c0.3 0 0.54-0.06 0.71-0.18c0.17-0.12 0.26-0.35 0.26-0.67c0-0.35-0.12-0.58-0.37-0.71c-0.13-0.07-0.31-0.1-0.52-0.1h-1.56v1.66h1.48z" />
				<path id="&lt;Compound Path&gt;" class="s0" d="m165.56 97.05h3.52v0.59h-2.88v1.47h2.66v0.56h-2.66v1.64h2.93v0.58h-3.57v-4.85z" />
				<path id="&lt;Compound Path&gt;" class="s0" d="m173.44 97.4c0.34 0.32 0.52 0.69 0.56 1.1h-0.64c-0.07-0.31-0.21-0.56-0.43-0.74c-0.21-0.18-0.51-0.27-0.9-0.27c-0.47 0-0.85 0.17-1.14 0.5c-0.29 0.34-0.43 0.85-0.43 1.55c0 0.57 0.13 1.03 0.39 1.38c0.26 0.35 0.65 0.53 1.17 0.53c0.48 0 0.84-0.19 1.09-0.56c0.13-0.2 0.23-0.45 0.3-0.77h0.64c-0.06 0.51-0.24 0.94-0.56 1.28c-0.38 0.42-0.89 0.62-1.54 0.62c-0.56 0-1.03-0.17-1.4-0.51c-0.5-0.45-0.75-1.15-0.75-2.09c0-0.72 0.19-1.3 0.56-1.76c0.4-0.5 0.96-0.75 1.67-0.75c0.61 0 1.08 0.16 1.41 0.49z" />
				<path id="&lt;Compound Path&gt;" fill-rule="evenodd" class="s0" d="m178.89 97.74c0.32 0.43 0.48 0.98 0.48 1.65c0 0.72-0.18 1.33-0.55 1.81c-0.43 0.56-1.05 0.85-1.85 0.85c-0.75 0-1.33-0.25-1.76-0.74c-0.38-0.48-0.57-1.08-0.57-1.8c0-0.66 0.16-1.22 0.49-1.68c0.42-0.6 1.04-0.9 1.86-0.9c0.86 0 1.49 0.28 1.9 0.83zm-0.58 3.09c0.26-0.42 0.39-0.89 0.39-1.43c0-0.57-0.15-1.03-0.45-1.38c-0.3-0.35-0.71-0.52-1.22-0.52c-0.5 0-0.91 0.17-1.23 0.52c-0.32 0.34-0.48 0.85-0.48 1.53c0 0.54 0.14 0.99 0.41 1.36c0.27 0.37 0.71 0.55 1.32 0.55c0.58 0 1-0.21 1.26-0.62z" />
				<path id="&lt;Compound Path&gt;" class="s0" d="m180.16 97.05h0.77l2.42 3.92v-3.92h0.63v4.85h-0.74l-2.46-3.92v3.92h-0.63v-4.85z" />
				<path id="&lt;Compound Path&gt;" fill-rule="evenodd" class="s0" d="m189.04 97.74c0.32 0.43 0.48 0.98 0.48 1.65c0 0.72-0.18 1.33-0.55 1.81c-0.43 0.56-1.05 0.85-1.85 0.85c-0.75 0-1.33-0.25-1.76-0.74c-0.38-0.48-0.57-1.08-0.57-1.8c0-0.66 0.16-1.22 0.49-1.68c0.42-0.6 1.04-0.9 1.86-0.9c0.86 0 1.49 0.28 1.9 0.83zm-0.58 3.09c0.26-0.42 0.39-0.89 0.39-1.43c0-0.57-0.15-1.03-0.45-1.38c-0.3-0.35-0.71-0.52-1.22-0.52c-0.5 0-0.91 0.17-1.23 0.52c-0.32 0.34-0.48 0.85-0.48 1.53c0 0.54 0.14 0.99 0.41 1.36c0.27 0.37 0.71 0.55 1.32 0.55c0.58 0 1-0.21 1.26-0.62z" />
				<path id="&lt;Compound Path&gt;" class="s0" d="m190.29 97.05h0.94l1.4 4.1l1.39-4.1h0.94v4.85h-0.63v-2.86c0-0.1 0-0.26 0.01-0.49c0-0.23 0.01-0.47 0.01-0.74l-1.39 4.09h-0.65l-1.4-4.09v0.15c0 0.12 0 0.3 0.01 0.54c0.01 0.24 0.01 0.42 0.01 0.54v2.86h-0.63v-4.85z" />
				<path id="&lt;Compound Path&gt;" class="s0" d="m196.08 97.05h0.66v4.85h-0.66v-4.85z" />
				<path id="&lt;Compound Path&gt;" class="s0" d="m201.25 97.4c0.34 0.32 0.52 0.69 0.56 1.1h-0.64c-0.07-0.31-0.21-0.56-0.43-0.74c-0.21-0.18-0.51-0.27-0.9-0.27c-0.47 0-0.85 0.17-1.14 0.5c-0.29 0.34-0.43 0.85-0.43 1.55c0 0.57 0.13 1.03 0.39 1.38c0.26 0.35 0.65 0.53 1.17 0.53c0.48 0 0.84-0.19 1.09-0.56c0.13-0.2 0.23-0.45 0.3-0.77h0.64c-0.06 0.51-0.24 0.94-0.56 1.28c-0.38 0.42-0.89 0.62-1.54 0.62c-0.56 0-1.03-0.17-1.4-0.51c-0.5-0.45-0.75-1.15-0.75-2.09c0-0.72 0.19-1.3 0.56-1.76c0.4-0.5 0.96-0.75 1.67-0.75c0.61 0 1.08 0.16 1.41 0.49z" />
				<path id="&lt;Compound Path&gt;" fill-rule="evenodd" class="s0" d="m205.04 98.61c-0.07-0.16-0.1-0.32-0.1-0.47c0-0.31 0.11-0.57 0.32-0.78c0.21-0.21 0.49-0.31 0.85-0.31c0.34 0 0.6 0.1 0.79 0.29c0.19 0.19 0.28 0.42 0.28 0.69c0 0.31-0.1 0.58-0.29 0.82c-0.11 0.14-0.3 0.29-0.57 0.47l0.88 1.06c0.06-0.18 0.1-0.31 0.12-0.39c0.02-0.09 0.05-0.21 0.07-0.37h0.56c-0.04 0.31-0.11 0.61-0.22 0.89c-0.09 0.22-0.14 0.34-0.16 0.36l0.85 1.04h-0.76l-0.45-0.55c-0.18 0.2-0.34 0.34-0.49 0.43c-0.26 0.16-0.56 0.24-0.9 0.24c-0.5 0-0.87-0.14-1.1-0.41c-0.23-0.27-0.34-0.58-0.34-0.92c0-0.37 0.11-0.67 0.33-0.92c0.14-0.15 0.39-0.34 0.76-0.56c-0.2-0.24-0.34-0.43-0.41-0.59zm2.52 2.26l-0.01-0.01c0 0.01 0 0.02 0.01 0.01zm-1.09 0.46c0.18-0.11 0.31-0.24 0.4-0.38l-1.09-1.34c-0.31 0.21-0.51 0.37-0.6 0.48c-0.14 0.17-0.22 0.37-0.22 0.6c0 0.26 0.09 0.46 0.28 0.59c0.19 0.14 0.39 0.21 0.6 0.21c0.24 0 0.45-0.06 0.63-0.17zm-0.05-2.75c0.13-0.15 0.19-0.32 0.19-0.5c0-0.14-0.05-0.27-0.14-0.37c-0.09-0.1-0.22-0.15-0.38-0.15c-0.24 0-0.41 0.08-0.51 0.24c-0.05 0.08-0.07 0.17-0.07 0.27c0 0.13 0.04 0.26 0.11 0.39c0.07 0.12 0.2 0.28 0.37 0.48c0.21-0.15 0.35-0.27 0.43-0.36z" />
				<path id="&lt;Compound Path&gt;" class="s0" d="m211.03 97.05h3.52v0.59h-2.88v1.47h2.66v0.56h-2.66v1.64h2.93v0.58h-3.57v-4.85z" />
				<path id="&lt;Compound Path&gt;" class="s0" d="m215.48 97.05h0.77l2.42 3.92v-3.92h0.63v4.85h-0.74l-2.46-3.92v3.92h-0.63v-4.85z" />
				<path id="&lt;Compound Path&gt;" class="s0" d="m223.89 97.05v0.58h-1.63v4.27h-0.66v-4.27h-1.63v-0.58h3.93z" />
				<path id="&lt;Compound Path&gt;" class="s0" d="m224.56 97.05h3.52v0.59h-2.88v1.47h2.66v0.56h-2.66v1.64h2.93v0.58h-3.57v-4.85z" />
				<path id="&lt;Compound Path&gt;" fill-rule="evenodd" class="s0" d="m229.09 97.05h2.21c0.36 0 0.66 0.05 0.9 0.16c0.45 0.21 0.67 0.59 0.67 1.15c0 0.29-0.06 0.53-0.18 0.71c-0.12 0.19-0.29 0.33-0.5 0.45c0.19 0.08 0.33 0.18 0.43 0.3c0.1 0.13 0.15 0.33 0.16 0.61l0.02 0.65c0.01 0.19 0.02 0.32 0.05 0.41c0.04 0.15 0.11 0.25 0.21 0.3v0.11h-0.81c-0.02-0.04-0.04-0.1-0.05-0.16c-0.01-0.07-0.02-0.19-0.03-0.38l-0.04-0.81c-0.01-0.32-0.13-0.53-0.34-0.64c-0.12-0.06-0.31-0.09-0.57-0.09h-1.45v2.08h-0.66v-4.85zm2.13 2.22c0.3 0 0.54-0.06 0.71-0.18c0.17-0.12 0.26-0.35 0.26-0.67c0-0.35-0.12-0.58-0.37-0.71c-0.13-0.07-0.31-0.1-0.52-0.1h-1.56v1.66h1.48z" />
				<path id="&lt;Compound Path&gt;" fill-rule="evenodd" class="s0" d="m233.96 97.05h2.17c0.43 0 0.78 0.12 1.04 0.36c0.26 0.24 0.4 0.59 0.4 1.03c0 0.38-0.12 0.71-0.35 0.99c-0.24 0.28-0.6 0.42-1.08 0.42h-1.52v2.05h-0.66v-4.85zm2.55 0.67c-0.14-0.07-0.34-0.1-0.59-0.1h-1.3v1.68h1.3c0.29 0 0.53-0.06 0.71-0.19c0.18-0.13 0.27-0.35 0.27-0.66c0-0.36-0.13-0.6-0.39-0.73z" />
				<path id="&lt;Compound Path&gt;" fill-rule="evenodd" class="s0" d="m238.49 97.05h2.21c0.36 0 0.66 0.05 0.9 0.16c0.45 0.21 0.67 0.59 0.67 1.15c0 0.29-0.06 0.53-0.18 0.71c-0.12 0.19-0.29 0.33-0.5 0.45c0.19 0.08 0.33 0.18 0.43 0.3c0.1 0.13 0.15 0.33 0.16 0.61l0.02 0.65c0.01 0.19 0.02 0.32 0.05 0.41c0.04 0.15 0.11 0.25 0.21 0.3v0.11h-0.81c-0.02-0.04-0.04-0.1-0.05-0.16c-0.01-0.07-0.02-0.19-0.03-0.38l-0.04-0.81c-0.02-0.32-0.13-0.53-0.34-0.64c-0.12-0.06-0.31-0.09-0.57-0.09h-1.45v2.08h-0.66v-4.85zm2.13 2.22c0.3 0 0.54-0.06 0.71-0.18c0.17-0.12 0.26-0.35 0.26-0.67c0-0.35-0.12-0.58-0.37-0.71c-0.13-0.07-0.31-0.1-0.52-0.1h-1.56v1.66h1.48z" />
				<path id="&lt;Compound Path&gt;" class="s0" d="m243.44 97.05h0.66v4.85h-0.66v-4.85z" />
				<path id="&lt;Compound Path&gt;" class="s0" d="m245.6 100.34c0.01 0.28 0.08 0.5 0.19 0.67c0.21 0.32 0.58 0.48 1.11 0.48c0.24 0 0.45-0.04 0.65-0.11c0.38-0.14 0.57-0.38 0.57-0.73c0-0.26-0.08-0.45-0.24-0.56c-0.16-0.11-0.42-0.21-0.76-0.29l-0.64-0.15c-0.42-0.1-0.71-0.2-0.88-0.32c-0.3-0.2-0.45-0.51-0.45-0.91c0-0.44 0.15-0.79 0.44-1.07c0.29-0.28 0.71-0.42 1.25-0.42c0.49 0 0.92 0.12 1.26 0.37c0.35 0.25 0.52 0.64 0.52 1.18h-0.62c-0.03-0.26-0.1-0.46-0.2-0.6c-0.19-0.25-0.52-0.38-0.98-0.38c-0.37 0-0.64 0.08-0.8 0.24c-0.16 0.16-0.24 0.35-0.24 0.57c0 0.24 0.1 0.41 0.29 0.52c0.13 0.07 0.41 0.16 0.85 0.26l0.66 0.16c0.32 0.07 0.56 0.18 0.74 0.31c0.3 0.23 0.45 0.56 0.45 0.99c0 0.54-0.19 0.92-0.57 1.15c-0.38 0.23-0.82 0.35-1.33 0.35c-0.59 0-1.05-0.15-1.38-0.46c-0.33-0.31-0.5-0.72-0.49-1.25h0.62z" />
				<path id="&lt;Compound Path&gt;" class="s0" d="m249.75 97.05h3.52v0.59h-2.88v1.47h2.66v0.56h-2.66v1.64h2.93v0.58h-3.57v-4.85z" />
				<path id="&lt;Compound Path&gt;" fill-rule="evenodd" class="s0" d="m256.1 97.05h1.94c0.66 0 1.17 0.24 1.53 0.71c0.32 0.43 0.49 0.97 0.49 1.64c0 0.52-0.1 0.98-0.29 1.4c-0.34 0.74-0.92 1.1-1.74 1.1h-1.93v-4.85zm1.81 4.29c0.22 0 0.4-0.02 0.54-0.07c0.25-0.09 0.45-0.25 0.61-0.5c0.13-0.2 0.22-0.45 0.27-0.75c0.03-0.18 0.05-0.35 0.05-0.51c0-0.6-0.12-1.07-0.35-1.4c-0.23-0.33-0.61-0.5-1.13-0.5h-1.14v3.73h1.15z" />
				<path id="&lt;Compound Path&gt;" class="s0" d="m261.02 97.05h3.52v0.59h-2.88v1.47h2.66v0.56h-2.66v1.64h2.93v0.58h-3.57v-4.85z" />
				<path id="&lt;Compound Path&gt;" class="s0" d="m265.85 97.05l1.39 4.13l1.38-4.13h0.74l-1.77 4.85h-0.7l-1.77-4.85h0.73z" />
				<path id="&lt;Compound Path&gt;" class="s0" d="m270.04 97.05h3.52v0.59h-2.88v1.47h2.66v0.56h-2.66v1.64h2.93v0.58h-3.57v-4.85z" />
				<path id="&lt;Compound Path&gt;" class="s0" d="m274.49 97.05h0.66v4.27h2.43v0.58h-3.09v-4.85z" />
				<path id="&lt;Compound Path&gt;" fill-rule="evenodd" class="s0" d="m282.25 97.74c0.32 0.43 0.48 0.98 0.48 1.65c0 0.72-0.18 1.33-0.55 1.81c-0.43 0.56-1.05 0.85-1.85 0.85c-0.75 0-1.33-0.25-1.76-0.74c-0.38-0.48-0.57-1.08-0.57-1.8c0-0.66 0.16-1.22 0.49-1.68c0.42-0.6 1.04-0.9 1.86-0.9c0.86 0 1.49 0.28 1.9 0.83zm-0.58 3.09c0.26-0.42 0.39-0.89 0.39-1.43c0-0.57-0.15-1.03-0.45-1.38c-0.3-0.35-0.71-0.52-1.22-0.52c-0.5 0-0.91 0.17-1.23 0.52c-0.32 0.34-0.48 0.85-0.48 1.53c0 0.54 0.14 0.99 0.41 1.36c0.27 0.37 0.71 0.55 1.32 0.55c0.58 0 1-0.21 1.26-0.62z" />
				<path id="&lt;Compound Path&gt;" fill-rule="evenodd" class="s0" d="m283.58 97.05h2.17c0.43 0 0.78 0.12 1.04 0.36c0.26 0.24 0.4 0.59 0.4 1.03c0 0.38-0.12 0.71-0.35 0.99c-0.24 0.28-0.6 0.42-1.08 0.42h-1.51v2.05h-0.66v-4.85zm2.55 0.67c-0.14-0.07-0.34-0.1-0.59-0.1h-1.3v1.68h1.3c0.29 0 0.53-0.06 0.71-0.19c0.18-0.13 0.27-0.35 0.27-0.66c0-0.36-0.13-0.6-0.39-0.73z" />
				<path id="&lt;Compound Path&gt;" class="s0" d="m288.01 97.05h0.94l1.4 4.1l1.39-4.1h0.94v4.85h-0.63v-2.86c0-0.1 0-0.26 0.01-0.49c0-0.23 0.01-0.47 0.01-0.74l-1.39 4.09h-0.65l-1.4-4.09v0.15c0 0.12 0 0.3 0.01 0.54c0.01 0.24 0.01 0.42 0.01 0.54v2.86h-0.63v-4.85z" />
				<path id="&lt;Compound Path&gt;" class="s0" d="m293.73 97.05h3.52v0.59h-2.88v1.47h2.66v0.56h-2.66v1.64h2.93v0.58h-3.57v-4.85z" />
				<path id="&lt;Compound Path&gt;" class="s0" d="m298.17 97.05h0.77l2.42 3.92v-3.92h0.63v4.85h-0.74l-2.46-3.92v3.92h-0.63v-4.85z" />
				<path id="&lt;Compound Path&gt;" class="s0" d="m306.59 97.05v0.58h-1.63v4.27h-0.66v-4.27h-1.63v-0.58h3.93z" />
			</g>
		</g>
		<g id="&lt;Group&gt;">
			<path id="&lt;Compound Path&gt;" class="s1" d="m9.09 110.02v1.91h-3.22v8.87h-2.27v-8.87h-3.24v-1.91h8.73z" />
			<path id="&lt;Compound Path&gt;" class="s1" d="m18.37 111.93h-5.7v2.29h5.23v1.87h-5.23v2.77h5.96v1.94h-8.16v-10.77h7.9v1.91z" />
			<path id="&lt;Compound Path&gt;" class="s1" d="m22.11 120.79h-2.62l3.46-5.49l-3.3-5.28h2.69l1.92 3.51l1.97-3.51h2.6l-3.3 5.2l3.5 5.58h-2.73l-2.05-3.67l-2.16 3.67z" />
			<path id="&lt;Compound Path&gt;" fill-rule="evenodd" class="s1" d="m33.45 110.02h2.55l3.81 10.77h-2.44l-0.71-2.21h-3.97l-0.73 2.21h-2.35l3.85-10.77zm-0.15 6.7h2.76l-1.36-4.24l-1.4 4.24z" />
			<path id="&lt;Compound Path&gt;" class="s1" d="m42.8 117.47c0.07 0.49 0.21 0.86 0.41 1.1c0.37 0.44 1.01 0.67 1.92 0.67c0.54 0 0.98-0.06 1.32-0.18c0.64-0.22 0.96-0.64 0.96-1.25c0-0.36-0.16-0.63-0.47-0.83c-0.31-0.19-0.81-0.36-1.5-0.5l-1.17-0.26c-1.15-0.25-1.93-0.53-2.36-0.83c-0.73-0.5-1.09-1.27-1.09-2.33c0-0.96 0.36-1.77 1.07-2.4c0.71-0.64 1.75-0.96 3.13-0.96c1.15 0 2.13 0.3 2.94 0.9c0.81 0.6 1.24 1.48 1.28 2.62h-2.16c-0.04-0.65-0.33-1.11-0.87-1.38c-0.36-0.18-0.81-0.27-1.34-0.27c-0.59 0-1.07 0.12-1.42 0.35c-0.35 0.23-0.53 0.56-0.53 0.98c0 0.38 0.17 0.67 0.52 0.86c0.22 0.13 0.7 0.28 1.43 0.45l1.89 0.45c0.83 0.19 1.45 0.46 1.86 0.78c0.64 0.51 0.96 1.24 0.96 2.2c0 0.98-0.38 1.8-1.14 2.45c-0.76 0.65-1.84 0.98-3.22 0.98c-1.42 0-2.53-0.32-3.35-0.96c-0.81-0.64-1.22-1.52-1.22-2.64h2.15z" />
			<path id="&lt;Compound Path&gt;" fill-rule="evenodd" class="s1" d="m57.86 110.02h2.55l3.81 10.77h-2.44l-0.71-2.21h-3.97l-0.73 2.21h-2.35l3.85-10.77zm-0.15 6.7h2.76l-1.36-4.24l-1.4 4.24z" />
			<path id="&lt;Compound Path&gt;" fill-rule="evenodd" class="s1" d="m65.74 116.29c0.32-0.46 0.85-0.92 1.58-1.37l0.23-0.14c-0.31-0.35-0.55-0.71-0.72-1.08c-0.17-0.37-0.26-0.75-0.26-1.14c0-0.79 0.27-1.4 0.8-1.84c0.53-0.44 1.22-0.66 2.07-0.66c0.77 0 1.41 0.23 1.92 0.68c0.51 0.45 0.76 1.03 0.76 1.73c0 0.64-0.15 1.15-0.45 1.55c-0.3 0.4-0.75 0.76-1.33 1.1l1.55 1.88c0.18-0.25 0.31-0.53 0.41-0.83c0.1-0.3 0.15-0.61 0.15-0.94h1.85c-0.03 0.65-0.19 1.32-0.47 1.99c-0.16 0.38-0.41 0.79-0.76 1.25l1.96 2.34h-2.52l-0.75-0.91c-0.36 0.34-0.7 0.59-1.02 0.75c-0.56 0.29-1.21 0.43-1.94 0.43c-1.1 0-1.97-0.32-2.59-0.96c-0.62-0.64-0.93-1.36-0.93-2.14c0-0.65 0.16-1.2 0.48-1.67zm2.04 2.58c0.29 0.3 0.67 0.45 1.13 0.45c0.35 0 0.68-0.08 0.99-0.23c0.31-0.16 0.56-0.33 0.75-0.52l-2.02-2.45c-0.53 0.35-0.88 0.65-1.05 0.91c-0.17 0.26-0.26 0.55-0.26 0.87c0 0.36 0.15 0.68 0.44 0.98zm0.92-5.77c0.09 0.14 0.29 0.39 0.59 0.75c0.3-0.2 0.52-0.38 0.65-0.52c0.25-0.26 0.38-0.55 0.38-0.86c0-0.22-0.08-0.42-0.23-0.6c-0.15-0.18-0.38-0.26-0.69-0.26c-0.19 0-0.37 0.05-0.54 0.15c-0.25 0.15-0.38 0.39-0.38 0.72c0 0.2 0.07 0.4 0.21 0.62z" />
			<path id="&lt;Compound Path&gt;" class="s1" d="m83.54 110.02h3.24v10.77h-2.1v-7.29c0-0.21 0-0.5 0.01-0.88c0-0.38 0.01-0.67 0.01-0.87l-2.04 9.04h-2.19l-2.03-9.04c0 0.2 0 0.5 0.01 0.87c0 0.38 0.01 0.67 0.01 0.88v7.29h-2.1v-10.77h3.28l1.96 8.47l1.95-8.47z" />
			<path id="&lt;Compound Path&gt;" class="s1" d="m95.08 120.79h-2.24v-10.77h2.24v10.77z" />
			<path id="&lt;Compound Path&gt;" class="s1" d="m97.14 110.02h2.36l4.28 7.51v-7.51h2.1v10.77h-2.25l-4.39-7.64v7.64h-2.1v-10.77z" />
			<path id="&lt;Compound Path&gt;" class="s1" d="m115.82 110.02v1.91h-3.22v8.87h-2.27v-8.87h-3.24v-1.91h8.73z" />
			<path id="&lt;Compound Path&gt;" class="s1" d="m125.1 111.93h-5.7v2.29h5.23v1.87h-5.23v2.77h5.96v1.94h-8.16v-10.77h7.9v1.91z" />
			<path id="&lt;Compound Path&gt;" fill-rule="evenodd" class="s1" d="m134.02 110.3c0.4 0.17 0.73 0.42 1.01 0.75c0.23 0.27 0.41 0.57 0.54 0.91c0.13 0.33 0.2 0.71 0.2 1.13c0 0.51-0.13 1.01-0.39 1.51c-0.26 0.49-0.68 0.84-1.28 1.05c0.5 0.2 0.85 0.48 1.06 0.85c0.21 0.37 0.31 0.93 0.31 1.68v0.72c0 0.49 0.02 0.83 0.06 1c0.06 0.28 0.2 0.48 0.42 0.61v0.27h-2.49c-0.07-0.24-0.12-0.43-0.15-0.58c-0.06-0.3-0.09-0.61-0.1-0.93l-0.01-1c-0.01-0.69-0.13-1.14-0.36-1.37c-0.23-0.23-0.66-0.34-1.28-0.34h-2.2v4.22h-2.2v-10.77h5.15c0.74 0.01 1.3 0.11 1.7 0.28zm-4.65 1.59v2.89h2.42c0.48 0 0.84-0.06 1.08-0.18c0.43-0.2 0.64-0.61 0.64-1.21c0-0.65-0.21-1.09-0.62-1.32c-0.23-0.13-0.58-0.19-1.04-0.19h-2.49z" />
			<path id="&lt;Compound Path&gt;" class="s1" d="m137.89 110.02h2.36l4.28 7.51v-7.51h2.1v10.77h-2.25l-4.39-7.64v7.64h-2.1v-10.77z" />
			<path id="&lt;Compound Path&gt;" fill-rule="evenodd" class="s1" d="m151.82 110.02h2.55l3.81 10.77h-2.44l-0.71-2.21h-3.97l-0.73 2.21h-2.35l3.85-10.77zm-0.15 6.7h2.76l-1.36-4.24l-1.4 4.24z" />
			<path id="&lt;Compound Path&gt;" class="s1" d="m166.27 110.02v1.91h-3.22v8.87h-2.27v-8.87h-3.24v-1.91h8.73z" />
			<path id="&lt;Compound Path&gt;" class="s1" d="m169.64 120.79h-2.24v-10.77h2.24v10.77z" />
			<path id="&lt;Compound Path&gt;" fill-rule="evenodd" class="s1" d="m180.04 119.84c-0.81 0.84-1.99 1.26-3.53 1.26c-1.54 0-2.72-0.42-3.53-1.26c-1.09-1.03-1.64-2.51-1.64-4.44c0-1.97 0.55-3.45 1.64-4.44c0.81-0.84 1.99-1.26 3.53-1.26c1.54 0 2.72 0.42 3.53 1.26c1.09 0.99 1.63 2.47 1.63 4.44c0 1.93-0.54 3.42-1.63 4.44zm-1.41-1.64c0.52-0.66 0.79-1.59 0.79-2.81c0-1.21-0.26-2.14-0.79-2.8c-0.52-0.66-1.23-0.99-2.12-0.99c-0.89 0-1.6 0.33-2.13 0.99c-0.53 0.66-0.8 1.59-0.8 2.81c0 1.21 0.27 2.15 0.8 2.81c0.53 0.66 1.24 0.99 2.13 0.99c0.89 0 1.6-0.33 2.12-0.99z" />
			<path id="&lt;Compound Path&gt;" class="s1" d="m183.35 110.02h2.36l4.28 7.51v-7.51h2.1v10.77h-2.25l-4.39-7.64v7.64h-2.1v-10.77z" />
			<path id="&lt;Compound Path&gt;" fill-rule="evenodd" class="s1" d="m197.28 110.02h2.55l3.81 10.77h-2.44l-0.71-2.21h-3.97l-0.73 2.21h-2.35l3.85-10.77zm-0.15 6.7h2.76l-1.36-4.24l-1.4 4.24z" />
			<path id="&lt;Compound Path&gt;" class="s1" d="m205.01 110.02h2.25v8.84h5.38v1.94h-7.63v-10.77z" />
			<path id="&lt;Compound Path&gt;" class="s1" d="m218.05 110.02h2.29v6.62c0 0.74 0.09 1.28 0.26 1.62c0.27 0.6 0.86 0.91 1.78 0.91c0.91 0 1.5-0.3 1.77-0.91c0.17-0.34 0.26-0.88 0.26-1.62v-6.62h2.29v6.62c0 1.14-0.18 2.04-0.53 2.67c-0.66 1.17-1.92 1.75-3.79 1.75c-1.86 0-3.13-0.58-3.79-1.75c-0.36-0.64-0.53-1.53-0.53-2.67v-6.62z" />
			<path id="&lt;Compound Path&gt;" class="s1" d="m228.82 110.02h2.36l4.28 7.51v-7.51h2.1v10.77h-2.25l-4.39-7.64v7.64h-2.1v-10.77z" />
			<path id="&lt;Compound Path&gt;" class="s1" d="m241.72 120.79h-2.24v-10.77h2.24v10.77z" />
			<path id="&lt;Compound Path&gt;" class="s1" d="m250.13 110.02h2.34l-3.67 10.77h-2.13l-3.64-10.77h2.4l2.34 8.18l2.36-8.18z" />
			<path id="&lt;Compound Path&gt;" class="s1" d="m261.78 111.93h-5.7v2.29h5.23v1.87h-5.23v2.77h5.96v1.94h-8.16v-10.77h7.9v1.91z" />
			<path id="&lt;Compound Path&gt;" fill-rule="evenodd" class="s1" d="m270.7 110.3c0.4 0.17 0.73 0.42 1.01 0.75c0.23 0.27 0.41 0.57 0.54 0.91c0.13 0.33 0.2 0.71 0.2 1.13c0 0.51-0.13 1.01-0.39 1.51c-0.26 0.49-0.68 0.84-1.28 1.05c0.5 0.2 0.85 0.48 1.06 0.85c0.21 0.37 0.31 0.93 0.31 1.68v0.72c0 0.49 0.02 0.83 0.06 1c0.06 0.28 0.2 0.48 0.42 0.61v0.27h-2.48c-0.07-0.24-0.12-0.43-0.15-0.58c-0.06-0.3-0.09-0.61-0.1-0.93l-0.01-1c-0.01-0.69-0.13-1.14-0.36-1.37c-0.23-0.23-0.66-0.34-1.28-0.34h-2.2v4.22h-2.2v-10.77h5.15c0.74 0.01 1.3 0.11 1.7 0.28zm-4.65 1.59v2.89h2.42c0.48 0 0.84-0.06 1.08-0.18c0.43-0.2 0.64-0.61 0.64-1.21c0-0.65-0.21-1.09-0.62-1.32c-0.23-0.13-0.58-0.19-1.04-0.19h-2.48z" />
			<path id="&lt;Compound Path&gt;" class="s1" d="m276.23 117.47c0.07 0.49 0.21 0.86 0.41 1.1c0.37 0.44 1.01 0.67 1.92 0.67c0.54 0 0.98-0.06 1.32-0.18c0.64-0.22 0.96-0.64 0.96-1.25c0-0.36-0.16-0.63-0.47-0.83c-0.31-0.19-0.81-0.36-1.5-0.5l-1.17-0.26c-1.15-0.25-1.93-0.53-2.36-0.83c-0.73-0.5-1.09-1.27-1.09-2.33c0-0.96 0.36-1.77 1.07-2.4c0.71-0.64 1.75-0.96 3.13-0.96c1.15 0 2.13 0.3 2.94 0.9c0.81 0.6 1.24 1.48 1.28 2.62h-2.16c-0.04-0.65-0.33-1.11-0.87-1.38c-0.36-0.18-0.81-0.27-1.34-0.27c-0.59 0-1.07 0.12-1.42 0.35c-0.35 0.23-0.53 0.56-0.53 0.98c0 0.38 0.17 0.67 0.52 0.86c0.22 0.13 0.7 0.28 1.43 0.45l1.89 0.45c0.83 0.19 1.45 0.46 1.86 0.78c0.64 0.51 0.96 1.24 0.96 2.2c0 0.98-0.38 1.8-1.14 2.45c-0.76 0.65-1.84 0.98-3.22 0.98c-1.42 0-2.53-0.32-3.35-0.96c-0.81-0.64-1.22-1.52-1.22-2.64h2.15z" />
			<path id="&lt;Compound Path&gt;" class="s1" d="m286.64 120.79h-2.24v-10.77h2.24v10.77z" />
			<path id="&lt;Compound Path&gt;" class="s1" d="m296.57 110.02v1.91h-3.22v8.87h-2.27v-8.87h-3.24v-1.91h8.73z" />
			<path id="&lt;Compound Path&gt;" class="s1" d="m304.04 110.02h2.55l-3.6 6.73v4.04h-2.25v-4.04l-3.73-6.73h2.65l2.24 4.69l2.14-4.69z" />
		</g>
	</g>
</svg>