<?xml version="1.0" encoding="utf-8"?>
<!-- Generator: Adobe Illustrator 25.3.1, SVG Export Plug-In . SVG Version: 6.00 Build 0)  -->
<svg version="1.1" id="Layer_1" xmlns="http://www.w3.org/2000/svg" xmlns:xlink="http://www.w3.org/1999/xlink" x="0px" y="0px"
	 viewBox="0 0 237.2 176.2" style="enable-background:new 0 0 237.2 176.2;" xml:space="preserve">
<style type="text/css">
	.st0{fill:none;stroke:#FFFFFF;stroke-width:1.5;stroke-miterlimit:10;}
	.st1{fill:#FFFFFF;stroke:#FFFFFF;stroke-miterlimit:10;}
	.st2{fill:#FFFFFF;stroke:#FFFFFF;stroke-width:0.5;stroke-linecap:round;stroke-linejoin:round;stroke-miterlimit:10;}
</style>
<rect x="0.8" y="0.8" class="st0" width="235.7" height="174.7"/>
<g>
	<path class="st1" d="M198.3,98.5c1.7,0,2.7,0.5,2.7,1.1l0,0.3c0,0.3,0,0.8,0.6,0.8c0.3,0,0.5-0.2,0.6-0.7c0-0.4,0-1,0-1.6
		c0-0.6,0-1.1,0-1.4c0-0.3,0-0.9-0.5-0.9c-0.1,0-0.2,0-0.5,0.1l-0.3,0.1c-0.4,0.1-0.9,0.1-1.7,0.1h-10.2c-0.8,0-1.8,0-2.6-0.1
		c-0.3,0-0.6-0.1-0.7-0.2c-0.1-0.1-0.3-0.1-0.4-0.1c-0.5,0-0.6,0.5-0.6,0.7c0,0.1-0.6,2.6-0.6,3.1c0,0.6,0.3,0.7,0.6,0.7
		c0.2,0,0.5-0.1,0.6-0.6c0-0.1,0.1-0.4,0.4-0.8c0.3-0.4,0.8-0.6,2.2-0.6l3.5-0.1v10.3c0,2.4,0,4.4-0.1,5.5c-0.1,0.7-0.2,1.1-0.5,1.1
		c-0.2,0-0.5,0.1-0.9,0.1c-0.7,0-0.7,0.4-0.7,0.5c0,0.2,0.1,0.6,0.9,0.6c0.6,0,1.4,0,2.1,0c0.5,0,0.9,0,1.2,0c0.3,0,0.7,0,1.2,0
		c0.8,0,1.8,0.1,2.8,0.1c0.8,0,0.8-0.5,0.8-0.6c0-0.1-0.1-0.5-0.7-0.5c-0.4,0-0.9-0.1-1.3-0.1c-0.5-0.1-0.6-0.3-0.7-1.1
		c-0.1-1.1-0.1-3.1-0.1-5.5V98.4L198.3,98.5"/>
	<path class="st1" d="M72.1,114.3c-0.1,0.8-0.2,0.9-0.5,1c-0.3,0.1-0.6,0.1-0.9,0.1c-0.7,0-0.7,0.4-0.7,0.5c0,0.2,0.1,0.6,0.9,0.6
		c0.6,0,1.4,0,2.1,0c0.5,0,1,0,1.2,0c0.3,0,0.7,0,1.2,0c0.8,0,1.8,0.1,2.8,0.1c0.8,0,0.8-0.5,0.8-0.6c0-0.1-0.1-0.5-0.8-0.5
		c-0.4,0-0.9-0.1-1.3-0.1c-0.5-0.1-0.7-0.3-0.7-1c-0.1-1.1-0.1-3.1-0.1-5.6v-4.6c0-3.9,0-4.6,0.1-5.5c0-0.9,0.2-1.1,0.7-1.2
		c0.3,0,0.5-0.1,0.7-0.1c0.7,0,0.7-0.4,0.7-0.6c0-0.4-0.3-0.5-0.9-0.5c-0.5,0-1.3,0-1.9,0c-0.5,0-1,0-1.3,0c-0.3,0-0.9,0-1.5,0
		c-0.7,0-1.4,0-1.9,0c-0.3,0-1,0-1,0.5c0,0.2,0.1,0.6,0.7,0.6c0.3,0,0.6,0,0.9,0.1c0.3,0.1,0.6,0.2,0.6,1.1c0.1,0.8,0.1,1.5,0.1,5.5
		v4.6C72.2,111.2,72.2,113.2,72.1,114.3"/>
	<path class="st1" d="M90.2,97.4c0.7,0,0.7-0.4,0.7-0.6c0-0.3-0.2-0.6-0.9-0.6c-0.8,0-1.5,0-2.1,0c-0.4,0-0.8,0-1.1,0
		c-0.4,0-0.9,0-1.5,0c-0.7,0-1.5,0-2.3,0c-0.3,0-1,0-1,0.6c0,0.1,0,0.6,0.6,0.6c0.2,0,0.6,0,0.9,0.1c0.8,0.2,1.2,0.4,1.7,1.8
		l6.5,15.8c0.5,1.3,0.7,1.8,1.3,1.8c0.6,0,0.7-0.4,1.3-1.8l0.2-0.3c0.2-0.5,0.6-1.3,1-2.3c0.6-1.4,1.5-3.4,2.4-5.6
		c0.6-1.3,1-2.3,1.4-3.2c0.6-1.3,1.1-2.4,1.7-3.8c0.7-1.6,1-2,1.3-2.2c0.4-0.3,0.9-0.3,1.1-0.3c0.7,0,0.7-0.4,0.7-0.6
		c0-0.4-0.3-0.6-0.9-0.6c-0.4,0-1,0-1.5,0c-0.4,0-0.7,0-0.9,0c-0.1,0-0.3,0-0.6,0c-0.5,0-1.3-0.1-2.2-0.1c-0.3,0-1.1,0-1.1,0.6
		c0,0.2,0.1,0.5,0.8,0.5c0.4,0,0.7,0,0.9,0.1c0.1,0,0.1,0.1,0.1,0.2c0,0.2-0.1,0.5-0.2,0.8c-0.4,1.1-1.9,4.7-3.2,8
		c-0.6,1.6-1.2,3.1-1.7,4.2l-4.2-11.1c-0.5-1.3-0.6-1.7-0.6-1.9c0-0.2,0-0.2,0.1-0.3C89.5,97.5,89.8,97.4,90.2,97.4"/>
	<path class="st1" d="M51.3,108.6c1.1,1.1,2.3,2.3,3.4,3.4c1.7,1.7,3.3,3.3,4.2,4.2c0.3,0.3,0.7,0.7,1.1,0.7c0.7,0,0.7-0.9,0.7-1.1
		L61,99.4c0-1.4,0.2-1.7,0.7-1.9c0.3-0.1,0.4-0.1,0.7-0.1c0.7,0,0.8-0.4,0.8-0.6c0-0.6-0.7-0.6-0.9-0.6c-0.9,0-1.6,0-2.1,0.1
		c-0.2,0-0.4,0-0.5,0c-0.2,0-0.5,0-0.9,0c-0.6,0-1.4-0.1-2.2-0.1c-0.3,0-1,0-1,0.6c0,0.2,0.1,0.6,0.7,0.6c0.3,0,0.9,0,1.2,0.1
		c0.4,0.2,0.6,0.4,0.7,2l0.2,10.9c-0.3-0.4-0.8-0.9-1.4-1.4c-1.3-1.3-2.8-3-3.9-4c-4-3.9-8-8.2-8-8.3l-0.2-0.3
		c-0.3-0.4-0.6-0.6-1-0.6c-0.7,0-0.7,0.9-0.7,1.2l-0.2,15.3c0,2.2-0.1,2.8-0.6,2.9c-0.4,0.1-0.9,0.1-1.1,0.1c-0.7,0-0.7,0.4-0.7,0.5
		c0,0.6,0.7,0.6,0.9,0.6c1,0,1.8,0,2.4-0.1c0.2,0,0.4,0,0.4,0c0.2,0,0.4,0,0.7,0c0.6,0,1.4,0.1,2.5,0.1c0.6,0,0.9-0.2,0.9-0.6
		c0-0.2-0.1-0.5-0.8-0.5c-0.3,0-0.8,0-1.2-0.2c-0.4-0.1-0.6-1-0.7-2.6l-0.3-10c0,0,0,0,0,0C46.8,103.8,49.1,106.3,51.3,108.6"/>
	<path class="st1" d="M136.4,108.5c0.2,0,0.2,0,0.2,0.1c0.2,0.2,0.7,0.9,1.2,1.7c0.4,0.6,0.9,1.3,1.3,1.9c1.6,2.2,2.5,3.3,3.7,3.9
		c0.7,0.4,1.5,0.5,2.9,0.5h2.5c0.7,0,0.8-0.3,0.8-0.6c0-0.3-0.2-0.5-0.6-0.5c-0.2,0-0.4,0-0.7-0.1c-0.4-0.1-1.3-0.3-2.7-1.7
		c-1.3-1.4-2.8-3.3-4.7-5.7l-0.7-0.9c2.3-1.9,3.3-3.7,3.3-5.8c0-1.7-1-3.2-1.9-3.8c-1.5-1-3.3-1.2-4.9-1.2c-0.4,0-1.1,0-1.8,0
		c-0.7,0-1.4,0-1.9,0c-0.2,0-0.6,0-1,0c-0.7,0-1.7-0.1-2.5-0.1c-0.2,0-0.9,0-0.9,0.6c0,0.2,0.1,0.6,0.8,0.6c0.4,0,0.8,0,0.9,0.1
		c0.6,0.1,0.8,0.4,0.8,1.2c0.1,0.8,0.1,1.5,0.1,5.5v4.6c0,2.4,0,4.4-0.1,5.5c-0.1,0.8-0.2,1.1-0.5,1.1c-0.2,0-0.5,0.1-0.9,0.1
		c-0.7,0-0.7,0.4-0.7,0.5c0,0.2,0.1,0.6,0.9,0.6c0.6,0,1.4,0,2.1,0c0.5,0,0.8,0,1,0c0.1,0,0.4,0,0.8,0c0.8,0,2,0.1,3,0.1
		c0.8,0,0.9-0.4,0.9-0.6c0-0.3-0.2-0.5-0.6-0.5c-0.3,0-0.9-0.1-1.2-0.1c-0.5-0.1-0.6-0.3-0.7-1.1c-0.1-1.1-0.1-3.1-0.1-5.5v-0.2
		L136.4,108.5 M134.3,98.3c0.3-0.1,0.9-0.1,1.3-0.1c1.3,0,3.6,0.9,3.6,4.4c0,2.3-0.9,3.2-1.4,3.6c-0.4,0.3-0.6,0.4-1.6,0.4
		c-0.7,0-1.4-0.1-1.8-0.2c0,0,0,0,0-0.2L134.3,98.3z"/>
	<path class="st1" d="M110.2,114.2c-0.1,0.8-0.2,1.1-0.5,1.1c-0.2,0-0.5,0.1-0.9,0.1c-0.7,0-0.7,0.3-0.7,0.5c0,0.2,0.1,0.6,0.8,0.6
		c0.3,0,0.5,0,0.8,0c0.3,0,0.6,0,1,0c0.6,0,1.2,0,1.5,0c0,0,0,0,0,0c0.7,0,1.5,0,2.7,0.1l0.7,0c1,0,2.2,0.1,3.7,0.1
		c1,0,1.5,0,1.7-0.9c0.1-0.5,0.3-2.3,0.3-3c0-0.2,0-0.8-0.5-0.8c-0.5,0-0.6,0.4-0.6,0.7c-0.2,1-0.4,1.4-1,1.7
		c-0.6,0.3-1.7,0.3-2.3,0.3c-2.6,0-2.7-0.4-2.8-1.9c0-0.5,0-1.9,0-2.9l0-3c0.9,0,3,0,3.5,0.1c0.9,0.1,1.1,0.4,1.2,0.7
		c0.1,0.2,0.1,0.4,0.1,0.6l0,0.2c0,0.3,0.2,0.6,0.6,0.6c0.4,0,0.6-0.3,0.6-0.8c0-0.1,0-0.4,0-0.8c0-0.3,0-0.7,0.1-0.9
		c0.1-0.9,0.1-1.3,0.2-1.6c0-0.2,0-0.3,0-0.3c0-0.3-0.2-0.5-0.5-0.5c-0.3,0-0.4,0.2-0.7,0.4c-0.1,0.2-0.4,0.2-1,0.3
		c-0.4,0-1.8,0.1-4,0.1l0-6.4c0.8,0,3.1,0.1,3.5,0.1c1.2,0.1,1.3,0.4,1.5,0.7c0.1,0.2,0.1,0.6,0.1,0.8c0,0.6,0.4,0.7,0.6,0.7
		c0.2,0,0.5-0.1,0.6-0.6c0-0.2,0.1-0.7,0.1-1.2c0-0.2,0-0.4,0-0.5c0-0.8,0.1-1.2,0.2-1.4c0-0.1,0-0.2,0-0.3c0-0.5-0.4-0.6-0.5-0.6
		c-0.1,0-0.2,0-0.4,0.1c0,0-0.1,0-0.1,0c-0.2,0.1-0.7,0.1-1,0.1c-0.3,0-2.7,0-6.4,0c-0.3,0-0.8,0-1.4,0l-0.2,0c-0.3,0-0.7,0-1,0
		c-0.4,0-0.7,0-1.1,0c-0.2,0-0.9,0-0.9,0.6c0,0.2,0.1,0.6,0.8,0.6c0.4,0,0.8,0,0.9,0.1c0.6,0.1,0.8,0.4,0.8,1.2
		c0.1,0.8,0.1,1.5,0.1,5.5v4.6C110.4,111.1,110.4,113.1,110.2,114.2"/>
	<path class="st1" d="M224.8,96.3c-0.2,0-0.8,0-1.3,0c-0.6,0-1.2,0-1.5,0c-0.4,0-0.7,0-1.1,0c-0.4,0-0.9,0-1.3,0
		c-0.5,0-0.8,0.2-0.8,0.6c0,0.4,0.5,0.5,0.7,0.6c0.2,0.1,0.3,0.2,0.3,0.3c0,0.3-0.1,0.7-0.3,1.2c-0.2,0.4-1.1,2-2,3.6
		c-0.7,1.2-1.3,2.3-1.6,3l-0.2-0.4c-1.1-1.8-3.5-6.1-3.8-6.7c-0.2-0.4-0.3-0.6-0.3-0.7c0,0,0-0.1,0.1-0.1l0.1,0
		c0.3-0.1,0.7-0.2,0.7-0.6c0-0.1,0-0.6-0.7-0.6c-0.7,0-1.4,0-1.9,0c-0.4,0-0.7,0-0.9,0c-0.5,0-1.3,0-2.1,0c-0.5,0-1,0-1.2,0
		c-0.8,0-0.8,0.4-0.8,0.6c0,0.1,0,0.6,0.7,0.6c0.2,0,0.6,0.1,0.9,0.3c0.5,0.3,1.1,0.9,1.7,1.8c0.9,1.4,4.4,7,4.5,7.4
		c0.3,0.7,0.6,1.3,0.6,2.6v2.1c0,0.4,0,1.5-0.1,2.6c0,0.4-0.1,1-0.5,1.1c-0.3,0.1-0.6,0.1-0.8,0.1c-0.7,0-0.7,0.4-0.7,0.5
		c0,0.6,0.7,0.6,0.9,0.6c0.5,0,1.3,0,1.9,0c0.5,0,1,0,1.3,0c0.3,0,0.7,0,1.2,0c0.8,0,1.8,0.1,2.8,0.1c0.8,0,0.9-0.4,0.9-0.6
		c0-0.1-0.1-0.5-0.7-0.5c-0.4,0-0.9-0.1-1.2-0.1c-0.4-0.1-0.7-0.3-0.8-1.1c-0.1-1.1-0.1-2.2-0.1-2.6v-2.1c0-0.9,0-1.6,0.4-2.5
		c0.4-1.1,4-7.1,4.9-8.1c0.5-0.7,0.8-0.9,1.3-1.2c0.3-0.2,0.8-0.3,1-0.3c0.8,0,0.8-0.5,0.8-0.6C225.6,96.7,225.5,96.3,224.8,96.3"/>
	<path class="st1" d="M172.4,114.3c-0.1,0.8-0.2,0.9-0.5,1c-0.2,0-0.5,0.1-0.9,0.1c-0.7,0-0.7,0.4-0.7,0.5c0,0.2,0.1,0.6,0.9,0.6
		c0.6,0,1.4,0,2.1,0c0.5,0,1,0,1.2,0c0.3,0,0.7,0,1.2,0c0.8,0,1.8,0.1,2.8,0.1c0.8,0,0.8-0.5,0.8-0.6c0-0.1-0.1-0.5-0.7-0.5
		c-0.4,0-0.9-0.1-1.3-0.1c-0.5-0.1-0.7-0.3-0.7-1c-0.1-1.1-0.1-3.1-0.1-5.6v-4.6c0-3.9,0-4.6,0.1-5.5c0.1-0.9,0.2-1.1,0.7-1.2
		c0.3,0,0.5-0.1,0.7-0.1c0.7,0,0.8-0.4,0.8-0.6c0-0.4-0.3-0.5-0.9-0.5c-0.5,0-1.3,0-1.9,0c-0.5,0-1,0-1.3,0c-0.3,0-0.9,0-1.5,0
		c-0.7,0-1.4,0-1.9,0c-0.3,0-1,0-1,0.5c0,0.2,0.1,0.6,0.7,0.6c0.3,0,0.6,0,0.9,0.1c0.3,0.1,0.6,0.2,0.6,1.1c0.1,0.8,0.1,1.5,0.1,5.5
		v4.6C172.5,111.2,172.5,113.2,172.4,114.3"/>
	<path class="st1" d="M19.2,115c2.1,1.9,4.8,1.9,6,1.9c1.6,0,3.6-0.2,5.6-1.9c2.3-1.9,2.6-5,2.6-8v-2.8c0-3.9,0-4.6,0.1-5.5
		c0.1-0.9,0.3-1.1,0.7-1.2c0.3,0,0.4-0.1,0.7-0.1c0.7,0,0.8-0.3,0.8-0.6c0-0.6-0.7-0.6-0.9-0.6c-0.7,0-1.6,0-2.2,0.1
		c-0.4,0-0.6,0-0.8,0c-1.4-0.1-2.4-0.1-2.9-0.1c-0.2,0-0.9,0-0.9,0.6c0,0.2,0.1,0.6,0.8,0.6c0.3,0,0.7,0,0.9,0.1
		c0.6,0.1,0.8,0.4,0.8,1.2c0.1,0.8,0.1,1.5,0.1,5.5v3.2c0,2.7-0.1,4.9-1.4,6.2c-1.2,1.2-2.7,1.3-3.3,1.3c-0.9,0-2-0.1-3-1
		c-1-0.8-1.9-2.1-1.9-6.1v-3.6c0-3.9,0-4.6,0.1-5.5c0.1-0.9,0.3-1.1,0.7-1.2c0.3,0,0.4-0.1,0.7-0.1c0.7,0,0.7-0.4,0.7-0.6
		c0-0.6-0.7-0.6-0.9-0.6c-0.5,0-1.2,0-1.9,0c-0.5,0-1,0-1.3,0c-0.3,0-0.8,0-1.4,0c-0.7,0-1.6,0-2.4,0c-0.2,0-0.9,0-0.9,0.6
		c0,0.2,0.1,0.6,0.8,0.6c0.4,0,0.8,0,0.9,0.1c0.6,0.1,0.8,0.4,0.8,1.2c0.1,0.8,0.1,1.5,0.1,5.5v3.8C16.8,111.3,17.6,113.5,19.2,115"
		/>
	<path class="st1" d="M156.6,115c-1,0-2.8-0.3-3.4-2.4c-0.1-0.4-0.2-0.9-0.2-1.2c0-0.7-0.4-0.8-0.6-0.8c-0.6,0-0.6,0.7-0.6,1
		c0,0.5-0.1,2-0.1,3.4c0,0.7,0.1,0.9,0.7,1.2c1.1,0.5,2.3,0.7,3.9,0.7c1.7,0,3.1-0.4,4.3-1.1c2.2-1.5,2.6-3.6,2.6-4.8
		c0-2.6-1.2-4.5-4.4-6.9l-0.7-0.5c-2.2-1.7-2.6-2.5-2.6-3.5c0-1.4,1.1-2.3,2.7-2.3c1.5,0,2.2,0.7,2.6,1.1c0.5,0.6,0.6,1.3,0.6,1.5
		c0,0.7,0.4,0.8,0.6,0.8c0.6,0,0.6-0.8,0.6-1.1c0-1.4,0.1-2.2,0.1-2.7c0-0.2,0-0.3,0-0.4c0-0.3-0.2-0.5-0.6-0.6
		c-0.8-0.2-1.9-0.4-3.5-0.4c-3.7,0-6.3,2.1-6.3,5.2c0,2.3,1.2,4.2,4,6.4l1.2,0.9c2,1.6,2.4,2.6,2.4,3.9
		C159.8,113.7,158.7,115,156.6,115"/>
	<path class="st1" d="M164.6,86c0-0.2-0.2-0.3-0.5-0.3c-0.4,0-0.9,0-1.5-0.1c-0.7-0.2-1.8-0.7-3.1-3.8c-2.2-5.3-7.9-19.7-8.7-21.6
		c-0.4-0.8-0.6-1.1-0.9-1.1c-0.4,0-0.6,0.4-1,1.4l-8.8,22.1c-0.7,1.8-1.4,3-3,3.2c-0.3,0-0.8,0.1-1.1,0.1c-0.3,0-0.4,0.1-0.4,0.3
		c0,0.3,0.2,0.4,0.7,0.4c1.8,0,3.8-0.1,4.1-0.1c1.1,0,2.6,0.1,3.7,0.1c0.4,0,0.6-0.1,0.6-0.4c0-0.2-0.1-0.3-0.5-0.3h-0.5
		c-1.1,0-1.4-0.5-1.4-1.1c0-0.4,0.2-1.3,0.5-2.1l1.9-5c0.1-0.2,0.1-0.3,0.3-0.3h7.8c0.2,0,0.3,0.1,0.4,0.2l2.8,7.5
		c0.2,0.4-0.1,0.7-0.3,0.8c-0.4,0-0.5,0.1-0.5,0.3c0,0.2,0.4,0.2,1.1,0.3c2.8,0.1,5.4,0.1,6.6,0.1C164.3,86.3,164.6,86.3,164.6,86
		 M152.2,75.4h-6.5c-0.1,0-0.2-0.1-0.1-0.2l3.2-8.6c0-0.1,0.1-0.3,0.2-0.3c0.1,0,0.1,0.2,0.2,0.3l3.2,8.7
		C152.5,75.3,152.4,75.4,152.2,75.4z"/>
	<path class="st1" d="M41.9,83.6c-0.1,1-0.3,1.8-1,1.9c-0.3,0.1-0.7,0.1-1.3,0.1c-0.4,0-0.6,0.1-0.6,0.3c0,0.2,0.2,0.4,0.7,0.4
		c0.7,0,1.6-0.1,2.4-0.1c0.8,0,1.6,0,2,0c1.1,0,2.1,0,3.7,0.1c1.5,0,3.4,0.1,6.1,0.1c1.3,0,1.7,0,1.9-0.9c0.2-0.7,0.5-3.1,0.5-3.9
		c0-0.4,0-0.6-0.3-0.6c-0.2,0-0.3,0.1-0.4,0.5c-0.2,1.4-0.7,2.2-1.6,2.6c-0.9,0.4-2.4,0.4-3.3,0.4c-3.6,0-4.1-0.5-4.2-3
		c0-1,0-4.3,0-5.5v-2.8c0-0.2,0-0.4,0.2-0.4c0.8,0,4.3,0,5,0.1c1.3,0.1,1.8,0.7,2,1.4c0.1,0.5,0.1,0.9,0.1,1.3
		c0,0.2,0.1,0.3,0.3,0.3c0.3,0,0.3-0.4,0.3-0.7c0-0.2,0.1-1.7,0.1-2.4c0.1-1.8,0.3-2.4,0.3-2.6s-0.1-0.3-0.2-0.3
		c-0.2,0-0.3,0.2-0.6,0.5c-0.3,0.4-0.8,0.5-1.7,0.5c-0.8,0.1-4.9,0.1-5.6,0.1c-0.2,0-0.2-0.1-0.2-0.4V62c0-0.2,0.1-0.4,0.2-0.4
		c0.7,0,4.4,0.1,5,0.1c1.8,0.2,2.1,0.6,2.4,1.3c0.2,0.4,0.2,1,0.2,1.3c0,0.3,0.1,0.5,0.3,0.5c0.2,0,0.3-0.2,0.4-0.4
		c0.1-0.4,0.1-2,0.2-2.3c0.1-1.6,0.3-2,0.3-2.3c0-0.2,0-0.3-0.2-0.3c-0.2,0-0.4,0.1-0.6,0.1c-0.3,0.1-0.8,0.1-1.5,0.2
		c-0.7,0-7.7,0-8.8,0c-0.5,0-1.3,0-2.2-0.1c-0.9,0-1.9,0-2.8,0c-0.5,0-0.8,0.1-0.8,0.3c0,0.2,0.2,0.3,0.6,0.3c0.5,0,1.1,0,1.4,0.1
		c1.2,0.2,1.4,0.8,1.5,2c0.1,1.1,0.1,2.1,0.1,7.5v6.2C42.1,79.4,42.1,82.1,41.9,83.6"/>
	<path class="st1" d="M216.3,85.3c-0.2,0.1-0.4,0.2-0.4,0.4c0,0.2,0.2,0.3,1,0.4c1.4,0.1,6.3,0.2,7.1,0.2c0.5,0,0.9-0.1,0.9-0.4
		c0-0.2-0.2-0.2-0.6-0.2c-0.5,0-1.2,0-2.2-0.4c-1.1-0.3-1.4-1.3-1.7-3.5l-3.2-21.7c-0.1-0.7-0.3-1.1-0.6-1.1c-0.3,0-0.5,0.3-0.8,0.8
		l-9.6,20.1l-9.6-19.8c-0.5-0.9-0.7-1.1-0.9-1.1c-0.3,0-0.5,0.3-0.6,0.9l-3.5,22.9c-0.1,0.9-0.3,1.9-0.9,2.5
		c-0.7-0.2-1.3-0.5-1.8-0.8c-0.9-0.6-2.5-1.5-4.9-3.4c2-2.4,3.4-5.6,3.4-8.3c0-0.4-0.5-0.6-1.2-0.7c-2-0.2-3.4-0.2-4.2-0.2
		c-0.3,0-0.6,0.1-0.6,0.4c0,0.2,0.2,0.3,0.4,0.3c0.5,0,1.3,0.1,1.7,0.5c0.5,0.5,0.7,1.1,0.7,1.6c0,2.1-1,4.4-1.7,5.4
		c-0.7-0.6-5-4.5-6.2-5.9c-2.8-3.1-5.8-5.9-5.8-9.2c0-3,2.3-4,3.8-4c2,0,3.2,0.7,3.9,1.6c0.8,0.9,1,2,1,3c0,0.5,0,0.7,0.2,0.7
		c0.2,0,0.4-0.1,0.4-0.6c0.1-0.5,0.4-3.3,0.4-4.5c0-0.4,0-0.7-0.6-0.9c-0.9-0.4-2.5-0.7-4.3-0.7c-6.1,0-8.6,3.7-8.5,6.5
		c0,1.6,0.3,3,1.8,5c-2.1,1-5.7,4.2-5.7,8.3c0,3.1,2.3,7.8,9.8,7.8c4.8,0,7.2-2.1,8.3-3.2c3,2.3,4.2,2.7,8.1,2.7c0,0,0,0,0,0
		c0,0,0.1,0,0.1,0c0,0,0.1,0,0.1,0h2.7c0.4,0,0.7,0,0.9-0.1c0.8,0,2.1,0.1,3.4,0.1c0.5,0,0.8-0.1,0.8-0.4c0-0.2-0.2-0.2-0.5-0.2
		c-0.4,0-0.8,0-1.5-0.2c-0.6-0.1-1.1-0.5-1.1-1.1c0-0.6,0-1,0.1-1.7l1.8-14h0.1c1.2,2.6,3.3,7.1,3.7,7.8c0.4,1,3.2,6.4,4,8
		c0.6,1.1,0.9,1.8,1.2,1.8c0.3,0,0.5-0.3,1.3-2l7.7-16h0.1l2.1,15.5C216.6,84.8,216.5,85.3,216.3,85.3 M174.1,84.6
		c-3.7,0-6.7-2.8-6.7-7.2c0-2.8,1.2-4.5,2.4-5.3c0.6,0.9,2.8,3.4,3.8,4.4c0.9,1,4.3,4.3,6.3,6C179.1,83.2,176.8,84.6,174.1,84.6z"/>
	<path class="st1" d="M110.7,86c0-0.2-0.2-0.3-0.5-0.3c-0.4,0-1,0-1.5-0.1c-0.7-0.2-1.8-0.7-3.1-3.8c-2.2-5.3-7.9-19.7-8.7-21.6
		c-0.4-0.8-0.6-1.1-0.9-1.1c-0.4,0-0.6,0.4-1,1.4l-8.8,22.1c-0.7,1.7-1.3,2.8-2.7,3.1c-0.1,0-0.2,0-0.3-0.1c-0.9-0.3-1.4-0.7-2-1.5
		c-0.9-1.1-6.6-10.6-7.7-12.4l5.8-8.3c1.1-1.5,1.8-2.5,2.6-2.7c0.5-0.1,0.9-0.2,1.3-0.2c0.4,0,0.6-0.1,0.6-0.3
		c0-0.2-0.2-0.3-0.6-0.3c-1.3,0-2.7,0.1-3.4,0.1c-0.7,0-2.1-0.1-3.5-0.1c-0.5,0-0.7,0.1-0.7,0.3c0,0.2,0.2,0.3,0.4,0.3
		c0.3,0,0.8,0,1.1,0.1c0.4,0.1,0.6,0.4,0.6,0.6c0,0.3-0.1,0.8-0.4,1.3c-0.5,1-3.8,5.9-4.8,7.4c-1.4-2.4-3-5-4.5-7.8
		c-0.2-0.4-0.4-0.8-0.4-1c0-0.2,0.1-0.5,0.4-0.6c0.3-0.1,0.7-0.1,0.9-0.1c0.3,0,0.5-0.1,0.5-0.3c0-0.2-0.2-0.3-0.7-0.3
		c-1.3,0-3.3,0.1-3.8,0.1c-1.7,0-4.5-0.1-5.3-0.1c-0.5,0-0.7,0.1-0.7,0.3c0,0.2,0.1,0.4,0.4,0.4c0.4,0,0.9,0.1,1.5,0.2
		c1.2,0.4,2.1,1.2,2.9,2.6l6,10L63,82.9c-1.2,1.7-1.9,2.4-2.9,2.6c-0.5,0.1-1.1,0.2-1.3,0.2c-0.3,0-0.5,0.1-0.5,0.3
		c0,0.2,0.2,0.3,0.5,0.3h0.6c0.6,0,2.3-0.1,3-0.1c0.9,0,3.1,0.1,3.3,0.1h0.6c0.5,0,0.7-0.1,0.7-0.3c0-0.2-0.2-0.3-0.4-0.3
		c-0.3,0-0.6,0-0.8-0.1c-0.3-0.1-0.6-0.3-0.7-0.6c0-0.4,0.1-0.9,0.5-1.5l5.2-8.4c1.6,2.6,3.6,6.1,5.6,9.6c0.2,0.5,0.1,0.8-0.1,0.8
		c-0.3,0.1-0.5,0.2-0.5,0.4c0,0.2,0.3,0.3,1.2,0.3c2.1,0.1,4.2,0.1,5.5,0.1c0,0,0,0,0,0c0,0,0.1,0,0.1,0c0.3,0,0.6,0,0.7,0h1.1
		c0.1,0,0.2,0,0.3,0c0.9,0,1.7-0.1,1.9-0.1c1.1,0,2.6,0.1,3.7,0.1c0.4,0,0.6-0.1,0.6-0.4c0-0.2-0.1-0.3-0.5-0.3h-0.5
		c-1.1,0-1.4-0.5-1.4-1.1c0-0.4,0.2-1.3,0.5-2.1l1.9-5c0.1-0.2,0.1-0.3,0.3-0.3h7.8c0.2,0,0.3,0.1,0.4,0.2l2.8,7.5
		c0.2,0.4-0.1,0.7-0.3,0.8c-0.4,0-0.5,0.1-0.5,0.3c0,0.2,0.4,0.2,1.1,0.3c2.8,0.1,5.4,0.1,6.6,0.1C110.4,86.3,110.7,86.3,110.7,86
		 M98.4,75.4h-6.5c-0.1,0-0.2-0.1-0.1-0.2l3.2-8.6c0-0.1,0.1-0.3,0.2-0.3c0.1,0,0.1,0.2,0.2,0.3l3.2,8.7
		C98.6,75.3,98.6,75.4,98.4,75.4z"/>
	<path class="st1" d="M35.3,59.5c-0.1,0-0.4,0.1-0.9,0.2c-0.5,0.1-1.3,0.2-2.4,0.2H18c-1.2,0-2.5-0.1-3.5-0.2
		c-0.9-0.1-1.2-0.4-1.5-0.4c-0.2,0-0.3,0.2-0.4,0.7c-0.1,0.3-0.7,3.5-0.7,4c0,0.4,0.1,0.6,0.3,0.6c0.2,0,0.3-0.1,0.4-0.4
		c0.1-0.3,0.2-0.7,0.6-1.2c0.5-0.8,1.4-0.9,3.4-1l5.2-0.1v14.4c0,3.2,0,6-0.2,7.5c-0.1,1-0.3,1.8-1,1.9c-0.3,0.1-0.7,0.1-1.3,0.1
		c-0.4,0-0.6,0.1-0.6,0.3c0,0.2,0.2,0.4,0.7,0.4c1.4,0,3.6-0.1,4.4-0.1c1,0,3.2,0.1,5.5,0.1c0.4,0,0.7-0.1,0.7-0.4
		c0-0.2-0.2-0.3-0.6-0.3c-0.5,0-1.3-0.1-1.8-0.1c-1.1-0.1-1.3-0.9-1.4-1.9c-0.2-1.5-0.2-4.3-0.2-7.5V61.7l4.4,0.1
		c3.1,0.1,4.1,1.1,4.1,2l0,0.4c0,0.5,0.1,0.7,0.4,0.7c0.2,0,0.3-0.2,0.3-0.6c0-0.9,0.1-3.3,0.1-4.1C35.6,59.7,35.6,59.5,35.3,59.5"
		/>
	<path class="st1" d="M126.2,79.3c0-3.3-1.5-5.8-5.8-9l-1-0.7c-2.9-2.2-3.7-3.4-3.7-5.1c0-2.1,1.6-3.6,4.2-3.6
		c2.3,0,3.3,1.1,3.8,1.7c0.7,0.9,0.9,2,0.9,2.3c0,0.4,0.1,0.6,0.4,0.6c0.3,0,0.4-0.3,0.4-1.1c0-2.7,0.1-3.8,0.1-4.2
		c0-0.2-0.2-0.4-0.5-0.4c-0.9-0.2-2.4-0.6-4.7-0.6c-4.9,0-8.1,2.8-8.1,6.6c0,2.8,1.3,5.3,5.2,8.3l1.6,1.3c2.9,2.3,3.4,3.9,3.4,5.6
		c0,1.9-1.5,4-4.7,4c-2.2,0-4.3-0.9-5-3.5c-0.2-0.6-0.3-1.3-0.3-1.8c0-0.3,0-0.6-0.4-0.6c-0.3,0-0.4,0.4-0.4,0.9
		c0,0.6-0.2,2.7-0.2,4.6c0,0.8,0.1,0.9,0.7,1.2c1.5,0.7,3.1,0.9,5.1,0.9c1.9,0,3.8-0.3,5.6-1.4C125.4,83.7,126.2,81.3,126.2,79.3"/>
	<path class="st1" d="M179.8,152.5c-0.3,0-0.8,0-1.5-0.2c-0.5-0.2-0.8-0.7-1-2.3l-2.3-15.7c-0.1-0.7-0.4-1.1-0.8-1.1
		c-0.5,0-0.7,0.4-0.9,0.8l-6.6,13.9l-6.6-13.7c-0.3-0.7-0.6-1-1-1c-0.2,0-0.6,0.1-0.8,0.9l-2.5,16.6c-0.1,0.8-0.3,1.6-0.8,1.7
		c-0.3,0.1-0.5,0.1-0.7,0.1c-0.7,0-0.7,0.4-0.7,0.5c0,0.2,0.1,0.6,0.8,0.6c0.5,0,1.1,0,1.6,0c0.4,0,0.7,0,0.9,0c0.2,0,0.5,0,0.8,0
		c0.5,0,1.2,0.1,1.9,0.1c0.2,0,0.9,0,0.9-0.6c0-0.1,0-0.5-0.7-0.5c-0.3,0-0.6,0-1-0.1c-0.4-0.1-0.5-0.3-0.5-0.5c0-0.4,0-0.7,0.1-1.1
		l1.2-9.1c0.2,0.5,0.5,1.1,0.8,1.6c0.7,1.5,1.3,2.8,1.5,3.2c0.3,0.8,2.4,4.8,2.9,5.8l0.1,0.1c0.5,0.9,0.7,1.3,1.1,1.3
		c0.5,0,0.6-0.3,1.2-1.6l5.1-10.7l1.4,10.2c0.1,0.5,0,0.7,0,0.8c-0.2,0.1-0.4,0.2-0.4,0.6c0,0.5,0.6,0.6,1,0.6
		c1,0.1,4.5,0.2,5.2,0.2c0.9,0,1-0.4,1-0.6C180.5,152.7,180.4,152.5,179.8,152.5"/>
	<path class="st1" d="M147.9,149.1c-0.5,0-0.6,0.4-0.6,0.7c-0.2,1-0.4,1.4-1,1.6c-0.6,0.3-1.6,0.3-2.2,0.3c-2.6,0-2.7-0.3-2.7-1.8
		c0-0.5,0-1.8,0-2.9l0-3c0.8,0,3,0,3.4,0.1c0.9,0.1,1.1,0.4,1.1,0.7c0.1,0.2,0.1,0.4,0.1,0.6l0,0.2c0,0.3,0.2,0.6,0.6,0.6
		c0.4,0,0.6-0.3,0.6-0.8c0-0.1,0-0.5,0.1-0.9l0-0.8c0.1-0.8,0.1-1.3,0.2-1.6c0-0.2,0-0.3,0-0.3c0-0.3-0.2-0.5-0.5-0.5
		c-0.3,0-0.4,0.2-0.7,0.4c-0.1,0.2-0.5,0.2-1,0.3c-0.4,0-1.8,0-3.9,0.1l0-6.3c0.8,0,3,0.1,3.4,0.1c1.2,0.1,1.3,0.4,1.4,0.7
		c0.1,0.2,0.1,0.6,0.1,0.8c0,0.6,0.4,0.7,0.6,0.7c0.1,0,0.5-0.1,0.6-0.6c0-0.2,0.1-0.7,0.1-1.2c0-0.2,0-0.4,0-0.6
		c0-0.8,0.1-1.1,0.2-1.4c0-0.1,0-0.2,0-0.3c0-0.5-0.4-0.6-0.5-0.6c-0.1,0-0.2,0-0.4,0.1c0,0-0.1,0-0.1,0c-0.2,0.1-0.8,0.1-1,0.1
		c-0.3,0-2.7,0-6.3,0c-0.3,0-0.8,0-1.3,0l-0.3,0c-0.3,0-0.6,0-1,0c-0.4,0-0.7,0-1.1,0c-0.2,0-0.9,0-0.9,0.6c0,0.2,0.1,0.6,0.8,0.6
		c0.4,0,0.8,0,0.9,0.1c0.6,0.1,0.8,0.3,0.8,1.1c0.1,0.8,0.1,1.5,0.1,5.4v4.5c0,2.3,0,4.3-0.1,5.4c-0.1,0.8-0.2,1.1-0.5,1.1
		c-0.3,0.1-0.6,0.1-0.8,0.1c-0.7,0-0.7,0.4-0.7,0.5c0,0.2,0.1,0.6,0.8,0.6c0.2,0,0.5,0,0.8,0c0.3,0,0.6,0,0.9,0c0.6,0,1.2,0,1.4,0
		c0,0,0,0,0,0c0.7,0,1.5,0,2.6,0.1l0.8,0c1,0,2.1,0.1,3.6,0.1c1,0,1.4,0,1.7-0.9c0.1-0.5,0.3-2.3,0.3-2.9
		C148.5,149.6,148.5,149.1,147.9,149.1"/>
	<path class="st1" d="M129.2,133.5c-0.1,0-0.2,0-0.5,0.1l-0.3,0.1c-0.4,0.1-0.9,0.1-1.7,0.1h-10.1c-0.8,0-1.8,0-2.5-0.1
		c-0.3,0-0.5-0.1-0.7-0.2c-0.1-0.1-0.3-0.1-0.4-0.1c-0.5,0-0.6,0.5-0.6,0.7c0,0.2-0.5,2.5-0.5,3c0,0.6,0.3,0.7,0.6,0.7
		c0.2,0,0.5-0.1,0.6-0.6c0-0.1,0.1-0.4,0.4-0.8c0.3-0.4,0.8-0.5,2.2-0.6l3.4-0.1v10.1c0,2.3,0,4.3-0.1,5.4c-0.1,0.7-0.2,1.1-0.5,1.1
		c-0.2,0-0.5,0.1-0.8,0.1c-0.7,0-0.7,0.4-0.7,0.5c0,0.2,0.1,0.6,0.8,0.6c0.6,0,1.4,0,2,0c0.5,0,0.9,0,1.2,0c0.3,0,0.7,0,1.2,0
		c0.8,0,1.8,0.1,2.8,0.1c0.8,0,0.8-0.5,0.8-0.6c0-0.1-0.1-0.5-0.7-0.5c-0.4,0-0.9,0-1.2-0.1c-0.5-0.1-0.6-0.3-0.7-1.1
		c-0.1-1.1-0.1-3.1-0.1-5.4v-10.1l2.9,0.1c1.6,0,2.6,0.4,2.7,1.1l0,0.3c0,0.3,0.1,0.8,0.6,0.8c0.3,0,0.5-0.2,0.6-0.7
		c0-0.3,0-1,0-1.6c0-0.6,0-1.1,0-1.3C129.7,134.1,129.7,133.5,129.2,133.5"/>
	<path class="st1" d="M101.7,141.4l-0.7-0.5c-2.2-1.6-2.6-2.4-2.6-3.4c0-1.4,1.1-2.3,2.7-2.3c1.5,0,2.1,0.6,2.5,1.1
		c0.5,0.6,0.6,1.3,0.6,1.5c0,0.7,0.4,0.8,0.6,0.8c0.6,0,0.6-0.7,0.6-1.1c0-1.4,0-2.2,0.1-2.6c0-0.2,0-0.3,0-0.4
		c0-0.3-0.2-0.5-0.6-0.6c-0.8-0.2-1.8-0.4-3.5-0.4c-3.6,0-6.2,2.1-6.2,5.1c0,2.3,1.2,4.2,3.9,6.3l1.2,0.9c2,1.5,2.4,2.6,2.4,3.8
		c0,1.3-1.1,2.6-3.1,2.6c-1,0-2.7-0.3-3.3-2.3c-0.1-0.4-0.2-0.9-0.2-1.2c0-0.7-0.4-0.8-0.6-0.8c-0.6,0-0.6,0.7-0.6,1l0,0.2
		c0,0.6-0.1,1.9-0.1,3.2c0,0.6,0.1,0.9,0.7,1.2c1.1,0.5,2.2,0.7,3.8,0.7c1.7,0,3.1-0.4,4.2-1.1c2.2-1.4,2.5-3.6,2.5-4.7
		C106,145.6,104.8,143.8,101.7,141.4"/>
	<path class="st1" d="M90.4,133.7c-0.2,0-0.7,0-1.3,0c-0.6,0-1.1,0-1.4,0c-0.4,0-0.7,0-1.1,0c-0.4,0-0.8,0-1.3,0
		c-0.5,0-0.8,0.2-0.8,0.6c0,0.4,0.5,0.5,0.7,0.6c0.2,0.1,0.3,0.2,0.3,0.3c0,0.3-0.1,0.7-0.3,1.2c-0.2,0.4-1.1,2-1.9,3.5
		c-0.7,1.3-1.3,2.3-1.6,2.9l-0.1-0.2c-1-1.7-3.6-6.2-3.9-6.8c-0.2-0.4-0.3-0.6-0.3-0.7c0,0,0-0.1,0.1-0.1l0.1,0
		c0.3-0.1,0.7-0.2,0.7-0.6c0-0.1,0-0.6-0.7-0.6c-0.7,0-1.3,0-1.9,0c-0.4,0-0.6,0-0.9,0c-0.5,0-1.3,0-2,0c-0.5,0-1,0-1.2,0
		c-0.8,0-0.8,0.4-0.8,0.6c0,0.1,0,0.6,0.7,0.6c0.2,0,0.6,0.1,0.9,0.3c0.5,0.3,1.1,0.9,1.6,1.8c0.9,1.3,4.3,6.9,4.4,7.3
		c0.3,0.7,0.5,1.2,0.5,2.5v2.1c0,0.4,0,1.5-0.1,2.5c0,0.4-0.1,1-0.5,1.1c-0.3,0.1-0.6,0.1-0.8,0.1c-0.7,0-0.7,0.4-0.7,0.5
		c0,0.4,0.3,0.6,0.9,0.6c0.5,0,1.2,0,1.9,0c0.5,0,1,0,1.3,0c0.3,0,0.7,0,1.2,0c0.8,0,1.7,0.1,2.7,0.1c0.8,0,0.9-0.4,0.9-0.6
		c0-0.1-0.1-0.5-0.7-0.5c-0.3,0-0.9,0-1.2-0.1c-0.4-0.1-0.7-0.3-0.8-1.1c-0.1-1.1-0.1-2.1-0.1-2.5v-2.1c0-0.8,0-1.6,0.4-2.4
		c0.4-1,3.9-7,4.8-8c0.5-0.7,0.8-0.9,1.3-1.2c0.3-0.2,0.8-0.3,1-0.3c0.8,0,0.8-0.5,0.8-0.6C91.2,134.1,91.1,133.7,90.4,133.7"/>
	<path class="st1" d="M63.3,141.4l-0.7-0.5c-2.2-1.6-2.6-2.4-2.6-3.4c0-1.4,1.1-2.3,2.7-2.3c1.4,0,2.1,0.6,2.5,1.1
		c0.5,0.6,0.6,1.3,0.6,1.5c0,0.7,0.4,0.8,0.6,0.8c0.6,0,0.6-0.7,0.6-1.1c0-1.4,0-2.2,0.1-2.6c0-0.2,0-0.3,0-0.4
		c0-0.3-0.2-0.5-0.6-0.6c-0.8-0.2-1.9-0.4-3.5-0.4c-3.7,0-6.2,2.1-6.2,5.1c0,2.3,1.2,4.2,3.9,6.3l1.2,0.9c2,1.5,2.4,2.6,2.4,3.8
		c0,1.3-1.1,2.6-3.1,2.6c-1,0-2.7-0.3-3.3-2.3c-0.1-0.4-0.2-0.9-0.2-1.2c0-0.7-0.4-0.8-0.6-0.8c-0.6,0-0.6,0.7-0.6,1l0,0.1
		c0,0.5-0.1,1.9-0.1,3.3c0,0.6,0.1,0.9,0.7,1.2c1.1,0.5,2.2,0.7,3.8,0.7c1.7,0,3.1-0.4,4.2-1.1c2.2-1.4,2.5-3.6,2.5-4.7
		C67.6,145.6,66.5,143.8,63.3,141.4"/>
	<rect x="11.6" y="50.4" class="st1" width="213.4" height="1.1"/>
	<rect x="11.6" y="124.7" class="st1" width="213.4" height="1.1"/>
	<path class="st2" d="M18.5,22.8c0.1-0.4,0.2-0.6,0.4-0.6c0.2,0,0.3,0.1,0.6,0.7l6.3,12.9L32,22.8c0.2-0.4,0.3-0.5,0.5-0.5
		s0.3,0.2,0.4,0.7L35,37.1c0.2,1.4,0.4,2.1,1.1,2.3c0.7,0.2,1.1,0.2,1.4,0.2c0.2,0,0.4,0,0.4,0.2c0,0.2-0.3,0.3-0.6,0.3
		c-0.6,0-3.7-0.1-4.6-0.1c-0.5,0-0.7-0.1-0.7-0.3c0-0.1,0.1-0.2,0.3-0.3c0.1,0,0.2-0.3,0.1-1L31,28.3h-0.1l-5,10.4
		c-0.5,1.1-0.6,1.3-0.8,1.3s-0.4-0.5-0.8-1.1c-0.5-1.1-2.4-4.6-2.6-5.2c-0.2-0.5-1.6-3.4-2.4-5.1h-0.1L18,37.7
		c0,0.4-0.1,0.7-0.1,1.1c0,0.4,0.3,0.6,0.7,0.7c0.4,0.1,0.7,0.1,1,0.1c0.2,0,0.3,0,0.3,0.2c0,0.2-0.2,0.3-0.5,0.3
		c-1,0-2-0.1-2.4-0.1c-0.4,0-1.5,0.1-2.3,0.1c-0.2,0-0.4,0-0.4-0.3c0-0.1,0.1-0.2,0.4-0.2c0.2,0,0.3,0,0.7-0.1
		c0.6-0.1,0.8-1,0.9-1.8L18.5,22.8z"/>
	<path class="st2" d="M41.6,29.4c0-3.5,0-4.1,0-4.9c0-0.8-0.2-1.1-1-1.3c-0.2,0-0.6-0.1-0.9-0.1c-0.3,0-0.4,0-0.4-0.2
		c0-0.2,0.2-0.2,0.5-0.2c0.6,0,1.3,0,1.9,0c0.6,0,1.1,0,1.4,0c0.7,0,5.3,0,5.7,0c0.4,0,0.8-0.1,1-0.1c0.1,0,0.3-0.1,0.4-0.1
		c0.1,0,0.1,0.1,0.1,0.2c0,0.2-0.1,0.4-0.2,1.5c0,0.2-0.1,1.2-0.1,1.5c0,0.1-0.1,0.3-0.2,0.3s-0.2-0.1-0.2-0.3c0-0.2,0-0.5-0.1-0.8
		c-0.2-0.4-0.4-0.7-1.5-0.8c-0.4,0-2.8-0.1-3.3-0.1c-0.1,0-0.2,0.1-0.2,0.2V30c0,0.2,0,0.3,0.2,0.3c0.5,0,3.1,0,3.7,0
		c0.5,0,0.9-0.1,1.1-0.3c0.2-0.2,0.3-0.3,0.4-0.3c0.1,0,0.2,0,0.2,0.2s-0.1,0.5-0.2,1.7c0,0.5-0.1,1.4-0.1,1.5c0,0.2,0,0.4-0.2,0.4
		c-0.2,0-0.2-0.1-0.2-0.2c0-0.2,0-0.5-0.1-0.8c-0.1-0.5-0.4-0.8-1.3-0.9c-0.4,0-2.7-0.1-3.3-0.1c-0.1,0-0.1,0.1-0.1,0.2v1.8
		c0,0.8,0,2.9,0,3.5c0,1.6,0.4,1.9,2.7,1.9c0.6,0,1.6,0,2.2-0.3c0.6-0.3,0.9-0.8,1-1.7c0-0.3,0.1-0.3,0.3-0.3c0.2,0,0.2,0.2,0.2,0.4
		c0,0.5-0.2,2.1-0.3,2.5c-0.2,0.6-0.4,0.6-1.2,0.6c-1.7,0-3,0-4-0.1c-1,0-1.7-0.1-2.4-0.1c-0.3,0-0.8,0-1.3,0c-0.5,0-1.1,0-1.6,0
		c-0.3,0-0.5-0.1-0.5-0.2c0-0.1,0.1-0.2,0.4-0.2c0.3,0,0.6,0,0.8-0.1c0.5-0.1,0.6-0.6,0.7-1.3c0.1-1,0.1-2.8,0.1-4.9V29.4z"/>
	<path class="st2" d="M56.9,22.8c0.1-0.4,0.2-0.6,0.4-0.6c0.2,0,0.3,0.1,0.6,0.7l6.3,12.9l6.2-13.1c0.2-0.4,0.3-0.5,0.5-0.5
		s0.3,0.2,0.4,0.7l2.1,14.2c0.2,1.4,0.4,2.1,1.1,2.3c0.7,0.2,1.1,0.2,1.4,0.2c0.2,0,0.4,0,0.4,0.2c0,0.2-0.3,0.3-0.6,0.3
		C75.1,40,72,40,71,39.9c-0.5,0-0.7-0.1-0.7-0.3c0-0.1,0.1-0.2,0.3-0.3c0.1,0,0.2-0.3,0.1-1l-1.4-10.1h-0.1l-5,10.4
		c-0.5,1.1-0.6,1.3-0.8,1.3s-0.4-0.5-0.8-1.1c-0.5-1.1-2.4-4.6-2.6-5.2c-0.2-0.5-1.6-3.4-2.4-5.1h-0.1l-1.2,9.1
		c0,0.4-0.1,0.7-0.1,1.1c0,0.4,0.3,0.6,0.7,0.7c0.4,0.1,0.7,0.1,1,0.1c0.2,0,0.3,0,0.3,0.2c0,0.2-0.2,0.3-0.5,0.3
		c-1,0-2-0.1-2.4-0.1C54.9,40,53.8,40,53,40c-0.2,0-0.4,0-0.4-0.3c0-0.1,0.1-0.2,0.4-0.2c0.2,0,0.3,0,0.7-0.1c0.6-0.1,0.8-1,0.9-1.8
		L56.9,22.8z"/>
	<path class="st2" d="M79.9,29.4c0-3.5,0-4.1,0-4.9c0-0.8-0.2-1.1-1-1.3c-0.2,0-0.6-0.1-0.9-0.1c-0.3,0-0.4,0-0.4-0.2
		c0-0.2,0.2-0.2,0.5-0.2c1.2,0,2.7,0.1,3.1,0.1c1.1,0,2-0.1,2.8-0.1c4.1,0,4.9,2.2,4.9,3.4c0,1.9-1.1,3-2.3,4
		c1.9,0.6,4.2,2.3,4.2,4.9c0,2.5-1.9,5-6.1,5c-0.3,0-0.9,0-1.6-0.1c-0.7,0-1.4-0.1-1.7-0.1c-0.3,0-0.8,0-1.3,0c-0.5,0-1.1,0-1.6,0
		C78.1,40,78,40,78,39.8c0-0.1,0.1-0.2,0.4-0.2c0.3,0,0.6,0,0.8-0.1c0.5-0.1,0.6-0.6,0.7-1.3c0.1-1,0.1-2.8,0.1-4.9V29.4z
		 M82.7,29.8c0,0.2,0.1,0.2,0.2,0.3c0.2,0,0.5,0.1,1.1,0.1c0.8,0,1.3-0.1,1.6-0.4c0.6-0.5,0.9-1.3,0.9-2.4c0-1.5-0.9-3.5-2.9-3.5
		c-0.3,0-0.5,0-0.8,0c-0.2,0-0.2,0.1-0.2,0.4V29.8z M85.7,31.6c-0.5-0.3-1-0.5-1.9-0.5c-0.4,0-0.6,0-1,0c-0.1,0-0.1,0-0.1,0.2v5.4
		c0,1.5,0.1,1.9,0.8,2.2c0.6,0.3,1.1,0.3,1.7,0.3c1,0,2.8-0.5,2.8-2.9C87.9,34.7,87.4,32.8,85.7,31.6z"/>
	<path class="st2" d="M95.7,29.4c0-3.5,0-4.1,0-4.9c0-0.8-0.2-1.1-1-1.3c-0.2,0-0.6-0.1-0.9-0.1c-0.3,0-0.4,0-0.4-0.2
		c0-0.2,0.2-0.2,0.5-0.2c0.6,0,1.3,0,1.9,0c0.6,0,1.1,0,1.4,0c0.7,0,5.3,0,5.7,0c0.4,0,0.8-0.1,1-0.1c0.1,0,0.3-0.1,0.4-0.1
		c0.1,0,0.1,0.1,0.1,0.2c0,0.2-0.1,0.4-0.2,1.5c0,0.2-0.1,1.2-0.1,1.5c0,0.1-0.1,0.3-0.2,0.3c-0.2,0-0.2-0.1-0.2-0.3
		c0-0.2,0-0.5-0.1-0.8c-0.2-0.4-0.4-0.7-1.5-0.8c-0.4,0-2.8-0.1-3.3-0.1c-0.1,0-0.2,0.1-0.2,0.2V30c0,0.2,0,0.3,0.2,0.3
		c0.5,0,3.1,0,3.7,0c0.5,0,0.9-0.1,1.1-0.3c0.2-0.2,0.3-0.3,0.4-0.3c0.1,0,0.2,0,0.2,0.2s-0.1,0.5-0.2,1.7c0,0.5-0.1,1.4-0.1,1.5
		c0,0.2,0,0.4-0.2,0.4c-0.2,0-0.2-0.1-0.2-0.2c0-0.2,0-0.5-0.1-0.8c-0.1-0.5-0.4-0.8-1.3-0.9c-0.4,0-2.7-0.1-3.3-0.1
		c-0.1,0-0.1,0.1-0.1,0.2v1.8c0,0.8,0,2.9,0,3.5c0,1.6,0.4,1.9,2.7,1.9c0.6,0,1.6,0,2.2-0.3c0.6-0.3,0.9-0.8,1-1.7
		c0-0.3,0.1-0.3,0.3-0.3c0.2,0,0.2,0.2,0.2,0.4c0,0.5-0.2,2.1-0.3,2.5c-0.2,0.6-0.4,0.6-1.2,0.6c-1.7,0-3,0-4-0.1
		c-1,0-1.7-0.1-2.4-0.1c-0.3,0-0.8,0-1.3,0c-0.5,0-1.1,0-1.6,0c-0.3,0-0.5-0.1-0.5-0.2c0-0.1,0.1-0.2,0.4-0.2c0.3,0,0.6,0,0.8-0.1
		c0.5-0.1,0.6-0.6,0.7-1.3c0.1-1,0.1-2.8,0.1-4.9V29.4z"/>
	<path class="st2" d="M110.1,29.4c0-3.5,0-4.1,0-4.9c0-0.8-0.2-1.1-1-1.3c-0.2,0-0.6-0.1-0.9-0.1c-0.3,0-0.4,0-0.4-0.2
		c0-0.2,0.2-0.2,0.5-0.2c1.2,0,2.7,0.1,3.1,0.1c0.8,0,2.5-0.1,3.2-0.1c1.4,0,3,0.1,4.2,1c0.6,0.4,1.6,1.6,1.6,3.1
		c0,1.7-0.7,3.3-3,5.1c2,2.6,3.6,4.6,5,6c1.3,1.3,2.2,1.5,2.6,1.6c0.3,0,0.5,0.1,0.6,0.1c0.2,0,0.3,0.1,0.3,0.2
		c0,0.2-0.2,0.2-0.4,0.2h-2.2c-1.3,0-1.9-0.1-2.5-0.4c-1-0.5-1.9-1.6-3.1-3.4c-0.9-1.3-2-2.8-2.3-3.2c-0.1-0.1-0.3-0.2-0.4-0.2l-2,0
		c-0.1,0-0.2,0-0.2,0.2v0.3c0,2.1,0,3.9,0.1,4.9c0.1,0.7,0.2,1.2,0.9,1.3c0.3,0,0.8,0.1,1.1,0.1c0.2,0,0.3,0.1,0.3,0.2
		c0,0.2-0.2,0.2-0.5,0.2c-1.3,0-3-0.1-3.4-0.1c-0.4,0-1.9,0.1-2.8,0.1c-0.3,0-0.5-0.1-0.5-0.2c0-0.1,0.1-0.2,0.4-0.2
		c0.3,0,0.6,0,0.8-0.1c0.5-0.1,0.6-0.6,0.7-1.3c0.1-1,0.1-2.8,0.1-4.9V29.4z M112.8,31.2c0,0.3,0,0.3,0.2,0.4
		c0.5,0.2,1.2,0.2,1.7,0.2c0.9,0,1.2-0.1,1.6-0.4c0.7-0.5,1.4-1.6,1.4-3.4c0-3.3-2.2-4.2-3.5-4.2c-0.6,0-1,0-1.2,0.1
		c-0.2,0-0.2,0.1-0.2,0.3V31.2z"/>
	<path class="st2" d="M131.8,31.4c0-3.9,2.6-9,9.5-9c5.7,0,9.3,3.3,9.3,8.6c0,5.2-3.7,9.4-9.5,9.4C134.5,40.4,131.8,35.4,131.8,31.4
		z M147.3,31.8c0-5.1-3-8.3-6.7-8.3c-2.6,0-5.6,1.5-5.6,7.2c0,4.8,2.6,8.5,7,8.5C143.6,39.2,147.3,38.4,147.3,31.8z"/>
	<path class="st2" d="M158.2,33.4c0,2.2,0,3.9,0.1,4.9c0.1,0.7,0.2,1.2,0.9,1.3c0.3,0,0.8,0.1,1.1,0.1c0.3,0,0.4,0.1,0.4,0.2
		c0,0.2-0.2,0.2-0.5,0.2c-1.4,0-2.9-0.1-3.5-0.1s-2,0.1-2.9,0.1c-0.3,0-0.5,0-0.5-0.2c0-0.1,0.1-0.2,0.3-0.2c0.3,0,0.6,0,0.8-0.1
		c0.5-0.1,0.6-0.6,0.7-1.3c0.1-1,0.1-2.7,0.1-4.9v-4c0-3.5,0-4.1,0-4.9c0-0.8-0.2-1.1-1-1.3c-0.2,0-0.6-0.1-0.9-0.1
		c-0.2,0-0.4,0-0.4-0.2c0-0.2,0.2-0.2,0.5-0.2c0.6,0,1.3,0,1.9,0c0.6,0,1.1,0,1.4,0c0.9,0,5.5,0,6,0c0.4,0,0.7,0,0.9-0.1
		c0.1,0,0.3-0.1,0.4-0.1c0.1,0,0.2,0.1,0.2,0.2c0,0.2-0.1,0.4-0.2,1c0,0.2-0.1,1.6-0.1,1.9c0,0.2-0.1,0.3-0.2,0.3
		c-0.2,0-0.2-0.1-0.2-0.4c0-0.2,0-0.5-0.1-0.9c-0.2-0.3-0.6-0.7-1.5-0.7l-3.5-0.1c-0.1,0-0.2,0.1-0.2,0.3V30c0,0.1,0,0.2,0.2,0.2
		l2.9,0c0.4,0,0.7,0,1,0c0.4,0,0.8-0.1,1-0.4c0.1-0.1,0.2-0.2,0.3-0.2c0.1,0,0.1,0.1,0.1,0.2c0,0.1-0.1,0.7-0.2,1.4
		c0,0.5-0.1,1.5-0.1,1.7c0,0.2,0,0.4-0.2,0.4c-0.1,0-0.2-0.2-0.2-0.3c0-0.2,0-0.4-0.1-0.7c-0.1-0.3-0.5-0.7-1.2-0.8
		c-0.6-0.1-3-0.1-3.4-0.1c-0.1,0-0.2,0-0.2,0.2V33.4z"/>
	<path class="st2" d="M179.5,24l-3.4,0.1c-1.3,0-1.9,0.2-2.2,0.7c-0.2,0.3-0.3,0.6-0.4,0.8c0,0.2-0.1,0.3-0.3,0.3
		c-0.2,0-0.2-0.1-0.2-0.4c0-0.4,0.4-2.5,0.5-2.6c0.1-0.3,0.1-0.4,0.3-0.4c0.2,0,0.4,0.2,1,0.3c0.7,0.1,1.5,0.1,2.3,0.1h9.1
		c0.7,0,1.2-0.1,1.6-0.1c0.3-0.1,0.5-0.1,0.6-0.1c0.2,0,0.2,0.1,0.2,0.5c0,0.5-0.1,2.1-0.1,2.7c0,0.2-0.1,0.4-0.2,0.4
		c-0.2,0-0.2-0.1-0.3-0.5l0-0.3c0-0.6-0.7-1.2-2.7-1.3l-2.9-0.1v9.4c0,2.1,0,3.9,0.1,4.9c0.1,0.6,0.2,1.1,0.9,1.2
		c0.3,0,0.8,0.1,1.2,0.1c0.3,0,0.4,0.1,0.4,0.2c0,0.2-0.2,0.2-0.4,0.2c-1.5,0-3-0.1-3.6-0.1c-0.5,0-2,0.1-2.9,0.1
		c-0.3,0-0.5-0.1-0.5-0.2c0-0.1,0.1-0.2,0.4-0.2c0.3,0,0.6,0,0.8-0.1c0.5-0.1,0.6-0.6,0.7-1.3c0.1-1,0.1-2.8,0.1-4.9V24z"/>
	<path class="st2" d="M204.4,30c0.1,0,0.1,0,0.1-0.2v-0.5c0-3.5,0-4.1,0-4.9c0-0.8-0.2-1.1-1-1.3c-0.2,0-0.6-0.1-0.9-0.1
		c-0.3,0-0.4,0-0.4-0.2c0-0.2,0.2-0.2,0.5-0.2c1.2,0,2.7,0.1,3.3,0.1c0.5,0,2-0.1,2.9-0.1c0.3,0,0.5,0,0.5,0.2
		c0,0.2-0.1,0.2-0.4,0.2c-0.2,0-0.4,0-0.7,0.1c-0.6,0.1-0.8,0.5-0.8,1.3c0,0.7,0,1.4,0,4.9v4c0,2.1,0,3.9,0.1,4.9
		c0.1,0.6,0.2,1.1,0.9,1.2c0.3,0,0.8,0.1,1.2,0.1c0.3,0,0.4,0.1,0.4,0.2c0,0.2-0.2,0.2-0.5,0.2c-1.5,0-2.9-0.1-3.6-0.1
		c-0.5,0-2,0.1-2.9,0.1c-0.3,0-0.5-0.1-0.5-0.2c0-0.1,0.1-0.2,0.4-0.2c0.3,0,0.6,0,0.8-0.1c0.5-0.1,0.6-0.6,0.7-1.3
		c0.1-1,0.1-2.8,0.1-4.9v-2c0-0.1-0.1-0.1-0.1-0.1h-8.7c-0.1,0-0.1,0-0.1,0.1v2c0,2.1,0,3.9,0.1,4.9c0.1,0.6,0.2,1.1,0.9,1.2
		c0.3,0,0.8,0.1,1.2,0.1c0.3,0,0.4,0.1,0.4,0.2c0,0.2-0.2,0.2-0.5,0.2c-1.5,0-2.9-0.1-3.6-0.1c-0.5,0-2,0.1-2.9,0.1
		c-0.3,0-0.5-0.1-0.5-0.2c0-0.1,0.1-0.2,0.4-0.2c0.3,0,0.6,0,0.8-0.1c0.5-0.1,0.6-0.6,0.7-1.3c0.1-1,0.1-2.8,0.1-4.9v-4
		c0-3.5,0-4.1,0-4.9c0-0.8-0.2-1.1-1-1.3c-0.2,0-0.6-0.1-0.9-0.1c-0.3,0-0.4,0-0.4-0.2c0-0.2,0.2-0.2,0.5-0.2c1.2,0,2.7,0.1,3.3,0.1
		c0.5,0,2-0.1,2.9-0.1c0.3,0,0.5,0,0.5,0.2c0,0.2-0.1,0.2-0.4,0.2c-0.2,0-0.4,0-0.7,0.1c-0.6,0.1-0.8,0.5-0.8,1.3c0,0.7,0,1.4,0,4.9
		v0.5c0,0.1,0.1,0.2,0.1,0.2H204.4z"/>
	<path class="st2" d="M215,29.4c0-3.5,0-4.1,0-4.9c0-0.8-0.2-1.1-1-1.3c-0.2,0-0.6-0.1-0.9-0.1c-0.3,0-0.4,0-0.4-0.2
		c0-0.2,0.2-0.2,0.5-0.2c0.6,0,1.3,0,1.9,0c0.6,0,1.1,0,1.4,0c0.7,0,5.3,0,5.7,0c0.4,0,0.8-0.1,1-0.1c0.1,0,0.3-0.1,0.4-0.1
		s0.1,0.1,0.1,0.2c0,0.2-0.1,0.4-0.2,1.5c0,0.2-0.1,1.2-0.1,1.5c0,0.1-0.1,0.3-0.2,0.3s-0.2-0.1-0.2-0.3c0-0.2,0-0.5-0.1-0.8
		c-0.2-0.4-0.4-0.7-1.5-0.8c-0.4,0-2.8-0.1-3.3-0.1c-0.1,0-0.2,0.1-0.2,0.2V30c0,0.2,0,0.3,0.2,0.3c0.5,0,3.1,0,3.7,0
		c0.5,0,0.9-0.1,1.1-0.3c0.2-0.2,0.3-0.3,0.4-0.3c0.1,0,0.2,0,0.2,0.2s-0.1,0.5-0.2,1.7c0,0.5-0.1,1.4-0.1,1.5c0,0.2,0,0.4-0.2,0.4
		c-0.2,0-0.2-0.1-0.2-0.2c0-0.2,0-0.5-0.1-0.8c-0.1-0.5-0.4-0.8-1.3-0.9c-0.4,0-2.7-0.1-3.3-0.1c-0.1,0-0.1,0.1-0.1,0.2v1.8
		c0,0.8,0,2.9,0,3.5c0,1.6,0.4,1.9,2.7,1.9c0.6,0,1.6,0,2.2-0.3c0.6-0.3,0.9-0.8,1-1.7c0-0.3,0.1-0.3,0.3-0.3c0.2,0,0.2,0.2,0.2,0.4
		c0,0.5-0.2,2.1-0.3,2.5c-0.2,0.6-0.4,0.6-1.2,0.6c-1.7,0-3,0-4-0.1c-1,0-1.7-0.1-2.4-0.1c-0.3,0-0.8,0-1.3,0c-0.5,0-1.1,0-1.6,0
		c-0.3,0-0.5-0.1-0.5-0.2c0-0.1,0.1-0.2,0.4-0.2c0.3,0,0.6,0,0.8-0.1c0.5-0.1,0.6-0.6,0.7-1.3c0.1-1,0.1-2.8,0.1-4.9V29.4z"/>
</g>
</svg>
